{
DisplayStrings = (
"a+\U00B1ab2\U00B13SA\U00B1D"
);
customParameters = (
{
name = glyphOrder;
value = (
    ".notdef",
    dottedcircle,
    dvAnusvara,
    dvCandrabindu,
    dvVisarga,
    dvA,
    dvAA,
    dvI,
    dvII,
    dvReph,
    dvU,
    dvUU,
    dvvL,
    dvEcandra,
    dvE,
    dvmEcandra,
    dvAI,
    dvmE,
    dvOcandra,
    dvO,
    dvAU,
    dvmAI,
    dvKA,
    dvKHA,
    dvGA,
    dvGHA,
    dvNGA,
    dvCA,
    dvCHA,
    dvJA,
    dvJHA,
    dvNYA,
    dvTTA,
    dvTTHA,
    dvDDA,
    dvDDHA,
    dvNNA,
    dvTA,
    dvTHA,
    dvDA,
    dvDHA,
    dvNA,
    dvPA,
    dvPHA,
    dvBA,
    dvBHA,
    dvMA,
    dvYA,
    dvRA,
    dvRxA,
    dvNukta,
    dvLA,
    dvLLA,
    dvVA,
    dvSHA,
    dvSSA,
    dvSA,
    dvHA,
    dvmAA,
    dvmI,
    dvmII,
    dvmU,
    dvmUU,
    dvmvR,
    dvmOcandra,
    dvmO,
    dvmAU,
    dvVirama,
    dvOm,
    dvKxA,
    dvKHxA,
    dvGxA,
    dvJxA,
    dvDDxA,
    dvDDHxA,
    dvPHxA,
    danda,
    doubledanda,
    "dvK_SSA",
    "dvJ_NYA",
    dvRashtrasign,
    dvK,
    dvKH,
    dvG,
    dvGH,
    dvNG,
    dvC,
    dvCH,
    dvJ,
    dvJH,
    dvNY,
    dvTT,
    dvTTH,
    dvDD,
    dvDDH,
    dvNN,
    dvT,
    dvTH,
    dvD,
    dvDH,
    dvN,
    dvP,
    dvPH,
    dvB,
    dvBH,
    dvM,
    dvY,
    dvR,
    dvL,
    dvLL,
    dvV,
    dvSH,
    dvSS,
    dvS,
    dvH,
    "dvJ_NY",
    "dvK_RA",
    "dvKH_RA",
    "dvG_RA",
    "dvGH_RA",
    "dvNG_RA",
    "dvC_RA",
    "dvCH_RA",
    "dvJ_RA",
    "dvJH_RA",
    "dvNY_RA",
    "dvTT_RA",
    "dvTTH_RA",
    "dvDD_RA",
    "dvDDH_RA",
    "dvNN_RA",
    "dvT_RA",
    "dvTH_RA",
    "dvD_RA",
    "dvDH_RA",
    "dvN_RA",
    "dvP_RA",
    "dvPH_RA",
    "dvB_RA",
    "dvBH_RA",
    "dvM_RA",
    "dvY_RA",
    "dvV_RA",
    "dvK_NA",
    "dvKH_NA",
    "dvG_NA",
    "dvGH_NA",
    "dvC_NA",
    "dvJ_NA",
    "dvJH_NA",
    "dvT_NA",
    "dvTH_NA",
    "dvD_NA",
    "dvDH_NA",
    "dvN_NA",
    "dvP_NA",
    "dvPH_NA",
    "dvB_NA",

glyphs = (
{
glyphname = .notdef;
layers = (
{
layerId = "A7C7F4A0-D38E-458B-B20F-CA7152D87AAE";
name = Bold;
paths = (
{
closed = 1;
nodes = (
"160 0 LINE",
"596 0 LINE",
"596 701 LINE",
"160 701 LINE"
);
},
{
closed = 1;
nodes = (
"241 625 LINE",
"516 625 LINE",
"516 76 LINE",
"241 76 LINE"
);
}
);
width = 756;
}
);
},
{
glyphname = dottedcircle;
layers = (
{
layerId = "A7C7F4A0-D38E-458B-B20F-CA7152D87AAE";
name = Bold;
paths = (
{
closed = 1;
nodes = (
"139 517 CURVE SMOOTH",
"139 491 OFFCURVE",
"157 472 OFFCURVE",
"183 472 CURVE SMOOTH",
"209 472 OFFCURVE",
"227 491 OFFCURVE",
"227 517 CURVE SMOOTH",
"227 542 OFFCURVE",
"209 561 OFFCURVE",
"183 561 CURVE SMOOTH",
"157 561 OFFCURVE",
"139 542 OFFCURVE"
);
},
{
closed = 1;
nodes = (
"57 407 CURVE SMOOTH",
"57 382 OFFCURVE",
"77 363 OFFCURVE",
"103 363 CURVE SMOOTH",
"127 363 OFFCURVE",
"147 382 OFFCURVE",
"147 407 CURVE SMOOTH",
"147 432 OFFCURVE",
"127 451 OFFCURVE",
"103 451 CURVE SMOOTH",
"77 451 OFFCURVE",
"57 432 OFFCURVE"
);
},
{
closed = 1;
nodes = (
"44 281 CURVE SMOOTH",
"44 256 OFFCURVE",
"63 238 OFFCURVE",
"88 238 CURVE SMOOTH",
"114 238 OFFCURVE",
"132 256 OFFCURVE",
"132 281 CURVE SMOOTH",
"132 307 OFFCURVE",
"114 326 OFFCURVE",
"88 326 CURVE SMOOTH",
"63 326 OFFCURVE",
"44 307 OFFCURVE"
);
},
{
closed = 1;
nodes = (
"96 165 CURVE SMOOTH",
"96 139 OFFCURVE",
"114 121 OFFCURVE",
"140 121 CURVE SMOOTH",
"165 121 OFFCURVE",
"184 139 OFFCURVE",
"184 165 CURVE SMOOTH",
"184 190 OFFCURVE",
"165 209 OFFCURVE",
"140 209 CURVE SMOOTH",
"114 209 OFFCURVE",
"96 190 OFFCURVE"
);
},
{
closed = 1;
nodes = (
"197 90 CURVE SMOOTH",
"197 64 OFFCURVE",
"216 44 OFFCURVE",
"242 44 CURVE SMOOTH",
"267 44 OFFCURVE",
"286 64 OFFCURVE",
"286 90 CURVE SMOOTH",
"286 114 OFFCURVE",
"267 134 OFFCURVE",
"242 134 CURVE SMOOTH",
"216 134 OFFCURVE",
"197 114 OFFCURVE"
);
},
{
closed = 1;
nodes = (
"324 74 CURVE SMOOTH",
"324 48 OFFCURVE",
"342 30 OFFCURVE",
"368 30 CURVE SMOOTH",
"394 30 OFFCURVE",
"413 48 OFFCURVE",
"413 74 CURVE SMOOTH",
"413 100 OFFCURVE",
"394 118 OFFCURVE",
"368 118 CURVE SMOOTH",
"342 118 OFFCURVE",
"324 100 OFFCURVE"
);
},
{
closed = 1;
nodes = (
"445 127 CURVE SMOOTH",
"445 101 OFFCURVE",
"464 83 OFFCURVE",
"489 83 CURVE SMOOTH",
"514 83 OFFCURVE",
"534 101 OFFCURVE",
"534 127 CURVE SMOOTH",
"534 152 OFFCURVE",
"514 171 OFFCURVE",
"489 171 CURVE SMOOTH",
"464 171 OFFCURVE",
"445 152 OFFCURVE"
);
},
{
closed = 1;
nodes = (
"518 225 CURVE SMOOTH",
"518 200 OFFCURVE",
"537 181 OFFCURVE",
"563 181 CURVE SMOOTH",
"587 181 OFFCURVE",
"606 200 OFFCURVE",
"606 225 CURVE SMOOTH",
"606 251 OFFCURVE",
"587 270 OFFCURVE",
"563 270 CURVE SMOOTH",
"537 270 OFFCURVE",
"518 251 OFFCURVE"
);
},
{
closed = 1;
nodes = (
"528 359 CURVE SMOOTH",
"528 333 OFFCURVE",
"546 315 OFFCURVE",
"572 315 CURVE SMOOTH",
"597 315 OFFCURVE",
"616 333 OFFCURVE",
"616 359 CURVE SMOOTH",
"616 385 OFFCURVE",
"597 403 OFFCURVE",
"572 403 CURVE SMOOTH",
"546 403 OFFCURVE",
"528 385 OFFCURVE"
);
},
{
closed = 1;
nodes = (
"478 477 CURVE SMOOTH",
"478 452 OFFCURVE",
"497 433 OFFCURVE",
"522 433 CURVE SMOOTH",
"548 433 OFFCURVE",
"566 452 OFFCURVE",
"566 477 CURVE SMOOTH",
"566 503 OFFCURVE",
"548 522 OFFCURVE",
"522 522 CURVE SMOOTH",
"497 522 OFFCURVE",
"478 503 OFFCURVE"
);
},
{
closed = 1;
nodes = (
"383 545 CURVE SMOOTH",
"383 521 OFFCURVE",
"402 501 OFFCURVE",
"428 501 CURVE SMOOTH",
"453 501 OFFCURVE",
"471 521 OFFCURVE",
"471 545 CURVE SMOOTH",
"471 571 OFFCURVE",
"453 590 OFFCURVE",
"428 590 CURVE SMOOTH",
"402 590 OFFCURVE",
"383 571 OFFCURVE"
);
},
{
closed = 1;
nodes = (
"257 560 CURVE SMOOTH",
"257 534 OFFCURVE",
"275 516 OFFCURVE",
"301 516 CURVE SMOOTH",
"327 516 OFFCURVE",
"345 534 OFFCURVE",
"345 560 CURVE SMOOTH",
"345 586 OFFCURVE",
"327 604 OFFCURVE",
"301 604 CURVE SMOOTH",
"275 604 OFFCURVE",
"257 586 OFFCURVE"
);
}
);
width = 660;
}
);
unicode = 25CC;
},
{
glyphname = dvAnusvara;
layers = (
{
anchors = (
{
name = _abvm.bindu;
position = "{-220, 669}";
}
);
layerId = "A7C7F4A0-D38E-458B-B20F-CA7152D87AAE";
name = Bold;
paths = (
{
closed = 1;
nodes = (
"-142 745 CURVE SMOOTH",
"-102 745 OFFCURVE",
"-75 775 OFFCURVE",
"-75 812 CURVE SMOOTH",
"-75 861 OFFCURVE",
"-121 905 OFFCURVE",
"-168 905 CURVE SMOOTH",
"-208 905 OFFCURVE",
"-235 876 OFFCURVE",
"-235 838 CURVE SMOOTH",
"-235 789 OFFCURVE",
"-191 745 OFFCURVE"
);
}
);
width = 0;
}
);
unicode = 0902;
},
{
glyphname = dvCandrabindu;
layers = (
{
anchors = (
{
name = _abvm.bindu;
position = "{-220, 669}";
}
);
layerId = "A7C7F4A0-D38E-458B-B20F-CA7152D87AAE";
name = Bold;
paths = (
{
closed = 1;
nodes = (
"-146 913 CURVE SMOOTH",
"-106 913 OFFCURVE",
"-79 943 OFFCURVE",
"-79 980 CURVE SMOOTH",
"-79 1029 OFFCURVE",
"-125 1073 OFFCURVE",
"-172 1073 CURVE SMOOTH",
"-212 1073 OFFCURVE",
"-239 1044 OFFCURVE",
"-239 1006 CURVE SMOOTH",
"-239 957 OFFCURVE",
"-195 913 OFFCURVE"
);
},
{
closed = 1;
nodes = (
"-319 933 CURVE",
"-340 922 OFFCURVE",
"-347 905 OFFCURVE",
"-347 889 CURVE SMOOTH",
"-347 827 OFFCURVE",
"-241 747 OFFCURVE",
"-111 747 CURVE SMOOTH",
"-43 747 OFFCURVE",
"64 784 OFFCURVE",
"64 865 CURVE SMOOTH",
"64 907 OFFCURVE",
"27 938 OFFCURVE",
"-6 940 CURVE",
"-36 877 OFFCURVE",
"-98 850 OFFCURVE",
"-157 850 CURVE SMOOTH",
"-220 850 OFFCURVE",
"-278 877 OFFCURVE"
);
}
);
width = 0;
}
);
unicode = 0901;
},
{
glyphname = dvVisarga;
layers = (
{
layerId = "A7C7F4A0-D38E-458B-B20F-CA7152D87AAE";
name = Bold;
paths = (
{
closed = 1;
nodes = (
"209 374 CURVE SMOOTH",
"249 374 OFFCURVE",
"276 404 OFFCURVE",
"276 441 CURVE SMOOTH",
"276 490 OFFCURVE",
"230 534 OFFCURVE",
"183 534 CURVE SMOOTH",
"143 534 OFFCURVE",
"116 505 OFFCURVE",
"116 467 CURVE SMOOTH",
"116 418 OFFCURVE",
"160 374 OFFCURVE"
);
},
{
closed = 1;
nodes = (
"209 50 CURVE SMOOTH",
"249 50 OFFCURVE",
"276 80 OFFCURVE",
"276 117 CURVE SMOOTH",
"276 166 OFFCURVE",
"230 210 OFFCURVE",
"183 210 CURVE SMOOTH",
"143 210 OFFCURVE",
"116 181 OFFCURVE",
"116 143 CURVE SMOOTH",
"116 94 OFFCURVE",
"160 50 OFFCURVE"
);
}
);
width = 371;
}
);
unicode = 0903;
},
{
glyphname = dvA;
layers = (
{
layerId = "A7C7F4A0-D38E-458B-B20F-CA7152D87AAE";
name = Bold;
paths = (
{
closed = 1;
nodes = (
"589 261 LINE",
"581 219 OFFCURVE",
"576 175 OFFCURVE",
"576 137 CURVE SMOOTH",
"576 55 OFFCURVE",
"604 -7 OFFCURVE",
"682 -7 CURVE SMOOTH",
"693 -7 OFFCURVE",
"709 -6 OFFCURVE",
"724 0 CURVE",
"713 18 OFFCURVE",
"709 69 OFFCURVE",
"709 105 CURVE SMOOTH",
"709 208 OFFCURVE",
"714 322 OFFCURVE",
"714 431 CURVE SMOOTH",
"714 483 OFFCURVE",
"709 570 OFFCURVE",
"609 570 CURVE SMOOTH",
"591 570 OFFCURVE",
"574 564 OFFCURVE",
"564 552 CURVE",
"579 529 OFFCURVE",
"581 484 OFFCURVE",
"581 448 CURVE SMOOTH",
"581 386 OFFCURVE",
"579 341 OFFCURVE",
"578 304 CURVE",
"604 402 LINE",
"596 378 OFFCURVE",
"554 344 OFFCURVE",
"493 344 CURVE SMOOTH",
"377 344 OFFCURVE",
"350 458 OFFCURVE",
"236 458 CURVE SMOOTH",
"196 458 OFFCURVE",
"160 436 OFFCURVE",
"160 396 CURVE SMOOTH",
"160 337 OFFCURVE",
"224 313 OFFCURVE",
"272 313 CURVE SMOOTH",
"297 313 OFFCURVE",
"322 317 OFFCURVE",
"343 325 CURVE",
"351 321 OFFCURVE",
"373 299 OFFCURVE",
"373 265 CURVE SMOOTH",
"373 211 OFFCURVE",
"329 183 OFFCURVE",
"280 183 CURVE SMOOTH",
"182 183 OFFCURVE",
"111 269 OFFCURVE",
"72 346 CURVE",
"59 342 OFFCURVE",
"30 333 OFFCURVE",
"30 297 CURVE SMOOTH",
"30 241 OFFCURVE",
"150 66 OFFCURVE",
"316 66 CURVE SMOOTH",
"424 66 OFFCURVE",
"478 132 OFFCURVE",
"478 209 CURVE SMOOTH",
"478 243 OFFCURVE",
"467 277 OFFCURVE",
"450 309 CURVE",
"394 314 LINE",
"430 269 OFFCURVE",
"488 242 OFFCURVE",
"555 242 CURVE SMOOTH",
"582 242 OFFCURVE",
"647 258 OFFCURVE",
"659 273 CURVE"
);
},
{
closed = 1;
nodes = (
"348 328 LINE",
"359 335 OFFCURVE",
"451 365 OFFCURVE",
"451 472 CURVE SMOOTH",
"451 586 OFFCURVE",
"355 677 OFFCURVE",
"241 677 CURVE SMOOTH",
"184 677 OFFCURVE",
"115 651 OFFCURVE",
"115 592 CURVE SMOOTH",
"115 567 OFFCURVE",
"129 540 OFFCURVE",
"156 522 CURVE",
"190 550 OFFCURVE",
"246 570 OFFCURVE",
"289 570 CURVE SMOOTH",
"327 570 OFFCURVE",
"356 555 OFFCURVE",
"356 522 CURVE SMOOTH",
"356 491 OFFCURVE",
"325 446 OFFCURVE",
"252 421 CURVE"
);
},
{
closed = 1;
nodes = (
"851 552 LINE",
"854 558 OFFCURVE",
"858 572 OFFCURVE",
"858 584 CURVE SMOOTH",
"858 669 OFFCURVE",
"768 669 OFFCURVE",
"732 669 CURVE SMOOTH",
"474 669 LINE",
"471 663 OFFCURVE",
"469 650 OFFCURVE",
"469 642 CURVE SMOOTH",
"469 552 OFFCURVE",
"559 552 OFFCURVE",
"595 552 CURVE SMOOTH"
);
}
);
width = 795;
}
);
unicode = 0905;
},
{
glyphname = dvAA;
layers = (
{
anchors = (
{
name = abvm.bindu;
position = "{704, 669}";
}
);
layerId = "A7C7F4A0-D38E-458B-B20F-CA7152D87AAE";
name = Bold;
paths = (
{
closed = 1;
nodes = (
"589 261 LINE",
"581 219 OFFCURVE",
"576 175 OFFCURVE",
"576 137 CURVE SMOOTH",
"576 55 OFFCURVE",
"604 -7 OFFCURVE",
"682 -7 CURVE SMOOTH",
"693 -7 OFFCURVE",
"709 -6 OFFCURVE",
"724 0 CURVE",
"713 18 OFFCURVE",
"709 69 OFFCURVE",
"709 105 CURVE SMOOTH",
"709 208 OFFCURVE",
"714 322 OFFCURVE",
"714 431 CURVE SMOOTH",
"714 483 OFFCURVE",
"709 570 OFFCURVE",
"609 570 CURVE SMOOTH",
"591 570 OFFCURVE",
"574 564 OFFCURVE",
"564 552 CURVE",
"579 529 OFFCURVE",
"581 484 OFFCURVE",
"581 448 CURVE SMOOTH",
"581 386 OFFCURVE",
"579 341 OFFCURVE",
"578 304 CURVE",
"604 402 LINE",
"596 378 OFFCURVE",
"554 344 OFFCURVE",
"493 344 CURVE SMOOTH",
"377 344 OFFCURVE",
"350 458 OFFCURVE",
"236 458 CURVE SMOOTH",
"196 458 OFFCURVE",
"160 436 OFFCURVE",
"160 396 CURVE SMOOTH",
"160 337 OFFCURVE",
"224 313 OFFCURVE",
"272 313 CURVE SMOOTH",
"297 313 OFFCURVE",
"322 317 OFFCURVE",
"343 325 CURVE",
"351 321 OFFCURVE",
"373 299 OFFCURVE",
"373 265 CURVE SMOOTH",
"373 211 OFFCURVE",
"329 183 OFFCURVE",
"280 183 CURVE SMOOTH",
"182 183 OFFCURVE",
"111 269 OFFCURVE",
"72 346 CURVE",
"59 342 OFFCURVE",
"30 333 OFFCURVE",
"30 297 CURVE SMOOTH",
"30 241 OFFCURVE",
"150 66 OFFCURVE",
"316 66 CURVE SMOOTH",
"424 66 OFFCURVE",
"478 132 OFFCURVE",
"478 209 CURVE SMOOTH",
"478 243 OFFCURVE",
"467 277 OFFCURVE",
"450 309 CURVE",
"394 314 LINE",
"430 269 OFFCURVE",
"488 242 OFFCURVE",
"555 242 CURVE SMOOTH",
"582 242 OFFCURVE",
"647 258 OFFCURVE",
"659 273 CURVE"
);
},
{
closed = 1;
nodes = (
"348 328 LINE",
"359 335 OFFCURVE",
"451 365 OFFCURVE",
"451 472 CURVE SMOOTH",
"451 586 OFFCURVE",
"355 677 OFFCURVE",
"241 677 CURVE SMOOTH",
"184 677 OFFCURVE",
"115 651 OFFCURVE",
"115 592 CURVE SMOOTH",
"115 567 OFFCURVE",
"129 540 OFFCURVE",
"156 522 CURVE",
"190 550 OFFCURVE",
"246 570 OFFCURVE",
"289 570 CURVE SMOOTH",
"327 570 OFFCURVE",
"356 555 OFFCURVE",
"356 522 CURVE SMOOTH",
"356 491 OFFCURVE",
"325 446 OFFCURVE",
"252 421 CURVE"
);
},
{
closed = 1;
nodes = (
"851 552 LINE",
"854 558 OFFCURVE",
"858 572 OFFCURVE",
"858 584 CURVE SMOOTH",
"858 669 OFFCURVE",
"768 669 OFFCURVE",
"732 669 CURVE SMOOTH",
"474 669 LINE",
"471 663 OFFCURVE",
"469 650 OFFCURVE",
"469 642 CURVE SMOOTH",
"469 552 OFFCURVE",
"559 552 OFFCURVE",
"595 552 CURVE SMOOTH"
);
},
{
closed = 1;
nodes = (
"858 552 CURVE",
"873 529 OFFCURVE",
"873 485 OFFCURVE",
"873 448 CURVE SMOOTH",
"873 294 OFFCURVE",
"868 223 OFFCURVE",
"868 145 CURVE SMOOTH",
"868 102 OFFCURVE",
"870 -7 OFFCURVE",
"974 -7 CURVE SMOOTH",
"985 -7 OFFCURVE",
"1001 -6 OFFCURVE",
"1016 0 CURVE",
"1005 18 OFFCURVE",
"1001 69 OFFCURVE",
"1001 105 CURVE SMOOTH",
"1001 208 OFFCURVE",
"1006 322 OFFCURVE",
"1006 431 CURVE SMOOTH",
"1006 483 OFFCURVE",
"1003 570 OFFCURVE",
"903 570 CURVE SMOOTH",
"885 570 OFFCURVE",
"868 564 OFFCURVE"
);
},
{
closed = 1;
nodes = (
"1134 552 LINE",
"1137 558 OFFCURVE",
"1141 572 OFFCURVE",
"1141 584 CURVE SMOOTH",
"1141 669 OFFCURVE",
"1051 669 OFFCURVE",
"1015 669 CURVE SMOOTH",
"717 669 LINE",
"714 663 OFFCURVE",
"712 650 OFFCURVE",
"712 642 CURVE SMOOTH",
"712 552 OFFCURVE",
"802 552 OFFCURVE",
"838 552 CURVE SMOOTH"
);
}
);
width = 1078;
}
);
unicode = 0906;
},
{
glyphname = dvI;
layers = (
{
anchors = (
{
name = abvm.bindu;
position = "{226, 669}";
}
);
layerId = "A7C7F4A0-D38E-458B-B20F-CA7152D87AAE";
name = Bold;
paths = (
{
closed = 1;
nodes = (
"117 81 LINE",
"143 -13 OFFCURVE",
"197 -203 OFFCURVE",
"336 -203 CURVE SMOOTH",
"383 -203 OFFCURVE",
"423 -173 OFFCURVE",
"423 -128 CURVE SMOOTH",
"423 -102 OFFCURVE",
"411 -78 OFFCURVE",
"392 -62 CURVE",
"373 -78 OFFCURVE",
"349 -83 OFFCURVE",
"331 -83 CURVE SMOOTH",
"254 -83 OFFCURVE",
"205 0 OFFCURVE",
"182 57 CURVE"
);
},
{
closed = 1;
nodes = (
"289 315 CURVE SMOOTH",
"261 315 OFFCURVE",
"225 306 OFFCURVE",
"198 306 CURVE SMOOTH",
"177 306 OFFCURVE",
"152 313 OFFCURVE",
"152 337 CURVE SMOOTH",
"152 377 OFFCURVE",
"223 377 OFFCURVE",
"254 377 CURVE SMOOTH",
"273 377 OFFCURVE",
"296 376 OFFCURVE",
"317 376 CURVE SMOOTH",
"391 376 OFFCURVE",
"426 416 OFFCURVE",
"426 465 CURVE SMOOTH",
"426 501 OFFCURVE",
"407 542 OFFCURVE",
"369 570 CURVE",
"299 555 LINE",
"316 546 OFFCURVE",
"322 533 OFFCURVE",
"322 521 CURVE SMOOTH",
"322 502 OFFCURVE",
"302 493 OFFCURVE",
"271 493 CURVE SMOOTH",
"244 493 OFFCURVE",
"225 494 OFFCURVE",
"205 494 CURVE SMOOTH",
"114 494 OFFCURVE",
"64 449 OFFCURVE",
"64 377 CURVE SMOOTH",
"64 274 OFFCURVE",
"152 187 OFFCURVE",
"253 187 CURVE SMOOTH",
"289 187 OFFCURVE",
"325 194 OFFCURVE",
"344 194 CURVE SMOOTH",
"366 194 OFFCURVE",
"379 184 OFFCURVE",
"379 168 CURVE SMOOTH",
"379 132 OFFCURVE",
"312 107 OFFCURVE",
"249 107 CURVE SMOOTH",
"221 107 OFFCURVE",
"190 112 OFFCURVE",
"168 124 CURVE",
"157 163 OFFCURVE",
"127 207 OFFCURVE",
"84 207 CURVE SMOOTH",
"52 207 OFFCURVE",
"33 182 OFFCURVE",
"33 154 CURVE SMOOTH",
"33 56 OFFCURVE",
"156 -9 OFFCURVE",
"297 -9 CURVE SMOOTH",
"398 -9 OFFCURVE",
"469 46 OFFCURVE",
"469 134 CURVE SMOOTH",
"469 238 OFFCURVE",
"380 315 OFFCURVE"
);
},
{
closed = 1;
nodes = (
"560 552 LINE",
"563 558 OFFCURVE",
"567 572 OFFCURVE",
"567 584 CURVE SMOOTH",
"567 669 OFFCURVE",
"477 669 OFFCURVE",
"441 669 CURVE SMOOTH",
"-78 669 LINE",
"-81 663 OFFCURVE",
"-83 650 OFFCURVE",
"-83 642 CURVE SMOOTH",
"-83 552 OFFCURVE",
"7 552 OFFCURVE",
"43 552 CURVE SMOOTH"
);
}
);
width = 487;
}
);
unicode = 0907;
},
{
glyphname = dvReph;
layers = (
{
anchors = (
{
name = _abvm.e;
position = "{-72, 669}";
}
);
layerId = "A7C7F4A0-D38E-458B-B20F-CA7152D87AAE";
name = Bold;
paths = (
{
closed = 1;
nodes = (
"-94 782 CURVE",
"-61 782 OFFCURVE",
"-45 808 OFFCURVE",
"-45 841 CURVE SMOOTH",
"-45 894 OFFCURVE",
"-88 963 OFFCURVE",
"-170 963 CURVE SMOOTH",
"-237 963 OFFCURVE",
"-284 909 OFFCURVE",
"-284 840 CURVE SMOOTH",
"-284 735 OFFCURVE",
"-195 645 OFFCURVE",
"-146 645 CURVE SMOOTH",
"-127 645 OFFCURVE",
"-112 655 OFFCURVE",
"-106 668 CURVE",
"-145 702 OFFCURVE",
"-192 746 OFFCURVE",
"-192 800 CURVE SMOOTH",
"-192 830 OFFCURVE",
"-172 849 OFFCURVE",
"-146 849 CURVE SMOOTH",
"-110 849 OFFCURVE",
"-96 814 OFFCURVE"
);
}
);
width = 0;
}
);
},
{
glyphname = dvU;
layers = (
{
anchors = (
{
name = abvm.bindu;
position = "{234, 669}";
}
);
layerId = "A7C7F4A0-D38E-458B-B20F-CA7152D87AAE";
name = Bold;
paths = (
{
closed = 1;
nodes = (
"-50 669 LINE",
"-53 663 OFFCURVE",
"-55 650 OFFCURVE",
"-55 642 CURVE SMOOTH",
"-55 552 OFFCURVE",
"35 552 OFFCURVE",
"71 552 CURVE SMOOTH",
"577 552 LINE",
"580 558 OFFCURVE",
"584 572 OFFCURVE",
"584 584 CURVE SMOOTH",
"584 669 OFFCURVE",
"494 669 OFFCURVE",
"458 669 CURVE SMOOTH"
);
},
{
closed = 1;
nodes = (
"338 305 LINE",
"345 301 OFFCURVE",
"367 278 OFFCURVE",
"367 244 CURVE SMOOTH",
"367 190 OFFCURVE",
"323 162 OFFCURVE",
"274 162 CURVE SMOOTH",
"175 162 OFFCURVE",
"104 251 OFFCURVE",
"65 331 CURVE",
"52 328 OFFCURVE",
"23 318 OFFCURVE",
"23 282 CURVE SMOOTH",
"23 224 OFFCURVE",
"145 44 OFFCURVE",
"313 44 CURVE SMOOTH",
"421 44 OFFCURVE",
"475 110 OFFCURVE",
"475 187 CURVE SMOOTH",
"475 300 OFFCURVE",
"349 436 OFFCURVE",
"240 436 CURVE SMOOTH",
"199 436 OFFCURVE",
"157 413 OFFCURVE",
"157 372 CURVE SMOOTH",
"157 319 OFFCURVE",
"213 289 OFFCURVE",
"276 289 CURVE SMOOTH",
"357 289 OFFCURVE",
"448 338 OFFCURVE",
"448 450 CURVE SMOOTH",
"448 506 OFFCURVE",
"419 557 OFFCURVE",
"379 594 CURVE",
"303 565 LINE",
"331 557 OFFCURVE",
"346 527 OFFCURVE",
"346 495 CURVE SMOOTH",
"346 456 OFFCURVE",
"314 412 OFFCURVE",
"249 399 CURVE"
);
}
);
width = 521;
}
);
unicode = 0909;
},
{
glyphname = dvUU;
layers = (
{
anchors = (
{
name = abvm.bindu;
position = "{352, 669}";
}
);
layerId = "A7C7F4A0-D38E-458B-B20F-CA7152D87AAE";
name = Bold;
paths = (
{
closed = 1;
nodes = (
"-50 669 LINE",
"-53 663 OFFCURVE",
"-55 650 OFFCURVE",
"-55 642 CURVE SMOOTH",
"-55 552 OFFCURVE",
"35 552 OFFCURVE",
"71 552 CURVE SMOOTH",
"815 552 LINE",
"818 558 OFFCURVE",
"822 572 OFFCURVE",
"822 584 CURVE SMOOTH",
"822 669 OFFCURVE",
"732 669 OFFCURVE",
"696 669 CURVE SMOOTH"
);
},
{
closed = 1;
nodes = (
"338 305 LINE",
"345 301 OFFCURVE",
"367 278 OFFCURVE",
"367 244 CURVE SMOOTH",
"367 190 OFFCURVE",
"323 162 OFFCURVE",
"274 162 CURVE SMOOTH",
"175 162 OFFCURVE",
"104 251 OFFCURVE",
"65 331 CURVE",
"52 328 OFFCURVE",
"23 318 OFFCURVE",
"23 282 CURVE SMOOTH",
"23 224 OFFCURVE",
"145 44 OFFCURVE",
"313 44 CURVE SMOOTH",
"423 44 OFFCURVE",
"459 116 OFFCURVE",
"491 181 CURVE SMOOTH",
"514 228 OFFCURVE",
"547 282 OFFCURVE",
"604 282 CURVE SMOOTH",
"642 282 OFFCURVE",
"662 256 OFFCURVE",
"662 228 CURVE SMOOTH",
"662 176 OFFCURVE",
"610 142 OFFCURVE",
"564 142 CURVE SMOOTH",
"556 142 OFFCURVE",
"548 143 OFFCURVE",
"541 145 CURVE",
"540 141 OFFCURVE",
"540 137 OFFCURVE",
"540 134 CURVE SMOOTH",
"540 86 OFFCURVE",
"582 44 OFFCURVE",
"637 44 CURVE SMOOTH",
"718 44 OFFCURVE",
"759 113 OFFCURVE",
"759 176 CURVE SMOOTH",
"759 289 OFFCURVE",
"653 390 OFFCURVE",
"563 390 CURVE SMOOTH",
"466 390 OFFCURVE",
"409 287 OFFCURVE",
"409 213 CURVE",
"454 231 LINE",
"454 324 OFFCURVE",
"339 436 OFFCURVE",
"240 436 CURVE SMOOTH",
"199 436 OFFCURVE",
"157 413 OFFCURVE",
"157 372 CURVE SMOOTH",
"157 319 OFFCURVE",
"213 289 OFFCURVE",
"276 289 CURVE SMOOTH",
"357 289 OFFCURVE",
"448 338 OFFCURVE",
"448 450 CURVE SMOOTH",
"448 506 OFFCURVE",
"419 557 OFFCURVE",
"379 594 CURVE",
"303 565 LINE",
"331 557 OFFCURVE",
"346 527 OFFCURVE",
"346 495 CURVE SMOOTH",
"346 456 OFFCURVE",
"314 412 OFFCURVE",
"249 399 CURVE"
);
}
);
width = 777;
}
);
unicode = 090A;
},
{
glyphname = dvvL;
layers = (
{
anchors = (
{
name = abvm.bindu;
position = "{390, 669}";
}
);
layerId = "A7C7F4A0-D38E-458B-B20F-CA7152D87AAE";
name = Bold;
paths = (
{
closed = 1;
nodes = (
"450 449 CURVE SMOOTH",
"387 449 OFFCURVE",
"329 414 OFFCURVE",
"297 354 CURVE",
"402 271 LINE",
"421 324 OFFCURVE",
"463 347 OFFCURVE",
"498 347 CURVE SMOOTH",
"531 347 OFFCURVE",
"560 326 OFFCURVE",
"560 288 CURVE SMOOTH",
"560 214 OFFCURVE",
"444 154 OFFCURVE",
"444 44 CURVE SMOOTH",
"444 -68 OFFCURVE",
"547 -143 OFFCURVE",
"631 -143 CURVE SMOOTH",
"700 -143 OFFCURVE",
"738 -95 OFFCURVE",
"738 -49 CURVE SMOOTH",
"738 -15 OFFCURVE",
"717 18 OFFCURVE",
"672 32 CURVE",
"642 -20 OFFCURVE",
"609 -44 OFFCURVE",
"579 -44 CURVE SMOOTH",
"560 -44 OFFCURVE",
"543 -33 OFFCURVE",
"543 -9 CURVE SMOOTH",
"543 62 OFFCURVE",
"673 122 OFFCURVE",
"673 250 CURVE SMOOTH",
"673 361 OFFCURVE",
"551 449 OFFCURVE"
);
},
{
closed = 1;
nodes = (
"554 373 LINE",
"554 431 LINE SMOOTH",
"554 483 OFFCURVE",
"551 570 OFFCURVE",
"451 570 CURVE SMOOTH",
"433 570 OFFCURVE",
"416 564 OFFCURVE",
"406 552 CURVE",
"421 529 OFFCURVE",
"421 485 OFFCURVE",
"421 448 CURVE SMOOTH",
"421 390 LINE"
);
},
{
closed = 1;
nodes = (
"-78 669 LINE",
"-81 663 OFFCURVE",
"-83 650 OFFCURVE",
"-83 642 CURVE SMOOTH",
"-83 552 OFFCURVE",
"7 552 OFFCURVE",
"43 552 CURVE SMOOTH",
"790 552 LINE",
"793 558 OFFCURVE",
"797 572 OFFCURVE",
"797 584 CURVE SMOOTH",
"797 669 OFFCURVE",
"707 669 OFFCURVE",
"671 669 CURVE SMOOTH"
);
},
{
closed = 1;
nodes = (
"242 354 CURVE SMOOTH",
"260 354 OFFCURVE",
"278 349 OFFCURVE",
"291 342 CURVE",
"284 328 OFFCURVE",
"271 296 OFFCURVE",
"271 257 CURVE SMOOTH",
"271 210 OFFCURVE",
"295 156 OFFCURVE",
"345 156 CURVE SMOOTH",
"395 156 OFFCURVE",
"411 205 OFFCURVE",
"411 236 CURVE SMOOTH",
"411 366 OFFCURVE",
"289 457 OFFCURVE",
"179 457 CURVE SMOOTH",
"97 457 OFFCURVE",
"25 409 OFFCURVE",
"25 299 CURVE SMOOTH",
"25 173 OFFCURVE",
"136 6 OFFCURVE",
"194 6 CURVE SMOOTH",
"212 6 OFFCURVE",
"225 17 OFFCURVE",
"232 29 CURVE",
"185 99 OFFCURVE",
"156 182 OFFCURVE",
"156 247 CURVE SMOOTH",
"156 309 OFFCURVE",
"182 354 OFFCURVE"
);
}
);
width = 734;
}
);
unicode = 090C;
},
{
glyphname = dvE;
layers = (
{
anchors = (
{
name = abvm.bindu;
position = "{200, 669}";
},
{
name = abvm.e;
position = "{456, 669}";
}
);
layerId = "A7C7F4A0-D38E-458B-B20F-CA7152D87AAE";
name = Bold;
paths = (
{
closed = 1;
nodes = (
"349 -44 CURVE",
"349 -44 OFFCURVE",
"367 -122 OFFCURVE",
"453 -122 CURVE SMOOTH",
"508 -122 OFFCURVE",
"540 -81 OFFCURVE",
"540 -32 CURVE SMOOTH",
"540 142 OFFCURVE",
"198 148 OFFCURVE",
"198 309 CURVE SMOOTH",
"198 351 OFFCURVE",
"200 391 OFFCURVE",
"200 431 CURVE SMOOTH",
"200 483 OFFCURVE",
"197 570 OFFCURVE",
"97 570 CURVE SMOOTH",
"79 570 OFFCURVE",
"62 564 OFFCURVE",
"52 552 CURVE",
"67 527 OFFCURVE",
"67 479 OFFCURVE",
"67 440 CURVE SMOOTH",
"67 385 OFFCURVE",
"65 344 OFFCURVE",
"65 307 CURVE SMOOTH",
"65 130 OFFCURVE",
"410 106 OFFCURVE",
"410 1 CURVE SMOOTH",
"410 -26 OFFCURVE",
"389 -44 OFFCURVE"
);
},
{
closed = 1;
nodes = (
"-78 669 LINE",
"-81 663 OFFCURVE",
"-83 650 OFFCURVE",
"-83 642 CURVE SMOOTH",
"-83 552 OFFCURVE",
"7 552 OFFCURVE",
"43 552 CURVE SMOOTH",
"641 552 LINE",
"644 558 OFFCURVE",
"648 572 OFFCURVE",
"648 584 CURVE SMOOTH",
"648 669 OFFCURVE",
"558 669 OFFCURVE",
"522 669 CURVE SMOOTH"
);
},
{
closed = 1;
nodes = (
"287 358 CURVE",
"291 290 OFFCURVE",
"344 246 OFFCURVE",
"407 246 CURVE SMOOTH",
"500 246 OFFCURVE",
"526 325 OFFCURVE",
"526 386 CURVE SMOOTH",
"526 435 OFFCURVE",
"507 510 OFFCURVE",
"455 567 CURVE",
"367 567 LINE",
"385 550 OFFCURVE",
"417 519 OFFCURVE",
"417 448 CURVE SMOOTH",
"417 382 OFFCURVE",
"371 353 OFFCURVE",
"322 353 CURVE SMOOTH",
"310 353 OFFCURVE",
"298 355 OFFCURVE"
);
}
);
width = 585;
}
);
unicode = 090F;
},
{
glyphname = dvmEcandra;
layers = (
{
anchors = (
{
name = _abvm.bindu;
position = "{-220, 669}";
}
);
layerId = "A7C7F4A0-D38E-458B-B20F-CA7152D87AAE";
name = Bold;
paths = (
{
closed = 1;
nodes = (
"-319 933 CURVE",
"-340 922 OFFCURVE",
"-347 905 OFFCURVE",
"-347 889 CURVE SMOOTH",
"-347 827 OFFCURVE",
"-241 747 OFFCURVE",
"-111 747 CURVE SMOOTH",
"-43 747 OFFCURVE",
"64 784 OFFCURVE",
"64 865 CURVE SMOOTH",
"64 907 OFFCURVE",
"27 938 OFFCURVE",
"-6 940 CURVE",
"-36 877 OFFCURVE",
"-98 850 OFFCURVE",
"-157 850 CURVE SMOOTH",
"-220 850 OFFCURVE",
"-278 877 OFFCURVE"
);
}
);
width = 0;
}
);
unicode = 0945;
},
{
glyphname = dvmE;
layers = (
{
anchors = (
{
name = _abvm.e;
position = "{-72, 669}";
}
);
layerId = "A7C7F4A0-D38E-458B-B20F-CA7152D87AAE";
name = Bold;
paths = (
{
closed = 1;
nodes = (
"-151 624 CURVE",
"-128 624 OFFCURVE",
"-106 636 OFFCURVE",
"-106 666 CURVE SMOOTH",
"-106 711 OFFCURVE",
"-219 950 OFFCURVE",
"-368 950 CURVE SMOOTH",
"-427 950 OFFCURVE",
"-459 911 OFFCURVE",
"-459 868 CURVE SMOOTH",
"-459 827 OFFCURVE",
"-433 786 OFFCURVE",
"-385 774 CURVE",
"-371 802 OFFCURVE",
"-346 815 OFFCURVE",
"-323 815 CURVE SMOOTH",
"-245 815 OFFCURVE",
"-178 679 OFFCURVE"
);
}
);
width = 0;
}
);
unicode = 0947;
},
{
glyphname = dvmAI;
layers = (
{
anchors = (
{
name = _abvm.e;
position = "{-72, 669}";
}
);
layerId = "A7C7F4A0-D38E-458B-B20F-CA7152D87AAE";
name = Bold;
paths = (
{
closed = 1;
nodes = (
"-173 703 CURVE",
"-173 735 LINE",
"-224 796 OFFCURVE",
"-319 877 OFFCURVE",
"-413 877 CURVE SMOOTH",
"-465 877 OFFCURVE",
"-512 847 OFFCURVE",
"-512 791 CURVE SMOOTH",
"-512 745 OFFCURVE",
"-470 708 OFFCURVE",
"-426 708 CURVE",
"-418 740 OFFCURVE",
"-387 760 OFFCURVE",
"-353 760 CURVE SMOOTH",
"-281 760 OFFCURVE",
"-193 664 OFFCURVE",
"-156 624 CURVE",
"-116 636 OFFCURVE",
"-113 668 OFFCURVE",
"-113 705 CURVE SMOOTH",
"-113 823 OFFCURVE",
"-164 1032 OFFCURVE",
"-292 1032 CURVE SMOOTH",
"-338 1032 OFFCURVE",
"-371 996 OFFCURVE",
"-371 956 CURVE SMOOTH",
"-371 928 OFFCURVE",
"-358 902 OFFCURVE",
"-338 886 CURVE",
"-322 896 OFFCURVE",
"-306 901 OFFCURVE",
"-290 901 CURVE SMOOTH",
"-209 901 OFFCURVE",
"-182 758 OFFCURVE"
);
}
);
width = 0;
}
);
unicode = 0948;
},
{
glyphname = dvKA;
layers = (
{
anchors = (
{
name = abvm.bindu;
position = "{310, 669}";
},
{
name = abvm.e;
position = "{448, 669}";
},
{
name = blwm.r;
position = "{468, 0}";
},
{
name = blwm.u;
position = "{468, -1}";
},
{
name = blwm.uu;
position = "{468, -14}";
},
{
name = blwm.virama;
position = "{468, 0}";
}
);
layerId = "A7C7F4A0-D38E-458B-B20F-CA7152D87AAE";
name = Bold;
paths = (
{
closed = 1;
nodes = (
"348 352 LINE",
"317 288 OFFCURVE",
"266 222 OFFCURVE",
"198 222 CURVE SMOOTH",
"164 222 OFFCURVE",
"134 248 OFFCURVE",
"134 285 CURVE SMOOTH",
"134 335 OFFCURVE",
"173 372 OFFCURVE",
"224 382 CURVE SMOOTH",
"234 384 OFFCURVE",
"244 385 OFFCURVE",
"255 385 CURVE",
"256 390 OFFCURVE",
"256 394 OFFCURVE",
"256 396 CURVE SMOOTH",
"256 443 OFFCURVE",
"220 486 OFFCURVE",
"163 486 CURVE SMOOTH",
"83 486 OFFCURVE",
"30 417 OFFCURVE",
"30 344 CURVE SMOOTH",
"30 228 OFFCURVE",
"136 121 OFFCURVE",
"246 121 CURVE SMOOTH",
"323 121 OFFCURVE",
"348 160 OFFCURVE",
"377 206 CURVE",
"347 182 LINE",
"336 160 OFFCURVE",
"329 130 OFFCURVE",
"329 100 CURVE SMOOTH",
"329 46 OFFCURVE",
"353 -7 OFFCURVE",
"426 -7 CURVE SMOOTH",
"437 -7 OFFCURVE",
"453 -6 OFFCURVE",
"468 0 CURVE",
"457 18 OFFCURVE",
"453 69 OFFCURVE",
"453 105 CURVE SMOOTH",
"453 181 OFFCURVE",
"456 262 OFFCURVE",
"457 343 CURVE",
"437 250 LINE",
"466 310 OFFCURVE",
"514 374 OFFCURVE",
"578 374 CURVE SMOOTH",
"612 374 OFFCURVE",
"642 349 OFFCURVE",
"642 311 CURVE SMOOTH",
"642 261 OFFCURVE",
"604 225 OFFCURVE",
"553 214 CURVE SMOOTH",
"543 212 OFFCURVE",
"532 211 OFFCURVE",
"521 211 CURVE",
"520 206 OFFCURVE",
"520 202 OFFCURVE",
"520 200 CURVE SMOOTH",
"520 153 OFFCURVE",
"556 110 OFFCURVE",
"613 110 CURVE SMOOTH",
"693 110 OFFCURVE",
"746 179 OFFCURVE",
"746 252 CURVE SMOOTH",
"746 369 OFFCURVE",
"636 476 OFFCURVE",
"532 476 CURVE SMOOTH",
"456 476 OFFCURVE",
"423 421 OFFCURVE",
"410 398 CURVE",
"441 420 LINE",
"445 435 OFFCURVE",
"449 454 OFFCURVE",
"449 474 CURVE SMOOTH",
"449 521 OFFCURVE",
"430 570 OFFCURVE",
"364 570 CURVE SMOOTH",
"339 570 OFFCURVE",
"321 563 OFFCURVE",
"310 552 CURVE",
"325 529 OFFCURVE",
"325 485 OFFCURVE",
"325 448 CURVE SMOOTH",
"325 331 OFFCURVE",
"322 262 OFFCURVE",
"321 201 CURVE"
);
},
{
closed = 1;
nodes = (
"-75 669 LINE",
"-78 663 OFFCURVE",
"-80 650 OFFCURVE",
"-80 642 CURVE SMOOTH",
"-80 552 OFFCURVE",
"10 552 OFFCURVE",
"46 552 CURVE SMOOTH",
"827 552 LINE",
"830 558 OFFCURVE",
"834 572 OFFCURVE",
"834 584 CURVE SMOOTH",
"834 669 OFFCURVE",
"744 669 OFFCURVE",
"708 669 CURVE SMOOTH"
);
}
);
width = 784;
}
);
unicode = 0915;
},
{
glyphname = dvKHA;
layers = (
{
layerId = "A7C7F4A0-D38E-458B-B20F-CA7152D87AAE";
name = Bold;
paths = (
{
closed = 1;
nodes = (
"-50 669 LINE",
"-53 663 OFFCURVE",
"-55 650 OFFCURVE",
"-55 642 CURVE SMOOTH",
"-55 552 OFFCURVE",
"35 552 OFFCURVE",
"71 552 CURVE SMOOTH",
"871 552 LINE",
"874 558 OFFCURVE",
"878 572 OFFCURVE",
"878 584 CURVE SMOOTH",
"878 669 OFFCURVE",
"788 669 OFFCURVE",
"752 669 CURVE SMOOTH"
);
},
{
closed = 1;
nodes = (
"662 410 LINE",
"625 453 OFFCURVE",
"586 492 OFFCURVE",
"517 492 CURVE SMOOTH",
"442 492 OFFCURVE",
"388 440 OFFCURVE",
"388 371 CURVE SMOOTH",
"388 290 OFFCURVE",
"442 248 OFFCURVE",
"498 248 CURVE SMOOTH",
"507 248 OFFCURVE",
"525 251 OFFCURVE",
"537 260 CURVE",
"522 273 OFFCURVE",
"511 304 OFFCURVE",
"511 334 CURVE SMOOTH",
"511 369 OFFCURVE",
"526 401 OFFCURVE",
"564 401 CURVE SMOOTH",
"596 401 OFFCURVE",
"612 370 OFFCURVE",
"612 336 CURVE SMOOTH",
"612 221 OFFCURVE",
"504 130 OFFCURVE",
"376 130 CURVE SMOOTH",
"282 130 OFFCURVE",
"188 182 OFFCURVE",
"162 284 CURVE",
"86 284 LINE",
"123 112 OFFCURVE",
"283 21 OFFCURVE",
"402 21 CURVE SMOOTH",
"540 21 OFFCURVE",
"650 111 OFFCURVE",
"661 189 CURVE",
"634 161 LINE",
"626 134 OFFCURVE",
"622 108 OFFCURVE",
"622 86 CURVE SMOOTH",
"622 30 OFFCURVE",
"651 -7 OFFCURVE",
"711 -7 CURVE SMOOTH",
"722 -7 OFFCURVE",
"738 -6 OFFCURVE",
"753 0 CURVE",
"742 18 OFFCURVE",
"738 69 OFFCURVE",
"738 105 CURVE SMOOTH",
"738 208 OFFCURVE",
"743 322 OFFCURVE",
"743 431 CURVE SMOOTH",
"743 483 OFFCURVE",
"740 570 OFFCURVE",
"640 570 CURVE SMOOTH",
"622 570 OFFCURVE",
"605 564 OFFCURVE",
"595 552 CURVE",
"614 533 OFFCURVE",
"616 480 OFFCURVE",
"616 441 CURVE",
"616 432 LINE"
);
},
{
closed = 1;
nodes = (
"154 318 LINE",
"144 373 OFFCURVE",
"117 417 OFFCURVE",
"75 417 CURVE SMOOTH",
"35 417 OFFCURVE",
"16 387 OFFCURVE",
"16 355 CURVE SMOOTH",
"16 290 OFFCURVE",
"89 233 OFFCURVE",
"163 233 CURVE SMOOTH",
"275 233 OFFCURVE",
"335 299 OFFCURVE",
"335 384 CURVE SMOOTH",
"335 470 OFFCURVE",
"282 543 OFFCURVE",
"227 586 CURVE",
"173 554 LINE",
"197 527 OFFCURVE",
"217 478 OFFCURVE",
"217 430 CURVE SMOOTH",
"217 367 OFFCURVE",
"170 329 OFFCURVE",
"116 328 CURVE"
);
}
);
width = 815;
}
);
unicode = 0916;
},
{
glyphname = dvGA;
layers = (
{
layerId = "A7C7F4A0-D38E-458B-B20F-CA7152D87AAE";
name = Bold;
paths = (
{
closed = 1;
nodes = (
"-78 669 LINE",
"-81 663 OFFCURVE",
"-83 650 OFFCURVE",
"-83 642 CURVE SMOOTH",
"-83 552 OFFCURVE",
"7 552 OFFCURVE",
"43 552 CURVE SMOOTH",
"668 552 LINE",
"671 558 OFFCURVE",
"675 572 OFFCURVE",
"675 584 CURVE SMOOTH",
"675 669 OFFCURVE",
"585 669 OFFCURVE",
"549 669 CURVE SMOOTH"
);
},
{
closed = 1;
nodes = (
"406 448 CURVE SMOOTH",
"406 294 OFFCURVE",
"401 223 OFFCURVE",
"401 145 CURVE SMOOTH",
"401 102 OFFCURVE",
"403 -7 OFFCURVE",
"507 -7 CURVE SMOOTH",
"518 -7 OFFCURVE",
"534 -6 OFFCURVE",
"549 0 CURVE",
"538 18 OFFCURVE",
"534 69 OFFCURVE",
"534 105 CURVE SMOOTH",
"534 208 OFFCURVE",
"539 322 OFFCURVE",
"539 431 CURVE SMOOTH",
"539 483 OFFCURVE",
"536 570 OFFCURVE",
"436 570 CURVE SMOOTH",
"418 570 OFFCURVE",
"401 564 OFFCURVE",
"391 552 CURVE",
"406 529 OFFCURVE",
"406 485 OFFCURVE"
);
},
{
closed = 1;
nodes = (
"83 562 LINE",
"121 540 OFFCURVE",
"161 491 OFFCURVE",
"161 423 CURVE SMOOTH",
"161 406 OFFCURVE",
"158 384 OFFCURVE",
"149 372 CURVE",
"132 398 OFFCURVE",
"108 410 OFFCURVE",
"86 410 CURVE SMOOTH",
"55 410 OFFCURVE",
"27 389 OFFCURVE",
"27 346 CURVE SMOOTH",
"27 269 OFFCURVE",
"99 214 OFFCURVE",
"165 214 CURVE SMOOTH",
"226 214 OFFCURVE",
"283 255 OFFCURVE",
"283 353 CURVE SMOOTH",
"283 428 OFFCURVE",
"248 514 OFFCURVE",
"191 562 CURVE"
);
}
);
width = 612;
}
);
unicode = 0917;
},
{
glyphname = dvGHA;
layers = (
{
layerId = "A7C7F4A0-D38E-458B-B20F-CA7152D87AAE";
name = Bold;
paths = (
{
closed = 1;
nodes = (
"430 312 LINE",
"402 248 OFFCURVE",
"329 198 OFFCURVE",
"253 198 CURVE SMOOTH",
"214 198 OFFCURVE",
"180 219 OFFCURVE",
"180 255 CURVE SMOOTH",
"180 302 OFFCURVE",
"223 326 OFFCURVE",
"258 329 CURVE",
"202 349 OFFCURVE",
"152 391 OFFCURVE",
"152 446 CURVE SMOOTH",
"152 522 OFFCURVE",
"206 552 OFFCURVE",
"233 561 CURVE",
"183 552 LINE",
"687 552 LINE",
"690 558 OFFCURVE",
"694 572 OFFCURVE",
"694 584 CURVE SMOOTH",
"694 669 OFFCURVE",
"604 669 OFFCURVE",
"568 669 CURVE SMOOTH",
"-78 669 LINE",
"-81 663 OFFCURVE",
"-83 650 OFFCURVE",
"-83 642 CURVE SMOOTH",
"-83 571 OFFCURVE",
"-25 553 OFFCURVE",
"26 553 CURVE SMOOTH",
"40 553 OFFCURVE",
"52 554 OFFCURVE",
"64 556 CURVE",
"62 571 LINE",
"47 546 OFFCURVE",
"41 520 OFFCURVE",
"41 495 CURVE SMOOTH",
"41 395 OFFCURVE",
"146 308 OFFCURVE",
"249 308 CURVE SMOOTH",
"290 308 OFFCURVE",
"331 330 OFFCURVE",
"331 368 CURVE SMOOTH",
"331 413 OFFCURVE",
"285 443 OFFCURVE",
"231 443 CURVE SMOOTH",
"150 443 OFFCURVE",
"69 384 OFFCURVE",
"69 293 CURVE SMOOTH",
"69 206 OFFCURVE",
"171 104 OFFCURVE",
"303 104 CURVE SMOOTH",
"404 104 OFFCURVE",
"470 161 OFFCURVE",
"504 245 CURVE",
"447 178 LINE",
"436 146 OFFCURVE",
"430 118 OFFCURVE",
"430 94 CURVE SMOOTH",
"430 28 OFFCURVE",
"470 -7 OFFCURVE",
"527 -7 CURVE SMOOTH",
"538 -7 OFFCURVE",
"554 -6 OFFCURVE",
"569 0 CURVE",
"558 18 OFFCURVE",
"554 69 OFFCURVE",
"554 105 CURVE SMOOTH",
"554 208 OFFCURVE",
"559 322 OFFCURVE",
"559 431 CURVE SMOOTH",
"559 483 OFFCURVE",
"556 570 OFFCURVE",
"456 570 CURVE SMOOTH",
"438 570 OFFCURVE",
"421 564 OFFCURVE",
"411 552 CURVE",
"426 529 OFFCURVE",
"426 485 OFFCURVE",
"426 448 CURVE SMOOTH",
"426 362 OFFCURVE",
"424 302 OFFCURVE",
"423 252 CURVE"
);
}
);
width = 631;
}
);
unicode = 0918;
},
{
glyphname = dvNGA;
layers = (
{
anchors = (
{
name = abvm.bindu;
position = "{224, 669}";
},
{
name = abvm.e;
position = "{456, 669}";
},
{
name = blwm.r;
position = "{418, -116}";
},
{
name = blwm.u;
position = "{385, -79}";
},
{
name = blwm.uu;
position = "{328, -79}";
},
{
name = blwm.virama;
position = "{376, 0}";
}
);
layerId = "A7C7F4A0-D38E-458B-B20F-CA7152D87AAE";
name = Bold;
paths = (
{
closed = 1;
nodes = (
"-65 669 LINE",
"-68 663 OFFCURVE",
"-70 650 OFFCURVE",
"-70 642 CURVE SMOOTH",
"-70 552 OFFCURVE",
"20 552 OFFCURVE",
"56 552 CURVE SMOOTH",
"717 552 LINE",
"720 558 OFFCURVE",
"724 572 OFFCURVE",
"724 584 CURVE SMOOTH",
"724 669 OFFCURVE",
"634 669 OFFCURVE",
"598 669 CURVE SMOOTH"
);
},
{
closed = 1;
nodes = (
"352 555 LINE",
"368 546 OFFCURVE",
"375 534 OFFCURVE",
"375 522 CURVE SMOOTH",
"375 502 OFFCURVE",
"358 493 OFFCURVE",
"332 493 CURVE SMOOTH",
"285 494 OFFCURVE",
"251 494 OFFCURVE",
"216 494 CURVE SMOOTH",
"125 494 OFFCURVE",
"75 449 OFFCURVE",
"75 377 CURVE SMOOTH",
"75 274 OFFCURVE",
"163 187 OFFCURVE",
"264 187 CURVE SMOOTH",
"319 187 OFFCURVE",
"374 194 OFFCURVE",
"404 194 CURVE SMOOTH",
"430 194 OFFCURVE",
"441 183 OFFCURVE",
"441 168 CURVE SMOOTH",
"441 133 OFFCURVE",
"381 107 OFFCURVE",
"299 107 CURVE SMOOTH",
"203 107 OFFCURVE",
"116 143 OFFCURVE",
"64 199 CURVE",
"53 195 OFFCURVE",
"37 187 OFFCURVE",
"37 164 CURVE SMOOTH",
"37 97 OFFCURVE",
"188 -9 OFFCURVE",
"359 -9 CURVE SMOOTH",
"466 -9 OFFCURVE",
"531 50 OFFCURVE",
"531 134 CURVE SMOOTH",
"531 231 OFFCURVE",
"449 315 OFFCURVE",
"351 315 CURVE SMOOTH",
"306 315 OFFCURVE",
"250 306 OFFCURVE",
"207 306 CURVE SMOOTH",
"185 306 OFFCURVE",
"163 315 OFFCURVE",
"163 337 CURVE SMOOTH",
"163 375 OFFCURVE",
"228 377 OFFCURVE",
"265 377 CURVE SMOOTH",
"297 377 OFFCURVE",
"334 376 OFFCURVE",
"370 376 CURVE SMOOTH",
"444 376 OFFCURVE",
"479 416 OFFCURVE",
"479 465 CURVE SMOOTH",
"479 501 OFFCURVE",
"459 541 OFFCURVE",
"422 569 CURVE"
);
},
{
closed = 1;
nodes = (
"599 265 CURVE SMOOTH",
"635 265 OFFCURVE",
"658 291 OFFCURVE",
"658 324 CURVE SMOOTH",
"658 366 OFFCURVE",
"617 405 OFFCURVE",
"577 405 CURVE SMOOTH",
"541 405 OFFCURVE",
"518 380 OFFCURVE",
"518 346 CURVE SMOOTH",
"518 304 OFFCURVE",
"557 265 OFFCURVE"
);
}
);
width = 661;
}
);
unicode = 0919;
},
{
glyphname = dvCA;
layers = (
{
layerId = "A7C7F4A0-D38E-458B-B20F-CA7152D87AAE";
name = Bold;
paths = (
{
closed = 1;
nodes = (
"-87 669 LINE",
"-90 663 OFFCURVE",
"-92 650 OFFCURVE",
"-92 642 CURVE SMOOTH",
"-92 552 OFFCURVE",
"-2 552 OFFCURVE",
"34 552 CURVE SMOOTH",
"729 552 LINE",
"732 558 OFFCURVE",
"736 572 OFFCURVE",
"736 584 CURVE SMOOTH",
"736 669 OFFCURVE",
"646 669 OFFCURVE",
"610 669 CURVE SMOOTH"
);
},
{
closed = 1;
nodes = (
"476 358 LINE",
"453 258 OFFCURVE",
"379 216 OFFCURVE",
"320 216 CURVE SMOOTH",
"275 216 OFFCURVE",
"239 240 OFFCURVE",
"239 280 CURVE SMOOTH",
"239 327 OFFCURVE",
"283 349 OFFCURVE",
"330 349 CURVE SMOOTH",
"365 349 LINE",
"368 355 OFFCURVE",
"372 367 OFFCURVE",
"372 379 CURVE SMOOTH",
"372 464 OFFCURVE",
"282 464 OFFCURVE",
"246 464 CURVE SMOOTH",
"2 464 LINE",
"-1 458 OFFCURVE",
"-3 446 OFFCURVE",
"-3 437 CURVE SMOOTH",
"-3 372 OFFCURVE",
"49 348 OFFCURVE",
"98 348 CURVE SMOOTH",
"123 348 OFFCURVE",
"154 359 OFFCURVE",
"177 374 CURVE",
"172 402 LINE",
"148 375 OFFCURVE",
"141 347 OFFCURVE",
"141 318 CURVE SMOOTH",
"141 230 OFFCURVE",
"242 108 OFFCURVE",
"372 108 CURVE SMOOTH",
"427 108 OFFCURVE",
"479 132 OFFCURVE",
"505 176 CURVE",
"491 178 LINE",
"481 156 OFFCURVE",
"474 126 OFFCURVE",
"474 96 CURVE SMOOTH",
"474 44 OFFCURVE",
"497 -7 OFFCURVE",
"569 -7 CURVE SMOOTH",
"580 -7 OFFCURVE",
"596 -6 OFFCURVE",
"611 0 CURVE",
"600 18 OFFCURVE",
"596 69 OFFCURVE",
"596 105 CURVE SMOOTH",
"596 208 OFFCURVE",
"601 322 OFFCURVE",
"601 431 CURVE SMOOTH",
"601 483 OFFCURVE",
"598 570 OFFCURVE",
"498 570 CURVE SMOOTH",
"480 570 OFFCURVE",
"463 564 OFFCURVE",
"453 552 CURVE",
"468 529 OFFCURVE",
"468 485 OFFCURVE",
"468 448 CURVE SMOOTH",
"468 374 OFFCURVE",
"467 318 OFFCURVE",
"466 271 CURVE"
);
}
);
width = 673;
}
);
unicode = 091A;
},
{
glyphname = dvCHA;
layers = (
{
anchors = (
{
name = abvm.bindu;
position = "{259, 669}";
},
{
name = abvm.e;
position = "{559, 669}";
},
{
name = blwm.r;
position = "{462, -85}";
},
{
name = blwm.u;
position = "{444, -48}";
},
{
name = blwm.uu;
position = "{362, -48}";
},
{
name = blwm.virama;
position = "{407, 22}";
}
);
layerId = "A7C7F4A0-D38E-458B-B20F-CA7152D87AAE";
name = Bold;
paths = (
{
closed = 1;
nodes = (
"559 451 LINE",
"559 503 OFFCURVE",
"549 570 OFFCURVE",
"469 570 CURVE SMOOTH",
"454 570 OFFCURVE",
"440 564 OFFCURVE",
"430 552 CURVE",
"445 534 OFFCURVE",
"449 503 OFFCURVE",
"449 472 CURVE"
);
},
{
closed = 1;
nodes = (
"172 552 LINE",
"750 552 LINE",
"753 558 OFFCURVE",
"757 572 OFFCURVE",
"757 584 CURVE SMOOTH",
"757 669 OFFCURVE",
"667 669 OFFCURVE",
"631 669 CURVE SMOOTH",
"-65 669 LINE",
"-68 663 OFFCURVE",
"-70 650 OFFCURVE",
"-70 642 CURVE SMOOTH",
"-70 571 OFFCURVE",
"-12 553 OFFCURVE",
"39 553 CURVE SMOOTH",
"53 553 OFFCURVE",
"65 554 OFFCURVE",
"77 556 CURVE",
"75 571 LINE",
"59 544 OFFCURVE",
"52 515 OFFCURVE",
"52 486 CURVE SMOOTH",
"52 382 OFFCURVE",
"145 281 OFFCURVE",
"252 281 CURVE SMOOTH",
"294 281 OFFCURVE",
"335 303 OFFCURVE",
"335 344 CURVE SMOOTH",
"335 387 OFFCURVE",
"291 416 OFFCURVE",
"238 416 CURVE SMOOTH",
"138 416 OFFCURVE",
"57 354 OFFCURVE",
"57 265 CURVE SMOOTH",
"57 124 OFFCURVE",
"212 22 OFFCURVE",
"362 22 CURVE SMOOTH",
"532 22 OFFCURVE",
"652 127 OFFCURVE",
"652 295 CURVE SMOOTH",
"652 402 OFFCURVE",
"590 504 OFFCURVE",
"491 504 CURVE SMOOTH",
"421 504 OFFCURVE",
"386 434 OFFCURVE",
"386 376 CURVE SMOOTH",
"386 305 OFFCURVE",
"429 246 OFFCURVE",
"467 246 CURVE SMOOTH",
"476 246 OFFCURVE",
"484 251 OFFCURVE",
"487 256 CURVE",
"487 256 OFFCURVE",
"477 267 OFFCURVE",
"477 304 CURVE SMOOTH",
"477 338 OFFCURVE",
"491 392 OFFCURVE",
"528 392 CURVE SMOOTH",
"554 392 OFFCURVE",
"559 363 OFFCURVE",
"559 343 CURVE SMOOTH",
"559 201 OFFCURVE",
"418 126 OFFCURVE",
"302 126 CURVE SMOOTH",
"224 126 OFFCURVE",
"163 163 OFFCURVE",
"163 221 CURVE SMOOTH",
"163 278 OFFCURVE",
"219 304 OFFCURVE",
"263 311 CURVE",
"198 328 OFFCURVE",
"161 386 OFFCURVE",
"161 444 CURVE SMOOTH",
"161 492 OFFCURVE",
"187 540 OFFCURVE",
"246 561 CURVE"
);
}
);
width = 697;
}
);
unicode = 091B;
},
{
glyphname = dvJA;
layers = (
{
layerId = "A7C7F4A0-D38E-458B-B20F-CA7152D87AAE";
name = Bold;
paths = (
{
closed = 1;
nodes = (
"-60 669 LINE",
"-63 663 OFFCURVE",
"-65 650 OFFCURVE",
"-65 642 CURVE SMOOTH",
"-65 552 OFFCURVE",
"25 552 OFFCURVE",
"61 552 CURVE SMOOTH",
"781 552 LINE",
"784 558 OFFCURVE",
"788 572 OFFCURVE",
"788 584 CURVE SMOOTH",
"788 669 OFFCURVE",
"698 669 OFFCURVE",
"662 669 CURVE SMOOTH"
);
},
{
closed = 1;
nodes = (
"521 440 CURVE SMOOTH",
"521 290 OFFCURVE",
"516 221 OFFCURVE",
"516 145 CURVE SMOOTH",
"516 102 OFFCURVE",
"518 -7 OFFCURVE",
"622 -7 CURVE SMOOTH",
"633 -7 OFFCURVE",
"649 -6 OFFCURVE",
"664 0 CURVE",
"653 18 OFFCURVE",
"649 69 OFFCURVE",
"649 105 CURVE SMOOTH",
"649 208 OFFCURVE",
"654 322 OFFCURVE",
"654 431 CURVE SMOOTH",
"654 483 OFFCURVE",
"651 570 OFFCURVE",
"551 570 CURVE SMOOTH",
"533 570 OFFCURVE",
"516 564 OFFCURVE",
"506 552 CURVE",
"521 527 OFFCURVE",
"521 479 OFFCURVE"
);
},
{
closed = 1;
nodes = (
"557 452 LINE",
"200 452 LINE",
"197 446 OFFCURVE",
"195 433 OFFCURVE",
"195 425 CURVE SMOOTH",
"195 335 OFFCURVE",
"285 335 OFFCURVE",
"321 335 CURVE SMOOTH",
"557 335 LINE"
);
},
{
closed = 1;
nodes = (
"282 338 LINE",
"299 318 OFFCURVE",
"309 295 OFFCURVE",
"309 274 CURVE SMOOTH",
"309 242 OFFCURVE",
"292 214 OFFCURVE",
"249 214 CURVE SMOOTH",
"199 214 OFFCURVE",
"121 275 OFFCURVE",
"59 450 CURVE",
"39 449 OFFCURVE",
"13 438 OFFCURVE",
"13 399 CURVE SMOOTH",
"13 329 OFFCURVE",
"128 92 OFFCURVE",
"297 92 CURVE SMOOTH",
"364 92 OFFCURVE",
"414 135 OFFCURVE",
"414 208 CURVE SMOOTH",
"414 285 OFFCURVE",
"358 338 OFFCURVE",
"358 338 CURVE"
);
}
);
width = 725;
}
);
unicode = 091C;
},
{
glyphname = dvJHA;
layers = (
{
layerId = "A7C7F4A0-D38E-458B-B20F-CA7152D87AAE";
name = Bold;
paths = (
{
closed = 1;
nodes = (
"-78 669 LINE",
"-81 663 OFFCURVE",
"-83 650 OFFCURVE",
"-83 642 CURVE SMOOTH",
"-83 552 OFFCURVE",
"7 552 OFFCURVE",
"43 552 CURVE SMOOTH",
"818 552 LINE",
"821 558 OFFCURVE",
"825 572 OFFCURVE",
"825 584 CURVE SMOOTH",
"825 669 OFFCURVE",
"735 669 OFFCURVE",
"699 669 CURVE SMOOTH"
);
},
{
closed = 1;
nodes = (
"575 365 LINE",
"559 326 OFFCURVE",
"519 295 OFFCURVE",
"450 295 CURVE SMOOTH",
"392 295 OFFCURVE",
"343 318 OFFCURVE",
"289 318 CURVE SMOOTH",
"257 318 OFFCURVE",
"225 310 OFFCURVE",
"198 310 CURVE SMOOTH",
"177 310 OFFCURVE",
"152 316 OFFCURVE",
"152 340 CURVE SMOOTH",
"152 377 OFFCURVE",
"223 377 OFFCURVE",
"254 377 CURVE SMOOTH",
"276 377 OFFCURVE",
"303 376 OFFCURVE",
"328 376 CURVE SMOOTH",
"402 376 OFFCURVE",
"437 416 OFFCURVE",
"437 465 CURVE SMOOTH",
"437 501 OFFCURVE",
"418 542 OFFCURVE",
"380 570 CURVE",
"310 555 LINE",
"327 546 OFFCURVE",
"333 533 OFFCURVE",
"333 521 CURVE SMOOTH",
"333 502 OFFCURVE",
"313 493 OFFCURVE",
"282 493 CURVE SMOOTH",
"251 493 OFFCURVE",
"228 494 OFFCURVE",
"205 494 CURVE SMOOTH",
"114 494 OFFCURVE",
"64 449 OFFCURVE",
"64 377 CURVE SMOOTH",
"64 276 OFFCURVE",
"152 191 OFFCURVE",
"253 191 CURVE SMOOTH",
"289 191 OFFCURVE",
"325 198 OFFCURVE",
"344 198 CURVE SMOOTH",
"366 198 OFFCURVE",
"379 186 OFFCURVE",
"379 168 CURVE SMOOTH",
"379 133 OFFCURVE",
"312 107 OFFCURVE",
"249 107 CURVE SMOOTH",
"221 107 OFFCURVE",
"190 112 OFFCURVE",
"168 124 CURVE",
"157 163 OFFCURVE",
"127 207 OFFCURVE",
"84 207 CURVE SMOOTH",
"52 207 OFFCURVE",
"33 182 OFFCURVE",
"33 154 CURVE SMOOTH",
"33 56 OFFCURVE",
"151 -9 OFFCURVE",
"297 -9 CURVE SMOOTH",
"398 -9 OFFCURVE",
"469 46 OFFCURVE",
"469 134 CURVE SMOOTH",
"469 178 OFFCURVE",
"452 212 OFFCURVE",
"432 245 CURVE",
"382 258 LINE",
"424 210 OFFCURVE",
"475 196 OFFCURVE",
"514 196 CURVE SMOOTH",
"560 196 OFFCURVE",
"588 220 OFFCURVE",
"595 233 CURVE",
"570 229 LINE",
"562 198 OFFCURVE",
"557 158 OFFCURVE",
"557 121 CURVE SMOOTH",
"557 55 OFFCURVE",
"580 -7 OFFCURVE",
"660 -7 CURVE SMOOTH",
"671 -7 OFFCURVE",
"687 -6 OFFCURVE",
"702 0 CURVE",
"691 18 OFFCURVE",
"687 69 OFFCURVE",
"687 105 CURVE SMOOTH",
"687 208 OFFCURVE",
"692 322 OFFCURVE",
"692 431 CURVE SMOOTH",
"692 483 OFFCURVE",
"689 570 OFFCURVE",
"589 570 CURVE SMOOTH",
"571 570 OFFCURVE",
"554 564 OFFCURVE",
"544 552 CURVE",
"559 529 OFFCURVE",
"559 485 OFFCURVE",
"559 448 CURVE SMOOTH",
"559 393 OFFCURVE",
"558 353 OFFCURVE",
"557 317 CURVE"
);
},
{
closed = 1;
nodes = (
"117 81 LINE",
"143 -13 OFFCURVE",
"197 -203 OFFCURVE",
"336 -203 CURVE SMOOTH",
"383 -203 OFFCURVE",
"423 -173 OFFCURVE",
"423 -128 CURVE SMOOTH",
"423 -102 OFFCURVE",
"411 -78 OFFCURVE",
"392 -62 CURVE",
"373 -78 OFFCURVE",
"349 -83 OFFCURVE",
"331 -83 CURVE SMOOTH",
"254 -83 OFFCURVE",
"205 0 OFFCURVE",
"182 57 CURVE"
);
}
);
width = 762;
}
);
unicode = 091D;
},
{
glyphname = dvNYA;
layers = (
{
layerId = "A7C7F4A0-D38E-458B-B20F-CA7152D87AAE";
name = Bold;
paths = (
{
closed = 1;
nodes = (
"-78 669 LINE",
"-81 663 OFFCURVE",
"-83 650 OFFCURVE",
"-83 642 CURVE SMOOTH",
"-83 552 OFFCURVE",
"7 552 OFFCURVE",
"43 552 CURVE SMOOTH",
"802 552 LINE",
"805 558 OFFCURVE",
"809 572 OFFCURVE",
"809 584 CURVE SMOOTH",
"809 669 OFFCURVE",
"719 669 OFFCURVE",
"683 669 CURVE SMOOTH"
);
},
{
closed = 1;
nodes = (
"538 440 CURVE SMOOTH",
"538 290 OFFCURVE",
"533 221 OFFCURVE",
"533 145 CURVE SMOOTH",
"533 102 OFFCURVE",
"535 -7 OFFCURVE",
"639 -7 CURVE SMOOTH",
"650 -7 OFFCURVE",
"666 -6 OFFCURVE",
"681 0 CURVE",
"670 18 OFFCURVE",
"666 69 OFFCURVE",
"666 105 CURVE SMOOTH",
"666 208 OFFCURVE",
"671 322 OFFCURVE",
"671 431 CURVE SMOOTH",
"671 483 OFFCURVE",
"668 570 OFFCURVE",
"568 570 CURVE SMOOTH",
"550 570 OFFCURVE",
"533 564 OFFCURVE",
"523 552 CURVE",
"538 527 OFFCURVE",
"538 479 OFFCURVE"
);
},
{
closed = 1;
nodes = (
"452 334 CURVE SMOOTH",
"443 334 OFFCURVE",
"434 335 OFFCURVE",
"425 337 CURVE",
"445 254 LINE",
"456 249 OFFCURVE",
"476 242 OFFCURVE",
"497 237 CURVE SMOOTH",
"515 233 OFFCURVE",
"535 230 OFFCURVE",
"551 230 CURVE",
"551 365 LINE",
"536 352 OFFCURVE",
"493 334 OFFCURVE"
);
},
{
closed = 1;
nodes = (
"46 453 CURVE",
"26 452 OFFCURVE",
"0 440 OFFCURVE",
"0 402 CURVE SMOOTH",
"0 331 OFFCURVE",
"110 104 OFFCURVE",
"300 104 CURVE SMOOTH",
"389 104 OFFCURVE",
"457 158 OFFCURVE",
"457 250 CURVE SMOOTH",
"457 371 OFFCURVE",
"365 482 OFFCURVE",
"267 482 CURVE SMOOTH",
"210 482 OFFCURVE",
"180 443 OFFCURVE",
"180 403 CURVE SMOOTH",
"180 362 OFFCURVE",
"212 326 OFFCURVE",
"246 316 CURVE",
"257 340 OFFCURVE",
"283 362 OFFCURVE",
"312 362 CURVE SMOOTH",
"344 362 OFFCURVE",
"363 338 OFFCURVE",
"363 310 CURVE SMOOTH",
"363 269 OFFCURVE",
"326 225 OFFCURVE",
"261 225 CURVE SMOOTH",
"144 225 OFFCURVE",
"78 364 OFFCURVE"
);
}
);
width = 746;
}
);
unicode = 091E;
},
{
glyphname = dvTTA;
layers = (
{
anchors = (
{
name = abvm.bindu;
position = "{194, 669}";
},
{
name = abvm.e;
position = "{353, 669}";
},
{
name = blwm.r;
position = "{361, -59}";
},
{
name = blwm.u;
position = "{338, -22}";
},
{
name = blwm.uu;
position = "{294, -22}";
},
{
name = blwm.virama;
position = "{344, 48}";
}
);
layerId = "A7C7F4A0-D38E-458B-B20F-CA7152D87AAE";
name = Bold;
paths = (
{
closed = 1;
nodes = (
"246 552 LINE",
"254 543 OFFCURVE",
"258 532 OFFCURVE",
"258 521 CURVE SMOOTH",
"258 447 OFFCURVE",
"26 451 OFFCURVE",
"26 272 CURVE SMOOTH",
"26 151 OFFCURVE",
"176 48 OFFCURVE",
"287 48 CURVE SMOOTH",
"422 48 OFFCURVE",
"469 118 OFFCURVE",
"469 168 CURVE SMOOTH",
"469 220 OFFCURVE",
"432 260 OFFCURVE",
"381 264 CURVE",
"367 198 OFFCURVE",
"302 146 OFFCURVE",
"234 146 CURVE SMOOTH",
"180 146 OFFCURVE",
"142 181 OFFCURVE",
"142 225 CURVE SMOOTH",
"142 366 OFFCURVE",
"378 347 OFFCURVE",
"378 475 CURVE SMOOTH",
"378 516 OFFCURVE",
"344 546 OFFCURVE",
"316 564 CURVE"
);
},
{
closed = 1;
nodes = (
"-65 669 LINE",
"-68 663 OFFCURVE",
"-70 650 OFFCURVE",
"-70 642 CURVE SMOOTH",
"-70 552 OFFCURVE",
"20 552 OFFCURVE",
"56 552 CURVE SMOOTH",
"543 552 LINE",
"546 558 OFFCURVE",
"550 572 OFFCURVE",
"550 584 CURVE SMOOTH",
"550 669 OFFCURVE",
"460 669 OFFCURVE",
"424 669 CURVE SMOOTH"
);
}
);
width = 485;
}
);
unicode = 091F;
},
{
glyphname = dvTTHA;
layers = (
{
anchors = (
{
name = abvm.bindu;
position = "{205, 669}";
},
{
name = abvm.e;
position = "{353, 669}";
},
{
name = blwm.r;
position = "{373, -68}";
},
{
name = blwm.u;
position = "{355, -31}";
},
{
name = blwm.uu;
position = "{309, -31}";
},
{
name = blwm.virama;
position = "{346, 39}";
}
);
layerId = "A7C7F4A0-D38E-458B-B20F-CA7152D87AAE";
name = Bold;
paths = (
{
closed = 1;
nodes = (
"-65 669 LINE",
"-68 663 OFFCURVE",
"-70 650 OFFCURVE",
"-70 642 CURVE SMOOTH",
"-70 552 OFFCURVE",
"20 552 OFFCURVE",
"56 552 CURVE SMOOTH",
"578 552 LINE",
"581 558 OFFCURVE",
"585 572 OFFCURVE",
"585 584 CURVE SMOOTH",
"585 669 OFFCURVE",
"495 669 OFFCURVE",
"459 669 CURVE SMOOTH"
);
},
{
closed = 1;
nodes = (
"254 359 LINE",
"321 355 OFFCURVE",
"375 313 OFFCURVE",
"375 254 CURVE SMOOTH",
"375 198 OFFCURVE",
"316 137 OFFCURVE",
"234 137 CURVE SMOOTH",
"189 137 OFFCURVE",
"138 161 OFFCURVE",
"138 221 CURVE SMOOTH",
"138 361 OFFCURVE",
"384 356 OFFCURVE",
"384 477 CURVE SMOOTH",
"384 518 OFFCURVE",
"350 548 OFFCURVE",
"322 566 CURVE",
"252 554 LINE",
"260 545 OFFCURVE",
"264 534 OFFCURVE",
"264 523 CURVE SMOOTH",
"264 448 OFFCURVE",
"27 450 OFFCURVE",
"27 267 CURVE SMOOTH",
"27 151 OFFCURVE",
"164 39 OFFCURVE",
"286 39 CURVE SMOOTH",
"399 39 OFFCURVE",
"500 106 OFFCURVE",
"500 226 CURVE SMOOTH",
"500 308 OFFCURVE",
"439 399 OFFCURVE",
"325 399 CURVE"
);
}
);
width = 520;
}
);
unicode = 0920;
},
{
glyphname = dvDDA;
layers = (
{
anchors = (
{
name = abvm.bindu;
position = "{224, 669}";
},
{
name = abvm.e;
position = "{456, 669}";
},
{
name = blwm.r;
position = "{411, -116}";
},
{
name = blwm.u;
position = "{385, -79}";
},
{
name = blwm.uu;
position = "{339, -79}";
},
{
name = blwm.virama;
position = "{379, -9}";
}
);
layerId = "A7C7F4A0-D38E-458B-B20F-CA7152D87AAE";
name = Bold;
paths = (
{
closed = 1;
nodes = (
"352 555 LINE",
"368 546 OFFCURVE",
"375 534 OFFCURVE",
"375 522 CURVE SMOOTH",
"375 502 OFFCURVE",
"358 493 OFFCURVE",
"332 493 CURVE SMOOTH",
"285 494 OFFCURVE",
"251 494 OFFCURVE",
"216 494 CURVE SMOOTH",
"125 494 OFFCURVE",
"75 449 OFFCURVE",
"75 377 CURVE SMOOTH",
"75 274 OFFCURVE",
"163 187 OFFCURVE",
"264 187 CURVE SMOOTH",
"319 187 OFFCURVE",
"374 194 OFFCURVE",
"404 194 CURVE SMOOTH",
"430 194 OFFCURVE",
"441 183 OFFCURVE",
"441 168 CURVE SMOOTH",
"441 133 OFFCURVE",
"381 107 OFFCURVE",
"299 107 CURVE SMOOTH",
"203 107 OFFCURVE",
"116 143 OFFCURVE",
"64 199 CURVE",
"53 195 OFFCURVE",
"37 187 OFFCURVE",
"37 164 CURVE SMOOTH",
"37 97 OFFCURVE",
"188 -9 OFFCURVE",
"359 -9 CURVE SMOOTH",
"466 -9 OFFCURVE",
"531 50 OFFCURVE",
"531 134 CURVE SMOOTH",
"531 231 OFFCURVE",
"449 315 OFFCURVE",
"351 315 CURVE SMOOTH",
"306 315 OFFCURVE",
"250 306 OFFCURVE",
"207 306 CURVE SMOOTH",
"185 306 OFFCURVE",
"163 315 OFFCURVE",
"163 337 CURVE SMOOTH",
"163 375 OFFCURVE",
"228 377 OFFCURVE",
"265 377 CURVE SMOOTH",
"297 377 OFFCURVE",
"334 376 OFFCURVE",
"370 376 CURVE SMOOTH",
"444 376 OFFCURVE",
"479 416 OFFCURVE",
"479 465 CURVE SMOOTH",
"479 501 OFFCURVE",
"459 541 OFFCURVE",
"422 569 CURVE"
);
},
{
closed = 1;
nodes = (
"-65 669 LINE",
"-68 663 OFFCURVE",
"-70 650 OFFCURVE",
"-70 642 CURVE SMOOTH",
"-70 552 OFFCURVE",
"20 552 OFFCURVE",
"56 552 CURVE SMOOTH",
"622 552 LINE",
"625 558 OFFCURVE",
"629 572 OFFCURVE",
"629 584 CURVE SMOOTH",
"629 669 OFFCURVE",
"539 669 OFFCURVE",
"503 669 CURVE SMOOTH"
);
}
);
width = 549;
}
);
unicode = 0921;
},
{
glyphname = dvDDHA;
layers = (
{
anchors = (
{
name = abvm.bindu;
position = "{211, 669}";
},
{
name = abvm.e;
position = "{395, 669}";
},
{
name = blwm.r;
position = "{387, -98}";
},
{
name = blwm.u;
position = "{359, -61}";
},
{
name = blwm.uu;
position = "{309, -61}";
},
{
name = blwm.virama;
position = "{343, 9}";
}
);
layerId = "A7C7F4A0-D38E-458B-B20F-CA7152D87AAE";
name = Bold;
paths = (
{
closed = 1;
nodes = (
"283 554 LINE",
"291 546 OFFCURVE",
"295 538 OFFCURVE",
"295 531 CURVE SMOOTH",
"295 465 OFFCURVE",
"23 469 OFFCURVE",
"23 264 CURVE SMOOTH",
"23 122 OFFCURVE",
"184 9 OFFCURVE",
"309 9 CURVE SMOOTH",
"414 9 OFFCURVE",
"495 63 OFFCURVE",
"495 154 CURVE SMOOTH",
"495 253 OFFCURVE",
"404 329 OFFCURVE",
"316 329 CURVE SMOOTH",
"256 329 OFFCURVE",
"211 290 OFFCURVE",
"211 237 CURVE SMOOTH",
"211 184 OFFCURVE",
"253 153 OFFCURVE",
"293 153 CURVE SMOOTH",
"300 153 OFFCURVE",
"310 154 OFFCURVE",
"317 157 CURVE",
"317 168 OFFCURVE",
"318 182 OFFCURVE",
"321 192 CURVE SMOOTH",
"329 222 OFFCURVE",
"346 235 OFFCURVE",
"363 235 CURVE SMOOTH",
"379 235 OFFCURVE",
"392 222 OFFCURVE",
"392 200 CURVE SMOOTH",
"392 162 OFFCURVE",
"354 105 OFFCURVE",
"270 105 CURVE SMOOTH",
"200 105 OFFCURVE",
"135 150 OFFCURVE",
"135 219 CURVE SMOOTH",
"135 381 OFFCURVE",
"410 354 OFFCURVE",
"410 478 CURVE SMOOTH",
"410 527 OFFCURVE",
"370 555 OFFCURVE",
"353 566 CURVE"
);
},
{
closed = 1;
nodes = (
"-83 669 LINE",
"-86 663 OFFCURVE",
"-88 650 OFFCURVE",
"-88 642 CURVE SMOOTH",
"-88 552 OFFCURVE",
"2 552 OFFCURVE",
"38 552 CURVE SMOOTH",
"573 552 LINE",
"576 558 OFFCURVE",
"580 572 OFFCURVE",
"580 584 CURVE SMOOTH",
"580 669 OFFCURVE",
"490 669 OFFCURVE",
"454 669 CURVE SMOOTH"
);
}
);
width = 515;
}
);
unicode = 0922;
},
{
glyphname = dvNNA;
layers = (
{
layerId = "A7C7F4A0-D38E-458B-B20F-CA7152D87AAE";
name = Bold;
paths = (
{
closed = 1;
nodes = (
"-78 669 LINE",
"-81 663 OFFCURVE",
"-83 650 OFFCURVE",
"-83 642 CURVE SMOOTH",
"-83 552 OFFCURVE",
"7 552 OFFCURVE",
"43 552 CURVE SMOOTH",
"818 552 LINE",
"821 558 OFFCURVE",
"825 572 OFFCURVE",
"825 584 CURVE SMOOTH",
"825 669 OFFCURVE",
"735 669 OFFCURVE",
"699 669 CURVE SMOOTH"
);
},
{
closed = 1;
nodes = (
"557 448 CURVE SMOOTH",
"557 294 OFFCURVE",
"552 223 OFFCURVE",
"552 145 CURVE SMOOTH",
"552 102 OFFCURVE",
"554 -7 OFFCURVE",
"658 -7 CURVE SMOOTH",
"669 -7 OFFCURVE",
"685 -6 OFFCURVE",
"700 0 CURVE",
"689 18 OFFCURVE",
"685 69 OFFCURVE",
"685 105 CURVE SMOOTH",
"685 208 OFFCURVE",
"690 322 OFFCURVE",
"690 431 CURVE SMOOTH",
"690 483 OFFCURVE",
"687 570 OFFCURVE",
"587 570 CURVE SMOOTH",
"569 570 OFFCURVE",
"552 564 OFFCURVE",
"542 552 CURVE",
"557 529 OFFCURVE",
"557 485 OFFCURVE"
);
},
{
closed = 1;
nodes = (
"294 554 LINE",
"301 547 OFFCURVE",
"312 499 OFFCURVE",
"312 435 CURVE SMOOTH",
"312 340 OFFCURVE",
"297 273 OFFCURVE",
"243 273 CURVE SMOOTH",
"202 273 OFFCURVE",
"187 306 OFFCURVE",
"181 351 CURVE SMOOTH",
"178 375 OFFCURVE",
"178 403 OFFCURVE",
"178 431 CURVE SMOOTH",
"178 483 OFFCURVE",
"175 570 OFFCURVE",
"75 570 CURVE SMOOTH",
"57 570 OFFCURVE",
"40 564 OFFCURVE",
"30 552 CURVE",
"45 529 OFFCURVE",
"45 485 OFFCURVE",
"45 448 CURVE SMOOTH",
"45 416 OFFCURVE",
"48 382 OFFCURVE",
"49 374 CURVE SMOOTH",
"64 263 OFFCURVE",
"203 178 OFFCURVE",
"296 178 CURVE SMOOTH",
"400 178 OFFCURVE",
"443 263 OFFCURVE",
"443 344 CURVE SMOOTH",
"443 473 OFFCURVE",
"376 550 OFFCURVE",
"361 561 CURVE"
);
}
);
width = 762;
}
);
unicode = 0923;
},
{
glyphname = dvTA;
layers = (
{
layerId = "A7C7F4A0-D38E-458B-B20F-CA7152D87AAE";
name = Bold;
paths = (
{
closed = 1;
nodes = (
"-65 669 LINE",
"-68 663 OFFCURVE",
"-70 650 OFFCURVE",
"-70 642 CURVE SMOOTH",
"-70 552 OFFCURVE",
"20 552 OFFCURVE",
"56 552 CURVE SMOOTH",
"620 552 LINE",
"623 558 OFFCURVE",
"627 572 OFFCURVE",
"627 584 CURVE SMOOTH",
"627 669 OFFCURVE",
"537 669 OFFCURVE",
"501 669 CURVE SMOOTH"
);
},
{
closed = 1;
nodes = (
"363 440 CURVE SMOOTH",
"363 290 OFFCURVE",
"358 221 OFFCURVE",
"358 145 CURVE SMOOTH",
"358 102 OFFCURVE",
"360 -7 OFFCURVE",
"464 -7 CURVE SMOOTH",
"475 -7 OFFCURVE",
"491 -6 OFFCURVE",
"506 0 CURVE",
"495 18 OFFCURVE",
"491 69 OFFCURVE",
"491 105 CURVE SMOOTH",
"491 208 OFFCURVE",
"496 322 OFFCURVE",
"496 431 CURVE SMOOTH",
"496 483 OFFCURVE",
"493 570 OFFCURVE",
"393 570 CURVE SMOOTH",
"375 570 OFFCURVE",
"358 564 OFFCURVE",
"348 552 CURVE",
"363 527 OFFCURVE",
"363 479 OFFCURVE"
);
},
{
closed = 1;
nodes = (
"45 287 CURVE SMOOTH",
"45 166 OFFCURVE",
"153 12 OFFCURVE",
"209 12 CURVE SMOOTH",
"227 12 OFFCURVE",
"241 23 OFFCURVE",
"247 35 CURVE",
"200 99 OFFCURVE",
"172 171 OFFCURVE",
"172 241 CURVE SMOOTH",
"172 297 OFFCURVE",
"206 326 OFFCURVE",
"260 326 CURVE SMOOTH",
"366 326 LINE",
"372 434 LINE",
"316 441 OFFCURVE",
"265 445 OFFCURVE",
"218 445 CURVE SMOOTH",
"126 445 OFFCURVE",
"45 404 OFFCURVE"
);
}
);
width = 564;
}
);
unicode = 0924;
},
{
glyphname = dvTHA;
layers = (
{
layerId = "A7C7F4A0-D38E-458B-B20F-CA7152D87AAE";
name = Bold;
paths = (
{
closed = 1;
nodes = (
"371 669 LINE",
"368 663 OFFCURVE",
"366 650 OFFCURVE",
"366 642 CURVE SMOOTH",
"366 613 OFFCURVE",
"377 592 OFFCURVE",
"398 571 CURVE SMOOTH",
"428 543 OFFCURVE",
"435 536 OFFCURVE",
"435 447 CURVE SMOOTH",
"435 391 OFFCURVE",
"434 349 OFFCURVE",
"433 311 CURVE",
"439 343 LINE",
"401 267 OFFCURVE",
"289 236 OFFCURVE",
"219 236 CURVE SMOOTH",
"191 236 OFFCURVE",
"170 244 OFFCURVE",
"170 259 CURVE SMOOTH",
"170 298 OFFCURVE",
"349 321 OFFCURVE",
"349 471 CURVE SMOOTH",
"349 586 OFFCURVE",
"257 677 OFFCURVE",
"170 677 CURVE SMOOTH",
"98 677 OFFCURVE",
"47 626 OFFCURVE",
"47 561 CURVE SMOOTH",
"47 503 OFFCURVE",
"83 448 OFFCURVE",
"140 448 CURVE SMOOTH",
"149 448 OFFCURVE",
"157 450 OFFCURVE",
"161 452 CURVE",
"154 464 OFFCURVE",
"151 479 OFFCURVE",
"151 495 CURVE SMOOTH",
"151 532 OFFCURVE",
"174 572 OFFCURVE",
"211 572 CURVE SMOOTH",
"241 572 OFFCURVE",
"253 548 OFFCURVE",
"253 527 CURVE SMOOTH",
"253 416 OFFCURVE",
"40 395 OFFCURVE",
"40 319 CURVE SMOOTH",
"40 247 OFFCURVE",
"169 125 OFFCURVE",
"295 125 CURVE SMOOTH",
"456 125 OFFCURVE",
"514 237 OFFCURVE",
"536 284 CURVE",
"458 204 LINE",
"449 179 OFFCURVE",
"441 144 OFFCURVE",
"441 110 CURVE SMOOTH",
"441 50 OFFCURVE",
"464 -7 OFFCURVE",
"536 -7 CURVE SMOOTH",
"547 -7 OFFCURVE",
"563 -6 OFFCURVE",
"578 0 CURVE",
"567 18 OFFCURVE",
"563 69 OFFCURVE",
"563 105 CURVE SMOOTH",
"563 208 OFFCURVE",
"568 322 OFFCURVE",
"568 431 CURVE SMOOTH",
"568 483 OFFCURVE",
"564 570 OFFCURVE",
"464 570 CURVE",
"492 552 LINE",
"696 552 LINE",
"699 558 OFFCURVE",
"703 572 OFFCURVE",
"703 584 CURVE SMOOTH",
"703 669 OFFCURVE",
"613 669 OFFCURVE",
"577 669 CURVE SMOOTH"
);
}
);
width = 640;
}
);
unicode = 0925;
},
{
glyphname = dvDA;
layers = (
{
anchors = (
{
name = abvm.bindu;
position = "{222, 669}";
},
{
name = abvm.e;
position = "{406, 669}";
},
{
name = blwm.u;
position = "{367, -84}";
},
{
name = blwm.uu;
position = "{352, -84}";
},
{
name = blwm.virama;
position = "{398, -130}";
}
);
layerId = "A7C7F4A0-D38E-458B-B20F-CA7152D87AAE";
name = Bold;
paths = (
{
closed = 1;
nodes = (
"362 198 LINE",
"337 158 OFFCURVE",
"295 143 OFFCURVE",
"248 143 CURVE SMOOTH",
"198 143 OFFCURVE",
"145 171 OFFCURVE",
"145 227 CURVE SMOOTH",
"145 368 OFFCURVE",
"418 340 OFFCURVE",
"418 478 CURVE SMOOTH",
"418 510 OFFCURVE",
"390 549 OFFCURVE",
"363 567 CURVE",
"292 554 LINE",
"297 546 OFFCURVE",
"300 538 OFFCURVE",
"300 528 CURVE SMOOTH",
"300 452 OFFCURVE",
"32 466 OFFCURVE",
"32 277 CURVE SMOOTH",
"32 155 OFFCURVE",
"174 40 OFFCURVE",
"308 40 CURVE SMOOTH",
"389 40 OFFCURVE",
"464 75 OFFCURVE",
"464 160 CURVE SMOOTH",
"464 213 OFFCURVE",
"422 266 OFFCURVE",
"372 266 CURVE SMOOTH",
"330 266 OFFCURVE",
"297 235 OFFCURVE",
"297 189 CURVE SMOOTH",
"297 164 OFFCURVE",
"310 139 OFFCURVE",
"326 121 CURVE"
);
},
{
closed = 1;
nodes = (
"348 45 LINE",
"353 35 OFFCURVE",
"353 25 OFFCURVE",
"353 17 CURVE SMOOTH",
"353 -25 OFFCURVE",
"320 -50 OFFCURVE",
"278 -57 CURVE",
"286 -103 OFFCURVE",
"325 -134 OFFCURVE",
"365 -134 CURVE SMOOTH",
"429 -134 OFFCURVE",
"457 -90 OFFCURVE",
"457 -41 CURVE SMOOTH",
"457 -2 OFFCURVE",
"439 36 OFFCURVE",
"407 68 CURVE"
);
},
{
closed = 1;
nodes = (
"-66 669 LINE",
"-69 663 OFFCURVE",
"-71 650 OFFCURVE",
"-71 642 CURVE SMOOTH",
"-71 552 OFFCURVE",
"19 552 OFFCURVE",
"55 552 CURVE SMOOTH",
"531 552 LINE",
"534 558 OFFCURVE",
"538 572 OFFCURVE",
"538 584 CURVE SMOOTH",
"538 669 OFFCURVE",
"448 669 OFFCURVE",
"412 669 CURVE SMOOTH"
);
}
);
width = 493;
}
);
unicode = 0926;
},
{
glyphname = dvDHA;
layers = (
{
layerId = "A7C7F4A0-D38E-458B-B20F-CA7152D87AAE";
name = Bold;
paths = (
{
closed = 1;
nodes = (
"362 669 LINE",
"359 663 OFFCURVE",
"357 650 OFFCURVE",
"357 642 CURVE SMOOTH",
"357 613 OFFCURVE",
"368 592 OFFCURVE",
"389 571 CURVE SMOOTH",
"419 543 OFFCURVE",
"426 537 OFFCURVE",
"426 448 CURVE SMOOTH",
"426 369 OFFCURVE",
"424 312 OFFCURVE",
"423 265 CURVE",
"432 313 LINE",
"404 249 OFFCURVE",
"329 198 OFFCURVE",
"253 198 CURVE SMOOTH",
"214 198 OFFCURVE",
"180 219 OFFCURVE",
"180 255 CURVE SMOOTH",
"180 302 OFFCURVE",
"223 326 OFFCURVE",
"258 329 CURVE",
"199 345 OFFCURVE",
"152 392 OFFCURVE",
"152 449 CURVE SMOOTH",
"152 511 OFFCURVE",
"190 552 OFFCURVE",
"252 552 CURVE SMOOTH",
"262 552 LINE",
"265 558 OFFCURVE",
"269 572 OFFCURVE",
"269 584 CURVE SMOOTH",
"269 669 OFFCURVE",
"179 669 OFFCURVE",
"143 669 CURVE SMOOTH",
"-78 669 LINE",
"-81 663 OFFCURVE",
"-83 650 OFFCURVE",
"-83 642 CURVE SMOOTH",
"-83 571 OFFCURVE",
"-25 553 OFFCURVE",
"26 553 CURVE SMOOTH",
"40 553 OFFCURVE",
"52 554 OFFCURVE",
"64 556 CURVE",
"62 571 LINE",
"47 546 OFFCURVE",
"41 520 OFFCURVE",
"41 495 CURVE SMOOTH",
"41 395 OFFCURVE",
"146 308 OFFCURVE",
"249 308 CURVE SMOOTH",
"290 308 OFFCURVE",
"331 330 OFFCURVE",
"331 368 CURVE SMOOTH",
"331 413 OFFCURVE",
"285 443 OFFCURVE",
"231 443 CURVE SMOOTH",
"150 443 OFFCURVE",
"69 384 OFFCURVE",
"69 293 CURVE SMOOTH",
"69 206 OFFCURVE",
"171 104 OFFCURVE",
"303 104 CURVE SMOOTH",
"424 104 OFFCURVE",
"482 183 OFFCURVE",
"516 267 CURVE",
"450 184 LINE",
"438 160 OFFCURVE",
"430 128 OFFCURVE",
"430 97 CURVE SMOOTH",
"430 44 OFFCURVE",
"454 -7 OFFCURVE",
"527 -7 CURVE SMOOTH",
"538 -7 OFFCURVE",
"554 -6 OFFCURVE",
"569 0 CURVE",
"558 18 OFFCURVE",
"554 69 OFFCURVE",
"554 105 CURVE SMOOTH",
"554 208 OFFCURVE",
"559 322 OFFCURVE",
"559 431 CURVE SMOOTH",
"559 483 OFFCURVE",
"555 570 OFFCURVE",
"455 570 CURVE",
"483 552 LINE",
"687 552 LINE",
"690 558 OFFCURVE",
"694 572 OFFCURVE",
"694 584 CURVE SMOOTH",
"694 669 OFFCURVE",
"604 669 OFFCURVE",
"568 669 CURVE SMOOTH"
);
}
);
width = 631;
}
);
unicode = 0927;
},
{
glyphname = dvNA;
layers = (
{
layerId = "A7C7F4A0-D38E-458B-B20F-CA7152D87AAE";
name = Bold;
paths = (
{
closed = 1;
nodes = (
"384 440 CURVE SMOOTH",
"384 290 OFFCURVE",
"379 221 OFFCURVE",
"379 145 CURVE SMOOTH",
"379 102 OFFCURVE",
"381 -7 OFFCURVE",
"485 -7 CURVE SMOOTH",
"496 -7 OFFCURVE",
"512 -6 OFFCURVE",
"527 0 CURVE",
"516 18 OFFCURVE",
"512 69 OFFCURVE",
"512 105 CURVE SMOOTH",
"512 208 OFFCURVE",
"517 322 OFFCURVE",
"517 431 CURVE SMOOTH",
"517 483 OFFCURVE",
"514 570 OFFCURVE",
"414 570 CURVE SMOOTH",
"396 570 OFFCURVE",
"379 564 OFFCURVE",
"369 552 CURVE",
"384 527 OFFCURVE",
"384 479 OFFCURVE"
);
},
{
closed = 1;
nodes = (
"-65 669 LINE",
"-68 663 OFFCURVE",
"-70 650 OFFCURVE",
"-70 642 CURVE SMOOTH",
"-70 552 OFFCURVE",
"20 552 OFFCURVE",
"56 552 CURVE SMOOTH",
"645 552 LINE",
"648 558 OFFCURVE",
"652 572 OFFCURVE",
"652 584 CURVE SMOOTH",
"652 669 OFFCURVE",
"562 669 OFFCURVE",
"526 669 CURVE SMOOTH"
);
},
{
closed = 1;
nodes = (
"131 262 CURVE SMOOTH",
"131 291 OFFCURVE",
"157 326 OFFCURVE",
"221 326 CURVE SMOOTH",
"386 326 LINE",
"393 434 LINE",
"340 439 OFFCURVE",
"280 444 OFFCURVE",
"209 444 CURVE SMOOTH",
"88 444 OFFCURVE",
"24 401 OFFCURVE",
"24 316 CURVE SMOOTH",
"24 221 OFFCURVE",
"135 110 OFFCURVE",
"233 110 CURVE SMOOTH",
"285 110 OFFCURVE",
"307 142 OFFCURVE",
"307 177 CURVE SMOOTH",
"307 213 OFFCURVE",
"284 253 OFFCURVE",
"244 268 CURVE",
"241 261 OFFCURVE",
"236 253 OFFCURVE",
"225 243 CURVE SMOOTH",
"213 233 OFFCURVE",
"195 223 OFFCURVE",
"174 223 CURVE SMOOTH",
"144 223 OFFCURVE",
"131 244 OFFCURVE"
);
}
);
width = 589;
}
);
unicode = 0928;
},
{
glyphname = dvPA;
layers = (
{
layerId = "A7C7F4A0-D38E-458B-B20F-CA7152D87AAE";
name = Bold;
paths = (
{
closed = 1;
nodes = (
"38 552 CURVE",
"45 541 OFFCURVE",
"49 530 OFFCURVE",
"51 508 CURVE SMOOTH",
"53 483 OFFCURVE",
"53 445 OFFCURVE",
"53 379 CURVE SMOOTH",
"53 285 OFFCURVE",
"181 161 OFFCURVE",
"297 161 CURVE SMOOTH",
"353 161 OFFCURVE",
"397 193 OFFCURVE",
"409 205 CURVE",
"380 205 LINE",
"370 182 OFFCURVE",
"363 150 OFFCURVE",
"363 118 CURVE SMOOTH",
"363 56 OFFCURVE",
"389 -7 OFFCURVE",
"467 -7 CURVE SMOOTH",
"478 -7 OFFCURVE",
"494 -6 OFFCURVE",
"509 0 CURVE",
"498 18 OFFCURVE",
"494 69 OFFCURVE",
"494 105 CURVE SMOOTH",
"494 208 OFFCURVE",
"499 322 OFFCURVE",
"499 431 CURVE SMOOTH",
"499 483 OFFCURVE",
"496 570 OFFCURVE",
"396 570 CURVE SMOOTH",
"378 570 OFFCURVE",
"361 564 OFFCURVE",
"351 552 CURVE",
"366 529 OFFCURVE",
"366 485 OFFCURVE",
"366 448 CURVE SMOOTH",
"366 398 OFFCURVE",
"366 357 OFFCURVE",
"365 321 CURVE",
"370 356 LINE",
"351 305 OFFCURVE",
"296 259 OFFCURVE",
"250 259 CURVE SMOOTH",
"193 259 OFFCURVE",
"182 295 OFFCURVE",
"182 350 CURVE SMOOTH",
"182 374 OFFCURVE",
"184 402 OFFCURVE",
"184 431 CURVE SMOOTH",
"184 483 OFFCURVE",
"183 570 OFFCURVE",
"83 570 CURVE SMOOTH",
"65 570 OFFCURVE",
"48 564 OFFCURVE"
);
},
{
closed = 1;
nodes = (
"-70 669 LINE",
"-73 663 OFFCURVE",
"-75 650 OFFCURVE",
"-75 642 CURVE SMOOTH",
"-75 552 OFFCURVE",
"15 552 OFFCURVE",
"51 552 CURVE SMOOTH",
"628 552 LINE",
"631 558 OFFCURVE",
"635 572 OFFCURVE",
"635 584 CURVE SMOOTH",
"635 669 OFFCURVE",
"545 669 OFFCURVE",
"509 669 CURVE SMOOTH"
);
}
);
width = 572;
}
);
unicode = 092A;
},
{
glyphname = dvPHA;
layers = (
{
anchors = (
{
name = abvm.bindu;
position = "{315, 669}";
},
{
name = abvm.e;
position = "{453, 669}";
},
{
name = blwm.r;
position = "{473, 0}";
},
{
name = blwm.u;
position = "{473, -1}";
},
{
name = blwm.uu;
position = "{473, -14}";
},
{
name = blwm.virama;
position = "{473, 0}";
}
);
layerId = "A7C7F4A0-D38E-458B-B20F-CA7152D87AAE";
name = Bold;
paths = (
{
closed = 1;
nodes = (
"-70 669 LINE",
"-73 663 OFFCURVE",
"-75 650 OFFCURVE",
"-75 642 CURVE SMOOTH",
"-75 552 OFFCURVE",
"15 552 OFFCURVE",
"51 552 CURVE SMOOTH",
"832 552 LINE",
"835 558 OFFCURVE",
"839 572 OFFCURVE",
"839 584 CURVE SMOOTH",
"839 669 OFFCURVE",
"749 669 OFFCURVE",
"713 669 CURVE SMOOTH"
);
},
{
closed = 1;
nodes = (
"583 374 CURVE SMOOTH",
"617 374 OFFCURVE",
"647 349 OFFCURVE",
"647 311 CURVE SMOOTH",
"647 263 OFFCURVE",
"612 228 OFFCURVE",
"565 216 CURVE SMOOTH",
"553 213 OFFCURVE",
"539 211 OFFCURVE",
"526 211 CURVE",
"525 206 OFFCURVE",
"525 202 OFFCURVE",
"525 200 CURVE SMOOTH",
"525 153 OFFCURVE",
"561 110 OFFCURVE",
"618 110 CURVE SMOOTH",
"698 110 OFFCURVE",
"751 179 OFFCURVE",
"751 252 CURVE SMOOTH",
"751 369 OFFCURVE",
"645 476 OFFCURVE",
"537 476 CURVE SMOOTH",
"461 476 OFFCURVE",
"428 421 OFFCURVE",
"415 398 CURVE",
"446 420 LINE",
"450 435 OFFCURVE",
"453 454 OFFCURVE",
"453 473 CURVE SMOOTH",
"453 520 OFFCURVE",
"434 570 OFFCURVE",
"369 570 CURVE SMOOTH",
"344 570 OFFCURVE",
"326 563 OFFCURVE",
"315 552 CURVE",
"330 529 OFFCURVE",
"330 485 OFFCURVE",
"330 448 CURVE SMOOTH",
"330 378 OFFCURVE",
"329 324 OFFCURVE",
"328 280 CURVE",
"365 376 LINE SMOOTH",
"346 325 OFFCURVE",
"291 279 OFFCURVE",
"245 279 CURVE SMOOTH",
"188 279 OFFCURVE",
"177 315 OFFCURVE",
"177 370 CURVE SMOOTH",
"177 388 OFFCURVE",
"179 409 OFFCURVE",
"179 431 CURVE SMOOTH",
"179 483 OFFCURVE",
"178 570 OFFCURVE",
"78 570 CURVE SMOOTH",
"60 570 OFFCURVE",
"43 564 OFFCURVE",
"33 552 CURVE",
"42 539 OFFCURVE",
"46 525 OFFCURVE",
"47 490 CURVE SMOOTH",
"48 468 OFFCURVE",
"48 437 OFFCURVE",
"48 393 CURVE SMOOTH",
"48 298 OFFCURVE",
"167 181 OFFCURVE",
"292 181 CURVE SMOOTH",
"348 181 OFFCURVE",
"392 212 OFFCURVE",
"404 225 CURVE",
"338 198 LINE",
"330 176 OFFCURVE",
"326 150 OFFCURVE",
"326 123 CURVE SMOOTH",
"326 58 OFFCURVE",
"353 -7 OFFCURVE",
"431 -7 CURVE SMOOTH",
"442 -7 OFFCURVE",
"458 -6 OFFCURVE",
"473 0 CURVE",
"462 18 OFFCURVE",
"458 69 OFFCURVE",
"458 105 CURVE SMOOTH",
"458 181 OFFCURVE",
"461 262 OFFCURVE",
"462 343 CURVE",
"442 250 LINE",
"471 310 OFFCURVE",
"519 374 OFFCURVE"
);
}
);
width = 789;
}
);
unicode = 092B;
},
{
glyphname = dvBA;
layers = (
{
layerId = "A7C7F4A0-D38E-458B-B20F-CA7152D87AAE";
name = Bold;
paths = (
{
closed = 1;
nodes = (
"-75 669 LINE",
"-78 663 OFFCURVE",
"-80 650 OFFCURVE",
"-80 642 CURVE SMOOTH",
"-80 552 OFFCURVE",
"10 552 OFFCURVE",
"46 552 CURVE SMOOTH",
"660 552 LINE",
"663 558 OFFCURVE",
"667 572 OFFCURVE",
"667 584 CURVE SMOOTH",
"667 669 OFFCURVE",
"577 669 OFFCURVE",
"541 669 CURVE SMOOTH"
);
},
{
closed = 1;
nodes = (
"542 0 CURVE",
"531 18 OFFCURVE",
"527 69 OFFCURVE",
"527 105 CURVE SMOOTH",
"527 208 OFFCURVE",
"532 322 OFFCURVE",
"532 431 CURVE SMOOTH",
"532 483 OFFCURVE",
"529 570 OFFCURVE",
"429 570 CURVE SMOOTH",
"411 570 OFFCURVE",
"394 564 OFFCURVE",
"384 552 CURVE",
"399 529 OFFCURVE",
"399 485 OFFCURVE",
"399 448 CURVE SMOOTH",
"399 383 OFFCURVE",
"398 332 OFFCURVE",
"397 288 CURVE",
"410 353 LINE",
"383 275 OFFCURVE",
"316 210 OFFCURVE",
"225 210 CURVE SMOOTH",
"176 210 OFFCURVE",
"134 244 OFFCURVE",
"134 289 CURVE SMOOTH",
"134 341 OFFCURVE",
"184 369 OFFCURVE",
"237 369 CURVE SMOOTH",
"280 369 OFFCURVE",
"306 355 OFFCURVE",
"316 349 CURVE",
"326 361 OFFCURVE",
"331 384 OFFCURVE",
"331 401 CURVE SMOOTH",
"331 458 OFFCURVE",
"269 491 OFFCURVE",
"198 491 CURVE SMOOTH",
"117 491 OFFCURVE",
"29 444 OFFCURVE",
"29 342 CURVE SMOOTH",
"29 245 OFFCURVE",
"142 103 OFFCURVE",
"278 103 CURVE SMOOTH",
"343 103 OFFCURVE",
"405 127 OFFCURVE",
"436 171 CURVE",
"423 169 LINE",
"409 153 OFFCURVE",
"400 127 OFFCURVE",
"400 102 CURVE SMOOTH",
"400 48 OFFCURVE",
"427 -7 OFFCURVE",
"500 -7 CURVE SMOOTH",
"511 -7 OFFCURVE",
"527 -6 OFFCURVE"
);
},
{
closed = 1;
nodes = (
"289 188 LINE",
"338 227 LINE",
"186 413 LINE",
"137 374 LINE"
);
}
);
width = 604;
}
);
unicode = 092C;
},
{
glyphname = dvBHA;
layers = (
{
layerId = "A7C7F4A0-D38E-458B-B20F-CA7152D87AAE";
name = Bold;
paths = (
{
closed = 1;
nodes = (
"314 669 LINE",
"311 663 OFFCURVE",
"309 650 OFFCURVE",
"309 642 CURVE SMOOTH",
"309 552 OFFCURVE",
"399 552 OFFCURVE",
"435 552 CURVE SMOOTH",
"727 552 LINE",
"730 558 OFFCURVE",
"734 572 OFFCURVE",
"734 584 CURVE SMOOTH",
"734 669 OFFCURVE",
"644 669 OFFCURVE",
"608 669 CURVE SMOOTH"
);
},
{
closed = 1;
nodes = (
"466 448 CURVE SMOOTH",
"466 294 OFFCURVE",
"461 223 OFFCURVE",
"461 145 CURVE SMOOTH",
"461 102 OFFCURVE",
"463 -7 OFFCURVE",
"567 -7 CURVE SMOOTH",
"578 -7 OFFCURVE",
"594 -6 OFFCURVE",
"609 0 CURVE",
"598 18 OFFCURVE",
"594 69 OFFCURVE",
"594 105 CURVE SMOOTH",
"594 208 OFFCURVE",
"599 322 OFFCURVE",
"599 431 CURVE SMOOTH",
"599 483 OFFCURVE",
"596 570 OFFCURVE",
"496 570 CURVE SMOOTH",
"478 570 OFFCURVE",
"461 564 OFFCURVE",
"451 552 CURVE",
"466 529 OFFCURVE",
"466 485 OFFCURVE"
);
},
{
closed = 1;
nodes = (
"184 488 CURVE SMOOTH",
"184 356 OFFCURVE",
"179 318 OFFCURVE",
"170 268 CURVE",
"505 268 LINE",
"513 374 LINE",
"433 385 OFFCURVE",
"280 390 OFFCURVE",
"206 390 CURVE SMOOTH",
"167 390 OFFCURVE",
"93 387 OFFCURVE",
"93 319 CURVE SMOOTH",
"93 260 OFFCURVE",
"165 171 OFFCURVE",
"234 171 CURVE SMOOTH",
"294 171 OFFCURVE",
"309 260 OFFCURVE",
"309 367 CURVE SMOOTH",
"309 528 OFFCURVE",
"209 669 OFFCURVE",
"115 669 CURVE SMOOTH",
"46 669 OFFCURVE",
"10 617 OFFCURVE",
"10 560 CURVE SMOOTH",
"10 502 OFFCURVE",
"45 441 OFFCURVE",
"103 441 CURVE SMOOTH",
"112 441 OFFCURVE",
"120 443 OFFCURVE",
"124 445 CURVE",
"118 456 OFFCURVE",
"114 476 OFFCURVE",
"114 496 CURVE SMOOTH",
"114 523 OFFCURVE",
"123 560 OFFCURVE",
"153 560 CURVE SMOOTH",
"176 560 OFFCURVE",
"184 537 OFFCURVE"
);
}
);
width = 671;
}
);
unicode = 092D;
},
{
glyphname = dvMA;
layers = (
{
layerId = "A7C7F4A0-D38E-458B-B20F-CA7152D87AAE";
name = Bold;
paths = (
{
closed = 1;
nodes = (
"-78 669 LINE",
"-81 663 OFFCURVE",
"-83 650 OFFCURVE",
"-83 642 CURVE SMOOTH",
"-83 552 OFFCURVE",
"7 552 OFFCURVE",
"43 552 CURVE SMOOTH",
"678 552 LINE",
"681 558 OFFCURVE",
"685 572 OFFCURVE",
"685 584 CURVE SMOOTH",
"685 669 OFFCURVE",
"595 669 OFFCURVE",
"559 669 CURVE SMOOTH"
);
},
{
closed = 1;
nodes = (
"417 448 CURVE SMOOTH",
"417 294 OFFCURVE",
"412 223 OFFCURVE",
"412 145 CURVE SMOOTH",
"412 102 OFFCURVE",
"414 -7 OFFCURVE",
"518 -7 CURVE SMOOTH",
"529 -7 OFFCURVE",
"545 -6 OFFCURVE",
"560 0 CURVE",
"549 18 OFFCURVE",
"545 69 OFFCURVE",
"545 105 CURVE SMOOTH",
"545 208 OFFCURVE",
"550 322 OFFCURVE",
"550 431 CURVE SMOOTH",
"550 483 OFFCURVE",
"547 570 OFFCURVE",
"447 570 CURVE SMOOTH",
"429 570 OFFCURVE",
"412 564 OFFCURVE",
"402 552 CURVE",
"417 529 OFFCURVE",
"417 485 OFFCURVE"
);
},
{
closed = 1;
nodes = (
"464 374 LINE",
"384 385 OFFCURVE",
"218 390 OFFCURVE",
"144 390 CURVE SMOOTH",
"105 390 OFFCURVE",
"31 387 OFFCURVE",
"31 319 CURVE SMOOTH",
"31 260 OFFCURVE",
"103 171 OFFCURVE",
"172 171 CURVE SMOOTH",
"236 171 OFFCURVE",
"250 248 OFFCURVE",
"250 431 CURVE SMOOTH",
"250 483 OFFCURVE",
"247 570 OFFCURVE",
"147 570 CURVE SMOOTH",
"131 570 OFFCURVE",
"111 564 OFFCURVE",
"101 552 CURVE",
"118 526 OFFCURVE",
"118 475 OFFCURVE",
"118 433 CURVE SMOOTH",
"118 364 OFFCURVE",
"111 288 OFFCURVE",
"110 268 CURVE",
"456 268 LINE"
);
}
);
width = 622;
}
);
unicode = 092E;
},
{
glyphname = dvYA;
layers = (
{
layerId = "A7C7F4A0-D38E-458B-B20F-CA7152D87AAE";
name = Bold;
paths = (
{
closed = 1;
nodes = (
"-45 669 LINE",
"-48 663 OFFCURVE",
"-50 650 OFFCURVE",
"-50 642 CURVE SMOOTH",
"-50 552 OFFCURVE",
"40 552 OFFCURVE",
"76 552 CURVE SMOOTH",
"665 552 LINE",
"668 558 OFFCURVE",
"672 572 OFFCURVE",
"672 584 CURVE SMOOTH",
"672 669 OFFCURVE",
"582 669 OFFCURVE",
"546 669 CURVE SMOOTH"
);
},
{
closed = 1;
nodes = (
"150 568 LINE",
"177 568 OFFCURVE",
"188 545 OFFCURVE",
"188 524 CURVE SMOOTH",
"188 431 OFFCURVE",
"33 410 OFFCURVE",
"33 348 CURVE SMOOTH",
"33 262 OFFCURVE",
"164 135 OFFCURVE",
"290 135 CURVE SMOOTH",
"423 135 OFFCURVE",
"474 229 OFFCURVE",
"493 267 CURVE",
"424 204 LINE",
"415 179 OFFCURVE",
"407 144 OFFCURVE",
"407 110 CURVE SMOOTH",
"407 50 OFFCURVE",
"430 -7 OFFCURVE",
"502 -7 CURVE SMOOTH",
"513 -7 OFFCURVE",
"529 -6 OFFCURVE",
"544 0 CURVE",
"533 18 OFFCURVE",
"529 69 OFFCURVE",
"529 105 CURVE SMOOTH",
"529 208 OFFCURVE",
"534 322 OFFCURVE",
"534 431 CURVE SMOOTH",
"534 483 OFFCURVE",
"531 570 OFFCURVE",
"431 570 CURVE SMOOTH",
"365 570 LINE",
"395 542 OFFCURVE",
"401 537 OFFCURVE",
"401 448 CURVE SMOOTH",
"401 392 OFFCURVE",
"400 349 OFFCURVE",
"399 311 CURVE",
"405 343 LINE",
"374 278 OFFCURVE",
"287 248 OFFCURVE",
"225 248 CURVE SMOOTH",
"187 248 OFFCURVE",
"158 259 OFFCURVE",
"158 282 CURVE SMOOTH",
"158 324 OFFCURVE",
"292 338 OFFCURVE",
"292 454 CURVE SMOOTH",
"292 501 OFFCURVE",
"274 540 OFFCURVE",
"250 568 CURVE"
);
}
);
width = 609;
}
);
unicode = 092F;
},
{
glyphname = dvRA;
layers = (
{
anchors = (
{
name = abvm.bindu;
position = "{131, 669}";
},
{
name = abvm.e;
position = "{304, 669}";
},
{
name = blwm.r;
position = "{352, -117}";
},
{
name = blwm.virama;
position = "{350, -10}";
}
);
layerId = "A7C7F4A0-D38E-458B-B20F-CA7152D87AAE";
name = Bold;
paths = (
{
closed = 1;
nodes = (
"165 323 LINE",
"150 382 OFFCURVE",
"130 431 OFFCURVE",
"79 431 CURVE SMOOTH",
"36 431 OFFCURVE",
"16 394 OFFCURVE",
"16 361 CURVE SMOOTH",
"16 272 OFFCURVE",
"115 216 OFFCURVE",
"189 216 CURVE SMOOTH",
"292 216 OFFCURVE",
"364 287 OFFCURVE",
"364 387 CURVE SMOOTH",
"364 466 OFFCURVE",
"318 539 OFFCURVE",
"266 584 CURVE",
"199 557 LINE",
"233 537 OFFCURVE",
"251 494 OFFCURVE",
"251 452 CURVE SMOOTH",
"251 398 OFFCURVE",
"221 346 OFFCURVE",
"155 346 CURVE SMOOTH",
"147 346 LINE"
);
},
{
closed = 1;
nodes = (
"105 260 LINE",
"132 163 OFFCURVE",
"185 -10 OFFCURVE",
"300 -10 CURVE SMOOTH",
"356 -10 OFFCURVE",
"376 29 OFFCURVE",
"376 61 CURVE SMOOTH",
"376 78 OFFCURVE",
"372 96 OFFCURVE",
"366 109 CURVE",
"356 106 OFFCURVE",
"344 105 OFFCURVE",
"334 105 CURVE SMOOTH",
"229 105 OFFCURVE",
"200 190 OFFCURVE",
"178 274 CURVE"
);
},
{
closed = 1;
nodes = (
"-69 669 LINE",
"-72 663 OFFCURVE",
"-74 650 OFFCURVE",
"-74 642 CURVE SMOOTH",
"-74 552 OFFCURVE",
"16 552 OFFCURVE",
"52 552 CURVE SMOOTH",
"466 552 LINE",
"469 558 OFFCURVE",
"473 572 OFFCURVE",
"473 584 CURVE SMOOTH",
"473 669 OFFCURVE",
"383 669 OFFCURVE",
"347 669 CURVE SMOOTH"
);
}
);
width = 416;
}
);
unicode = 0930;
},
{
glyphname = dvNukta;
layers = (
{
layerId = "A7C7F4A0-D38E-458B-B20F-CA7152D87AAE";
name = Bold;
paths = (
{
closed = 1;
nodes = (
"-290 -164 CURVE SMOOTH",
"-290 -201 OFFCURVE",
"-256 -235 OFFCURVE",
"-219 -235 CURVE SMOOTH",
"-188 -235 OFFCURVE",
"-168 -212 OFFCURVE",
"-168 -184 CURVE SMOOTH",
"-168 -147 OFFCURVE",
"-204 -113 OFFCURVE",
"-239 -113 CURVE SMOOTH",
"-270 -113 OFFCURVE",
"-290 -135 OFFCURVE"
);
}
);
width = 0;
}
);
unicode = 093C;
},
{
glyphname = dvLA;
layers = (
{
layerId = "A7C7F4A0-D38E-458B-B20F-CA7152D87AAE";
name = Bold;
paths = (
{
closed = 1;
nodes = (
"-65 669 LINE",
"-68 663 OFFCURVE",
"-70 650 OFFCURVE",
"-70 642 CURVE SMOOTH",
"-70 552 OFFCURVE",
"20 552 OFFCURVE",
"56 552 CURVE SMOOTH",
"803 552 LINE",
"806 558 OFFCURVE",
"810 572 OFFCURVE",
"810 584 CURVE SMOOTH",
"810 669 OFFCURVE",
"720 669 OFFCURVE",
"684 669 CURVE SMOOTH"
);
},
{
closed = 1;
nodes = (
"544 448 CURVE SMOOTH",
"544 294 OFFCURVE",
"539 223 OFFCURVE",
"539 145 CURVE SMOOTH",
"539 102 OFFCURVE",
"541 -7 OFFCURVE",
"645 -7 CURVE SMOOTH",
"656 -7 OFFCURVE",
"672 -6 OFFCURVE",
"687 0 CURVE",
"676 18 OFFCURVE",
"672 69 OFFCURVE",
"672 105 CURVE SMOOTH",
"672 208 OFFCURVE",
"677 322 OFFCURVE",
"677 431 CURVE SMOOTH",
"677 483 OFFCURVE",
"674 570 OFFCURVE",
"574 570 CURVE SMOOTH",
"556 570 OFFCURVE",
"539 564 OFFCURVE",
"529 552 CURVE",
"544 529 OFFCURVE",
"544 485 OFFCURVE"
);
},
{
closed = 1;
nodes = (
"617 350 LINE",
"583 414 OFFCURVE",
"527 453 OFFCURVE",
"463 453 CURVE SMOOTH",
"400 453 OFFCURVE",
"342 417 OFFCURVE",
"310 356 CURVE",
"422 276 LINE",
"432 312 OFFCURVE",
"468 334 OFFCURVE",
"501 334 CURVE SMOOTH",
"525 334 OFFCURVE",
"551 328 OFFCURVE",
"564 321 CURVE"
);
},
{
closed = 1;
nodes = (
"255 354 CURVE SMOOTH",
"273 354 OFFCURVE",
"291 349 OFFCURVE",
"304 342 CURVE",
"294 323 OFFCURVE",
"279 296 OFFCURVE",
"279 248 CURVE SMOOTH",
"279 194 OFFCURVE",
"310 136 OFFCURVE",
"360 136 CURVE SMOOTH",
"416 136 OFFCURVE",
"432 192 OFFCURVE",
"432 229 CURVE SMOOTH",
"432 360 OFFCURVE",
"308 461 OFFCURVE",
"201 461 CURVE SMOOTH",
"102 461 OFFCURVE",
"39 393 OFFCURVE",
"39 291 CURVE SMOOTH",
"39 148 OFFCURVE",
"169 6 OFFCURVE",
"235 6 CURVE SMOOTH",
"254 6 OFFCURVE",
"266 16 OFFCURVE",
"273 29 CURVE",
"212 93 OFFCURVE",
"169 171 OFFCURVE",
"169 252 CURVE SMOOTH",
"169 312 OFFCURVE",
"201 354 OFFCURVE"
);
}
);
width = 747;
}
);
unicode = 0932;
},
{
glyphname = dvLLA;
layers = (
{
anchors = (
{
name = abvm.bindu;
position = "{362, 669}";
},
{
name = abvm.e;
position = "{527, 669}";
},
{
name = blwm.r;
position = "{585, -30}";
},
{
name = blwm.u;
position = "{507, 18}";
},
{
name = blwm.uu;
position = "{507, 17}";
},
{
name = blwm.virama;
position = "{566, 88}";
}
);
layerId = "A7C7F4A0-D38E-458B-B20F-CA7152D87AAE";
name = Bold;
paths = (
{
closed = 1;
nodes = (
"527 431 LINE",
"527 483 OFFCURVE",
"524 570 OFFCURVE",
"433 570 CURVE SMOOTH",
"418 570 OFFCURVE",
"404 564 OFFCURVE",
"394 552 CURVE",
"416 527 OFFCURVE",
"416 479 OFFCURVE",
"416 440 CURVE"
);
},
{
closed = 1;
nodes = (
"317 369 LINE",
"295 433 OFFCURVE",
"238 466 OFFCURVE",
"177 466 CURVE SMOOTH",
"79 466 OFFCURVE",
"25 390 OFFCURVE",
"25 310 CURVE SMOOTH",
"25 209 OFFCURVE",
"115 88 OFFCURVE",
"230 88 CURVE SMOOTH",
"411 88 OFFCURVE",
"376 363 OFFCURVE",
"499 363 CURVE SMOOTH",
"527 363 OFFCURVE",
"563 343 OFFCURVE",
"563 300 CURVE SMOOTH",
"563 240 OFFCURVE",
"503 207 OFFCURVE",
"439 207 CURVE SMOOTH",
"412 207 OFFCURVE",
"391 211 OFFCURVE",
"373 217 CURVE",
"367 185 LINE",
"389 121 OFFCURVE",
"446 88 OFFCURVE",
"507 88 CURVE SMOOTH",
"605 88 OFFCURVE",
"659 164 OFFCURVE",
"659 244 CURVE SMOOTH",
"659 345 OFFCURVE",
"569 466 OFFCURVE",
"454 466 CURVE SMOOTH",
"273 466 OFFCURVE",
"308 191 OFFCURVE",
"185 191 CURVE SMOOTH",
"157 191 OFFCURVE",
"121 211 OFFCURVE",
"121 254 CURVE SMOOTH",
"121 314 OFFCURVE",
"181 347 OFFCURVE",
"245 347 CURVE SMOOTH",
"272 347 OFFCURVE",
"293 343 OFFCURVE",
"311 337 CURVE"
);
},
{
closed = 1;
nodes = (
"-75 669 LINE",
"-78 663 OFFCURVE",
"-80 650 OFFCURVE",
"-80 642 CURVE SMOOTH",
"-80 552 OFFCURVE",
"10 552 OFFCURVE",
"46 552 CURVE SMOOTH",
"736 552 LINE",
"739 558 OFFCURVE",
"743 572 OFFCURVE",
"743 584 CURVE SMOOTH",
"743 669 OFFCURVE",
"653 669 OFFCURVE",
"617 669 CURVE SMOOTH"
);
}
);
width = 693;
}
);
unicode = 0933;
},
{
glyphname = dvVA;
layers = (
{
layerId = "A7C7F4A0-D38E-458B-B20F-CA7152D87AAE";
name = Bold;
paths = (
{
closed = 1;
nodes = (
"-75 669 LINE",
"-78 663 OFFCURVE",
"-80 650 OFFCURVE",
"-80 642 CURVE SMOOTH",
"-80 552 OFFCURVE",
"10 552 OFFCURVE",
"46 552 CURVE SMOOTH",
"624 552 LINE",
"627 558 OFFCURVE",
"631 572 OFFCURVE",
"631 584 CURVE SMOOTH",
"631 669 OFFCURVE",
"541 669 OFFCURVE",
"505 669 CURVE SMOOTH"
);
},
{
closed = 1;
nodes = (
"374 368 LINE",
"351 291 OFFCURVE",
"294 225 OFFCURVE",
"214 225 CURVE SMOOTH",
"171 225 OFFCURVE",
"134 255 OFFCURVE",
"134 295 CURVE SMOOTH",
"134 343 OFFCURVE",
"174 367 OFFCURVE",
"214 367 CURVE SMOOTH",
"250 367 OFFCURVE",
"272 354 OFFCURVE",
"280 349 CURVE",
"290 362 OFFCURVE",
"295 383 OFFCURVE",
"295 399 CURVE SMOOTH",
"295 456 OFFCURVE",
"237 489 OFFCURVE",
"175 489 CURVE SMOOTH",
"104 489 OFFCURVE",
"29 446 OFFCURVE",
"29 348 CURVE SMOOTH",
"29 255 OFFCURVE",
"137 118 OFFCURVE",
"267 118 CURVE SMOOTH",
"322 118 OFFCURVE",
"374 142 OFFCURVE",
"400 186 CURVE",
"387 184 LINE",
"373 164 OFFCURVE",
"364 133 OFFCURVE",
"364 102 CURVE SMOOTH",
"364 48 OFFCURVE",
"391 -7 OFFCURVE",
"464 -7 CURVE SMOOTH",
"475 -7 OFFCURVE",
"491 -6 OFFCURVE",
"506 0 CURVE",
"495 18 OFFCURVE",
"491 69 OFFCURVE",
"491 105 CURVE SMOOTH",
"491 208 OFFCURVE",
"496 322 OFFCURVE",
"496 431 CURVE SMOOTH",
"496 483 OFFCURVE",
"493 570 OFFCURVE",
"393 570 CURVE SMOOTH",
"375 570 OFFCURVE",
"358 564 OFFCURVE",
"348 552 CURVE",
"363 529 OFFCURVE",
"363 485 OFFCURVE",
"363 448 CURVE SMOOTH",
"363 389 OFFCURVE",
"362 343 OFFCURVE",
"361 303 CURVE"
);
}
);
width = 568;
}
);
unicode = 0935;
},
{
glyphname = dvSHA;
layers = (
{
layerId = "A7C7F4A0-D38E-458B-B20F-CA7152D87AAE";
name = Bold;
paths = (
{
closed = 1;
nodes = (
"130 257 LINE",
"162 161 OFFCURVE",
"227 -10 OFFCURVE",
"358 -10 CURVE SMOOTH",
"414 -10 OFFCURVE",
"434 29 OFFCURVE",
"434 61 CURVE SMOOTH",
"434 79 OFFCURVE",
"430 97 OFFCURVE",
"423 111 CURVE",
"406 107 OFFCURVE",
"391 106 OFFCURVE",
"376 106 CURVE SMOOTH",
"275 106 OFFCURVE",
"225 188 OFFCURVE",
"198 288 CURVE"
);
},
{
closed = 1;
nodes = (
"280 562 CURVE SMOOTH",
"313 562 OFFCURVE",
"330 519 OFFCURVE",
"330 480 CURVE SMOOTH",
"330 380 OFFCURVE",
"265 319 OFFCURVE",
"187 318 CURVE",
"174 352 OFFCURVE",
"144 411 OFFCURVE",
"90 411 CURVE SMOOTH",
"53 411 OFFCURVE",
"30 382 OFFCURVE",
"30 351 CURVE SMOOTH",
"30 268 OFFCURVE",
"129 207 OFFCURVE",
"221 207 CURVE SMOOTH",
"331 207 OFFCURVE",
"435 268 OFFCURVE",
"435 418 CURVE SMOOTH",
"435 514 OFFCURVE",
"361 668 OFFCURVE",
"233 668 CURVE SMOOTH",
"163 668 OFFCURVE",
"122 611 OFFCURVE",
"122 545 CURVE SMOOTH",
"122 457 OFFCURVE",
"194 394 OFFCURVE",
"246 394 CURVE SMOOTH",
"262 394 OFFCURVE",
"276 400 OFFCURVE",
"285 412 CURVE",
"257 431 OFFCURVE",
"238 474 OFFCURVE",
"238 505 CURVE SMOOTH",
"238 537 OFFCURVE",
"252 562 OFFCURVE"
);
},
{
closed = 1;
nodes = (
"520 447 CURVE SMOOTH",
"520 293 OFFCURVE",
"515 223 OFFCURVE",
"515 145 CURVE SMOOTH",
"515 102 OFFCURVE",
"517 -7 OFFCURVE",
"621 -7 CURVE SMOOTH",
"632 -7 OFFCURVE",
"648 -6 OFFCURVE",
"663 0 CURVE",
"652 18 OFFCURVE",
"648 69 OFFCURVE",
"648 105 CURVE SMOOTH",
"648 208 OFFCURVE",
"653 322 OFFCURVE",
"653 431 CURVE SMOOTH",
"653 483 OFFCURVE",
"649 570 OFFCURVE",
"549 570 CURVE",
"577 552 LINE",
"781 552 LINE",
"784 558 OFFCURVE",
"788 572 OFFCURVE",
"788 584 CURVE SMOOTH",
"788 669 OFFCURVE",
"698 669 OFFCURVE",
"662 669 CURVE SMOOTH",
"456 669 LINE",
"453 663 OFFCURVE",
"451 650 OFFCURVE",
"451 642 CURVE SMOOTH",
"451 613 OFFCURVE",
"462 592 OFFCURVE",
"483 571 CURVE SMOOTH",
"513 543 OFFCURVE",
"520 536 OFFCURVE"
);
}
);
width = 725;
}
);
unicode = 0936;
},
{
glyphname = dvSSA;
layers = (
{
layerId = "A7C7F4A0-D38E-458B-B20F-CA7152D87AAE";
name = Bold;
paths = (
{
closed = 1;
nodes = (
"38 552 CURVE",
"47 538 OFFCURVE",
"50 525 OFFCURVE",
"52 491 CURVE SMOOTH",
"53 467 OFFCURVE",
"53 432 OFFCURVE",
"53 379 CURVE SMOOTH",
"53 287 OFFCURVE",
"179 161 OFFCURVE",
"297 161 CURVE SMOOTH",
"353 161 OFFCURVE",
"397 193 OFFCURVE",
"409 205 CURVE",
"384 205 LINE",
"374 182 OFFCURVE",
"367 150 OFFCURVE",
"367 118 CURVE SMOOTH",
"367 56 OFFCURVE",
"393 -7 OFFCURVE",
"471 -7 CURVE SMOOTH",
"482 -7 OFFCURVE",
"498 -6 OFFCURVE",
"513 0 CURVE",
"502 18 OFFCURVE",
"498 69 OFFCURVE",
"498 105 CURVE SMOOTH",
"498 208 OFFCURVE",
"503 322 OFFCURVE",
"503 431 CURVE SMOOTH",
"503 483 OFFCURVE",
"500 570 OFFCURVE",
"400 570 CURVE SMOOTH",
"382 570 OFFCURVE",
"365 564 OFFCURVE",
"355 552 CURVE",
"370 529 OFFCURVE",
"370 485 OFFCURVE",
"370 448 CURVE SMOOTH",
"370 359 OFFCURVE",
"368 298 OFFCURVE",
"367 247 CURVE",
"392 367 LINE",
"372 305 OFFCURVE",
"308 259 OFFCURVE",
"250 259 CURVE SMOOTH",
"193 259 OFFCURVE",
"182 295 OFFCURVE",
"182 350 CURVE SMOOTH",
"182 374 OFFCURVE",
"183 386 OFFCURVE",
"183 415 CURVE SMOOTH",
"183 439 OFFCURVE",
"179 466 OFFCURVE",
"164 491 CURVE",
"122 514 LINE",
"219 438 OFFCURVE",
"333 335 OFFCURVE",
"375 293 CURVE",
"380 369 LINE",
"251 484 OFFCURVE",
"188 561 OFFCURVE",
"96 561 CURVE SMOOTH",
"78 561 OFFCURVE",
"59 558 OFFCURVE"
);
},
{
closed = 1;
nodes = (
"-70 669 LINE",
"-73 663 OFFCURVE",
"-75 650 OFFCURVE",
"-75 642 CURVE SMOOTH",
"-75 552 OFFCURVE",
"15 552 OFFCURVE",
"51 552 CURVE SMOOTH",
"632 552 LINE",
"635 558 OFFCURVE",
"639 572 OFFCURVE",
"639 584 CURVE SMOOTH",
"639 669 OFFCURVE",
"549 669 OFFCURVE",
"513 669 CURVE SMOOTH"
);
}
);
width = 576;
}
);
unicode = 0937;
},
{
glyphname = dvSA;
layers = (
{
layerId = "A7C7F4A0-D38E-458B-B20F-CA7152D87AAE";
name = Bold;
paths = (
{
closed = 1;
nodes = (
"-69 669 LINE",
"-72 663 OFFCURVE",
"-74 650 OFFCURVE",
"-74 642 CURVE SMOOTH",
"-74 552 OFFCURVE",
"16 552 OFFCURVE",
"52 552 CURVE SMOOTH",
"800 552 LINE",
"803 558 OFFCURVE",
"807 572 OFFCURVE",
"807 584 CURVE SMOOTH",
"807 669 OFFCURVE",
"717 669 OFFCURVE",
"681 669 CURVE SMOOTH"
);
},
{
closed = 1;
nodes = (
"327 278 LINE",
"372 250 OFFCURVE",
"435 234 OFFCURVE",
"493 234 CURVE SMOOTH",
"525 234 OFFCURVE",
"549 236 OFFCURVE",
"570 244 CURVE",
"563 388 LINE",
"514 353 OFFCURVE",
"458 339 OFFCURVE",
"404 339 CURVE SMOOTH",
"379 339 OFFCURVE",
"353 343 OFFCURVE",
"329 351 CURVE"
);
},
{
closed = 1;
nodes = (
"539 448 CURVE SMOOTH",
"539 294 OFFCURVE",
"534 223 OFFCURVE",
"534 145 CURVE SMOOTH",
"534 102 OFFCURVE",
"536 -7 OFFCURVE",
"640 -7 CURVE SMOOTH",
"651 -7 OFFCURVE",
"667 -6 OFFCURVE",
"682 0 CURVE",
"671 18 OFFCURVE",
"667 69 OFFCURVE",
"667 105 CURVE SMOOTH",
"667 208 OFFCURVE",
"672 322 OFFCURVE",
"672 431 CURVE SMOOTH",
"672 483 OFFCURVE",
"669 570 OFFCURVE",
"569 570 CURVE SMOOTH",
"551 570 OFFCURVE",
"534 564 OFFCURVE",
"524 552 CURVE",
"539 529 OFFCURVE",
"539 485 OFFCURVE"
);
},
{
closed = 1;
nodes = (
"105 260 LINE",
"132 163 OFFCURVE",
"185 -10 OFFCURVE",
"300 -10 CURVE SMOOTH",
"356 -10 OFFCURVE",
"376 29 OFFCURVE",
"376 61 CURVE SMOOTH",
"376 78 OFFCURVE",
"372 96 OFFCURVE",
"366 109 CURVE",
"356 106 OFFCURVE",
"344 105 OFFCURVE",
"334 105 CURVE SMOOTH",
"229 105 OFFCURVE",
"200 190 OFFCURVE",
"178 274 CURVE"
);
},
{
closed = 1;
nodes = (
"165 323 LINE",
"150 382 OFFCURVE",
"130 431 OFFCURVE",
"79 431 CURVE SMOOTH",
"36 431 OFFCURVE",
"16 394 OFFCURVE",
"16 361 CURVE SMOOTH",
"16 272 OFFCURVE",
"115 216 OFFCURVE",
"189 216 CURVE SMOOTH",
"292 216 OFFCURVE",
"364 287 OFFCURVE",
"364 387 CURVE SMOOTH",
"364 466 OFFCURVE",
"318 539 OFFCURVE",
"266 584 CURVE",
"199 557 LINE",
"233 537 OFFCURVE",
"251 494 OFFCURVE",
"251 452 CURVE SMOOTH",
"251 398 OFFCURVE",
"221 346 OFFCURVE",
"155 346 CURVE SMOOTH",
"147 346 LINE"
);
}
);
width = 744;
}
);
unicode = 0938;
},
{
glyphname = dvHA;
layers = (
{
anchors = (
{
name = abvm.bindu;
position = "{199, 669}";
},
{
name = abvm.e;
position = "{388, 669}";
},
{
name = blwm.u;
position = "{348, -60}";
},
{
name = blwm.uu;
position = "{323, -56}";
},
{
name = blwm.virama;
position = "{383, -116}";
}
);
layerId = "A7C7F4A0-D38E-458B-B20F-CA7152D87AAE";
name = Bold;
paths = (
{
closed = 1;
nodes = (
"189 253 LINE",
"172 271 OFFCURVE",
"159 295 OFFCURVE",
"159 318 CURVE SMOOTH",
"159 344 OFFCURVE",
"175 366 OFFCURVE",
"224 366 CURVE SMOOTH",
"254 366 OFFCURVE",
"282 365 OFFCURVE",
"313 365 CURVE SMOOTH",
"387 365 OFFCURVE",
"422 406 OFFCURVE",
"422 453 CURVE SMOOTH",
"422 492 OFFCURVE",
"399 537 OFFCURVE",
"354 568 CURVE",
"284 553 LINE",
"305 544 OFFCURVE",
"318 525 OFFCURVE",
"318 509 CURVE SMOOTH",
"318 494 OFFCURVE",
"306 481 OFFCURVE",
"280 481 CURVE SMOOTH",
"242 481 OFFCURVE",
"222 482 OFFCURVE",
"192 482 CURVE SMOOTH",
"93 482 OFFCURVE",
"52 431 OFFCURVE",
"52 370 CURVE SMOOTH",
"52 319 OFFCURVE",
"83 262 OFFCURVE",
"133 221 CURVE"
);
},
{
closed = 1;
nodes = (
"-65 669 LINE",
"-68 663 OFFCURVE",
"-70 650 OFFCURVE",
"-70 642 CURVE SMOOTH",
"-70 552 OFFCURVE",
"20 552 OFFCURVE",
"56 552 CURVE SMOOTH",
"556 552 LINE",
"559 558 OFFCURVE",
"563 572 OFFCURVE",
"563 584 CURVE SMOOTH",
"563 669 OFFCURVE",
"473 669 OFFCURVE",
"437 669 CURVE SMOOTH"
);
},
{
closed = 1;
nodes = (
"277 103 CURVE",
"284 52 OFFCURVE",
"328 27 OFFCURVE",
"370 27 CURVE SMOOTH",
"421 27 OFFCURVE",
"462 65 OFFCURVE",
"462 120 CURVE SMOOTH",
"462 199 OFFCURVE",
"371 298 OFFCURVE",
"249 298 CURVE SMOOTH",
"152 298 OFFCURVE",
"61 240 OFFCURVE",
"61 132 CURVE SMOOTH",
"61 -3 OFFCURVE",
"196 -116 OFFCURVE",
"348 -116 CURVE SMOOTH",
"400 -116 OFFCURVE",
"426 -93 OFFCURVE",
"426 -65 CURVE SMOOTH",
"426 -57 OFFCURVE",
"423 -44 OFFCURVE",
"419 -36 CURVE",
"400 -40 OFFCURVE",
"381 -42 OFFCURVE",
"362 -42 CURVE SMOOTH",
"273 -42 OFFCURVE",
"180 5 OFFCURVE",
"180 90 CURVE SMOOTH",
"180 160 OFFCURVE",
"246 202 OFFCURVE",
"302 202 CURVE SMOOTH",
"336 202 OFFCURVE",
"354 185 OFFCURVE",
"354 163 CURVE SMOOTH",
"354 135 OFFCURVE",
"326 110 OFFCURVE"
);
}
);
width = 491;
}
);
unicode = 0939;
},
{
glyphname = dvmAA;
layers = (
{
layerId = "A7C7F4A0-D38E-458B-B20F-CA7152D87AAE";
name = Bold;
paths = (
{
closed = 1;
nodes = (
"-78 669 LINE",
"-81 663 OFFCURVE",
"-83 650 OFFCURVE",
"-83 642 CURVE SMOOTH",
"-83 552 OFFCURVE",
"7 552 OFFCURVE",
"43 552 CURVE SMOOTH",
"339 552 LINE",
"342 558 OFFCURVE",
"346 572 OFFCURVE",
"346 584 CURVE SMOOTH",
"346 669 OFFCURVE",
"256 669 OFFCURVE",
"220 669 CURVE SMOOTH"
);
},
{
closed = 1;
nodes = (
"78 448 CURVE SMOOTH",
"78 294 OFFCURVE",
"73 223 OFFCURVE",
"73 145 CURVE SMOOTH",
"73 102 OFFCURVE",
"75 -7 OFFCURVE",
"179 -7 CURVE SMOOTH",
"190 -7 OFFCURVE",
"206 -6 OFFCURVE",
"221 0 CURVE",
"210 18 OFFCURVE",
"206 69 OFFCURVE",
"206 105 CURVE SMOOTH",
"206 208 OFFCURVE",
"211 322 OFFCURVE",
"211 431 CURVE SMOOTH",
"211 483 OFFCURVE",
"208 570 OFFCURVE",
"108 570 CURVE SMOOTH",
"90 570 OFFCURVE",
"73 564 OFFCURVE",
"63 552 CURVE",
"78 529 OFFCURVE",
"78 485 OFFCURVE"
);
}
);
width = 283;
}
);
unicode = 093E;
},
{
glyphname = dvmI;
layers = (
{
layerId = "A7C7F4A0-D38E-458B-B20F-CA7152D87AAE";
name = Bold;
paths = (
{
closed = 1;
nodes = (
"-78 669 LINE",
"-81 663 OFFCURVE",
"-83 650 OFFCURVE",
"-83 642 CURVE SMOOTH",
"-83 552 OFFCURVE",
"7 552 OFFCURVE",
"43 552 CURVE SMOOTH",
"339 552 LINE",
"342 558 OFFCURVE",
"346 572 OFFCURVE",
"346 584 CURVE SMOOTH",
"346 669 OFFCURVE",
"256 669 OFFCURVE",
"220 669 CURVE SMOOTH"
);
},
{
closed = 1;
nodes = (
"78 458 CURVE SMOOTH",
"78 304 OFFCURVE",
"73 229 OFFCURVE",
"73 145 CURVE SMOOTH",
"73 102 OFFCURVE",
"75 -7 OFFCURVE",
"179 -7 CURVE SMOOTH",
"190 -7 OFFCURVE",
"206 -6 OFFCURVE",
"221 0 CURVE",
"210 18 OFFCURVE",
"206 69 OFFCURVE",
"206 105 CURVE SMOOTH",
"206 239 OFFCURVE",
"211 336 OFFCURVE",
"211 454 CURVE SMOOTH",
"211 594 OFFCURVE",
"152 617 OFFCURVE",
"152 733 CURVE SMOOTH",
"152 817 OFFCURVE",
"218 844 OFFCURVE",
"286 844 CURVE SMOOTH",
"386 844 OFFCURVE",
"531 802 OFFCURVE",
"672 705 CURVE",
"687 712 OFFCURVE",
"696 725 OFFCURVE",
"696 739 CURVE SMOOTH",
"696 796 OFFCURVE",
"461 962 OFFCURVE",
"224 962 CURVE SMOOTH",
"114 962 OFFCURVE",
"31 903 OFFCURVE",
"31 801 CURVE SMOOTH",
"31 714 OFFCURVE",
"78 662 OFFCURVE"
);
}
);
width = 283;
}
);
unicode = 093F;
},
{
glyphname = dvmII;
layers = (
{
layerId = "A7C7F4A0-D38E-458B-B20F-CA7152D87AAE";
name = Bold;
paths = (
{
closed = 1;
nodes = (
"-78 669 LINE",
"-81 663 OFFCURVE",
"-83 650 OFFCURVE",
"-83 642 CURVE SMOOTH",
"-83 552 OFFCURVE",
"7 552 OFFCURVE",
"43 552 CURVE SMOOTH",
"339 552 LINE",
"342 558 OFFCURVE",
"346 572 OFFCURVE",
"346 584 CURVE SMOOTH",
"346 669 OFFCURVE",
"256 669 OFFCURVE",
"220 669 CURVE SMOOTH"
);
},
{
closed = 1;
nodes = (
"78 469 CURVE SMOOTH",
"78 304 OFFCURVE",
"73 228 OFFCURVE",
"73 145 CURVE SMOOTH",
"73 102 OFFCURVE",
"75 -7 OFFCURVE",
"179 -7 CURVE SMOOTH",
"190 -7 OFFCURVE",
"206 -6 OFFCURVE",
"221 0 CURVE",
"210 18 OFFCURVE",
"206 69 OFFCURVE",
"206 105 CURVE SMOOTH",
"206 214 OFFCURVE",
"211 337 OFFCURVE",
"211 453 CURVE SMOOTH",
"211 686 OFFCURVE",
"86 962 OFFCURVE",
"-112 962 CURVE SMOOTH",
"-189 962 OFFCURVE",
"-247 909 OFFCURVE",
"-247 830 CURVE SMOOTH",
"-247 770 OFFCURVE",
"-207 706 OFFCURVE",
"-149 706 CURVE SMOOTH",
"-138 706 OFFCURVE",
"-127 708 OFFCURVE",
"-118 714 CURVE",
"-129 731 OFFCURVE",
"-134 750 OFFCURVE",
"-134 769 CURVE SMOOTH",
"-134 811 OFFCURVE",
"-107 850 OFFCURVE",
"-58 850 CURVE SMOOTH",
"41 850 OFFCURVE",
"78 720 OFFCURVE"
);
}
);
width = 283;
}
);
unicode = 0940;
},
{
glyphname = dvmU;
layers = (
{
anchors = (
{
name = _blwm.u;
position = "{-62, 0}";
}
);
layerId = "A7C7F4A0-D38E-458B-B20F-CA7152D87AAE";
name = Bold;
paths = (
{
closed = 1;
nodes = (
"-123 -275 CURVE SMOOTH",
"-36 -275 OFFCURVE",
"28 -219 OFFCURVE",
"28 -144 CURVE SMOOTH",
"28 -50 OFFCURVE",
"-66 26 OFFCURVE",
"-148 26 CURVE SMOOTH",
"-207 26 OFFCURVE",
"-239 -11 OFFCURVE",
"-239 -50 CURVE SMOOTH",
"-239 -85 OFFCURVE",
"-214 -121 OFFCURVE",
"-168 -125 CURVE",
"-159 -96 OFFCURVE",
"-131 -72 OFFCURVE",
"-98 -72 CURVE SMOOTH",
"-78 -72 OFFCURVE",
"-66 -85 OFFCURVE",
"-66 -101 CURVE SMOOTH",
"-66 -137 OFFCURVE",
"-104 -169 OFFCURVE",
"-171 -169 CURVE SMOOTH",
"-241 -169 OFFCURVE",
"-331 -125 OFFCURVE",
"-404 -41 CURVE",
"-410 -43 OFFCURVE",
"-431 -54 OFFCURVE",
"-431 -83 CURVE SMOOTH",
"-431 -144 OFFCURVE",
"-272 -275 OFFCURVE"
);
}
);
width = 0;
}
);
unicode = 0941;
},
{
glyphname = dvmUU;
layers = (
{
anchors = (
{
name = _blwm.uu;
position = "{-62, 0}";
}
);
layerId = "A7C7F4A0-D38E-458B-B20F-CA7152D87AAE";
name = Bold;
paths = (
{
closed = 1;
nodes = (
"-293 -105 CURVE SMOOTH",
"-293 -199 OFFCURVE",
"-199 -275 OFFCURVE",
"-117 -275 CURVE SMOOTH",
"-58 -275 OFFCURVE",
"-26 -238 OFFCURVE",
"-26 -199 CURVE SMOOTH",
"-26 -164 OFFCURVE",
"-51 -128 OFFCURVE",
"-97 -124 CURVE",
"-106 -153 OFFCURVE",
"-134 -177 OFFCURVE",
"-167 -177 CURVE SMOOTH",
"-187 -177 OFFCURVE",
"-199 -164 OFFCURVE",
"-199 -148 CURVE SMOOTH",
"-199 -114 OFFCURVE",
"-165 -80 OFFCURVE",
"-104 -80 CURVE SMOOTH",
"11 -80 OFFCURVE",
"98 -191 OFFCURVE",
"137 -257 CURVE",
"146 -256 OFFCURVE",
"172 -244 OFFCURVE",
"172 -215 CURVE SMOOTH",
"172 -139 OFFCURVE",
"18 26 OFFCURVE",
"-138 26 CURVE SMOOTH",
"-224 26 OFFCURVE",
"-293 -25 OFFCURVE"
);
}
);
width = 0;
}
);
unicode = 0942;
},
{
glyphname = dvmvR;
layers = (
{
anchors = (
{
name = _blwm.r;
position = "{-62, 0}";
}
);
layerId = "A7C7F4A0-D38E-458B-B20F-CA7152D87AAE";
name = Bold;
paths = (
{
closed = 1;
nodes = (
"-321 -58 CURVE SMOOTH",
"-321 -173 OFFCURVE",
"-198 -258 OFFCURVE",
"-109 -258 CURVE SMOOTH",
"-4 -258 OFFCURVE",
"50 -202 OFFCURVE",
"50 -150 CURVE SMOOTH",
"50 -98 OFFCURVE",
"7 -66 OFFCURVE",
"-35 -61 CURVE",
"-47 -118 OFFCURVE",
"-94 -163 OFFCURVE",
"-151 -163 CURVE SMOOTH",
"-189 -163 OFFCURVE",
"-214 -140 OFFCURVE",
"-214 -104 CURVE SMOOTH",
"-214 -58 OFFCURVE",
"-170 -12 OFFCURVE",
"-103 -7 CURVE",
"-103 56 OFFCURVE",
"-150 81 OFFCURVE",
"-189 81 CURVE SMOOTH",
"-253 81 OFFCURVE",
"-321 34 OFFCURVE"
);
}
);
width = 0;
}
);
unicode = 0943;
},
{
glyphname = dvVirama;
layers = (
{
anchors = (
{
name = _blwm.virama;
position = "{-62, 0}";
}
);
layerId = "A7C7F4A0-D38E-458B-B20F-CA7152D87AAE";
name = Bold;
paths = (
{
closed = 1;
nodes = (
"-234 -164 CURVE",
"-212 -156 OFFCURVE",
"-190 -152 OFFCURVE",
"-170 -152 CURVE SMOOTH",
"-81 -152 OFFCURVE",
"-12 -220 OFFCURVE",
"37 -286 CURVE",
"57 -280 OFFCURVE",
"60 -267 OFFCURVE",
"60 -256 CURVE SMOOTH",
"60 -198 OFFCURVE",
"-54 -47 OFFCURVE",
"-159 -47 CURVE SMOOTH",
"-213 -47 OFFCURVE",
"-245 -82 OFFCURVE",
"-245 -123 CURVE SMOOTH",
"-245 -137 OFFCURVE",
"-242 -150 OFFCURVE"
);
}
);
width = 0;
}
);
unicode = 094D;
},
{
glyphname = dvOm;
layers = (
{
layerId = "A7C7F4A0-D38E-458B-B20F-CA7152D87AAE";
name = Bold;
paths = (
{
closed = 1;
nodes = (
"384 274 LINE",
"395 260 OFFCURVE",
"436 222 OFFCURVE",
"490 222 CURVE SMOOTH",
"642 222 OFFCURVE",
"619 451 OFFCURVE",
"706 451 CURVE SMOOTH",
"753 451 OFFCURVE",
"765 403 OFFCURVE",
"765 371 CURVE SMOOTH",
"765 272 OFFCURVE",
"708 168 OFFCURVE",
"604 168 CURVE",
"604 103 OFFCURVE",
"647 72 OFFCURVE",
"699 72 CURVE SMOOTH",
"797 72 OFFCURVE",
"877 164 OFFCURVE",
"877 297 CURVE SMOOTH",
"877 419 OFFCURVE",
"773 562 OFFCURVE",
"659 562 CURVE SMOOTH",
"503 562 OFFCURVE",
"531 316 OFFCURVE",
"428 316 CURVE SMOOTH",
"360 316 OFFCURVE",
"328 418 OFFCURVE",
"216 418 CURVE SMOOTH",
"176 418 OFFCURVE",
"140 396 OFFCURVE",
"140 356 CURVE SMOOTH",
"140 297 OFFCURVE",
"204 273 OFFCURVE",
"252 273 CURVE SMOOTH",
"277 273 OFFCURVE",
"302 277 OFFCURVE",
"323 285 CURVE",
"331 281 OFFCURVE",
"353 259 OFFCURVE",
"353 225 CURVE SMOOTH",
"353 171 OFFCURVE",
"309 143 OFFCURVE",
"260 143 CURVE SMOOTH",
"162 143 OFFCURVE",
"91 229 OFFCURVE",
"52 306 CURVE",
"39 302 OFFCURVE",
"10 293 OFFCURVE",
"10 257 CURVE SMOOTH",
"10 201 OFFCURVE",
"130 26 OFFCURVE",
"296 26 CURVE SMOOTH",
"404 26 OFFCURVE",
"458 92 OFFCURVE",
"458 169 CURVE SMOOTH",
"458 204 OFFCURVE",
"447 240 OFFCURVE",
"428 273 CURVE"
);
},
{
closed = 1;
nodes = (
"495 787 CURVE SMOOTH",
"535 787 OFFCURVE",
"562 817 OFFCURVE",
"562 854 CURVE SMOOTH",
"562 903 OFFCURVE",
"516 947 OFFCURVE",
"469 947 CURVE SMOOTH",
"429 947 OFFCURVE",
"402 918 OFFCURVE",
"402 880 CURVE SMOOTH",
"402 831 OFFCURVE",
"446 787 OFFCURVE"
);
},
{
closed = 1;
nodes = (
"322 807 CURVE",
"301 796 OFFCURVE",
"294 779 OFFCURVE",
"294 763 CURVE SMOOTH",
"294 701 OFFCURVE",
"400 621 OFFCURVE",
"530 621 CURVE SMOOTH",
"598 621 OFFCURVE",
"705 658 OFFCURVE",
"705 739 CURVE SMOOTH",
"705 781 OFFCURVE",
"668 812 OFFCURVE",
"635 814 CURVE",
"605 751 OFFCURVE",
"543 724 OFFCURVE",
"484 724 CURVE SMOOTH",
"421 724 OFFCURVE",
"363 751 OFFCURVE"
);
},
{
closed = 1;
nodes = (
"360 305 LINE",
"391 324 OFFCURVE",
"431 361 OFFCURVE",
"431 432 CURVE SMOOTH",
"431 546 OFFCURVE",
"335 637 OFFCURVE",
"221 637 CURVE SMOOTH",
"164 637 OFFCURVE",
"95 611 OFFCURVE",
"95 552 CURVE SMOOTH",
"95 527 OFFCURVE",
"109 500 OFFCURVE",
"136 482 CURVE",
"170 510 OFFCURVE",
"226 530 OFFCURVE",
"269 530 CURVE SMOOTH",
"307 530 OFFCURVE",
"336 515 OFFCURVE",
"336 482 CURVE SMOOTH",
"336 451 OFFCURVE",
"305 406 OFFCURVE",
"232 381 CURVE"
);
}
);
width = 917;
}
);
unicode = 0950;
},
{
glyphname = danda;
layers = (
{
layerId = "A7C7F4A0-D38E-458B-B20F-CA7152D87AAE";
name = Bold;
paths = (
{
closed = 1;
nodes = (
"396 522 CURVE SMOOTH",
"396 565 OFFCURVE",
"394 674 OFFCURVE",
"290 674 CURVE SMOOTH",
"279 674 OFFCURVE",
"263 673 OFFCURVE",
"248 667 CURVE",
"263 644 OFFCURVE",
"263 600 OFFCURVE",
"263 563 CURVE SMOOTH",
"263 311 OFFCURVE",
"258 253 OFFCURVE",
"258 145 CURVE SMOOTH",
"258 102 OFFCURVE",
"260 -7 OFFCURVE",
"364 -7 CURVE SMOOTH",
"375 -7 OFFCURVE",
"391 -6 OFFCURVE",
"406 0 CURVE",
"395 18 OFFCURVE",
"391 69 OFFCURVE",
"391 105 CURVE SMOOTH",
"391 236 OFFCURVE",
"396 382 OFFCURVE"
);
}
);
width = 606;
}
);
unicode = 0964;
},
{
glyphname = doubledanda;
layers = (
{
layerId = "A7C7F4A0-D38E-458B-B20F-CA7152D87AAE";
name = Bold;
paths = (
{
closed = 1;
nodes = (
"396 522 CURVE SMOOTH",
"396 565 OFFCURVE",
"394 674 OFFCURVE",
"290 674 CURVE SMOOTH",
"279 674 OFFCURVE",
"263 673 OFFCURVE",
"248 667 CURVE",
"263 644 OFFCURVE",
"263 600 OFFCURVE",
"263 563 CURVE SMOOTH",
"263 311 OFFCURVE",
"258 253 OFFCURVE",
"258 145 CURVE SMOOTH",
"258 102 OFFCURVE",
"260 -7 OFFCURVE",
"364 -7 CURVE SMOOTH",
"375 -7 OFFCURVE",
"391 -6 OFFCURVE",
"406 0 CURVE",
"395 18 OFFCURVE",
"391 69 OFFCURVE",
"391 105 CURVE SMOOTH",
"391 236 OFFCURVE",
"396 382 OFFCURVE"
);
},
{
closed = 1;
nodes = (
"646 522 CURVE SMOOTH",
"646 565 OFFCURVE",
"644 674 OFFCURVE",
"540 674 CURVE SMOOTH",
"529 674 OFFCURVE",
"513 673 OFFCURVE",
"498 667 CURVE",
"513 644 OFFCURVE",
"513 600 OFFCURVE",
"513 563 CURVE SMOOTH",
"513 311 OFFCURVE",
"508 253 OFFCURVE",
"508 145 CURVE SMOOTH",
"508 102 OFFCURVE",
"510 -7 OFFCURVE",
"614 -7 CURVE SMOOTH",
"625 -7 OFFCURVE",
"641 -6 OFFCURVE",
"656 0 CURVE",
"645 18 OFFCURVE",
"641 69 OFFCURVE",
"641 105 CURVE SMOOTH",
"641 236 OFFCURVE",
"646 382 OFFCURVE"
);
}
);
width = 767;
}
);
unicode = 0965;
},
{
glyphname = dvK_SSA;
layers = (
{
layerId = "A7C7F4A0-D38E-458B-B20F-CA7152D87AAE";
name = Bold;
paths = (
{
closed = 1;
nodes = (
"579 326 LINE",
"564 242 OFFCURVE",
"562 199 OFFCURVE",
"562 145 CURVE SMOOTH",
"562 102 OFFCURVE",
"564 -7 OFFCURVE",
"668 -7 CURVE SMOOTH",
"679 -7 OFFCURVE",
"695 -6 OFFCURVE",
"710 0 CURVE",
"699 18 OFFCURVE",
"695 69 OFFCURVE",
"695 105 CURVE SMOOTH",
"695 208 OFFCURVE",
"700 322 OFFCURVE",
"700 431 CURVE SMOOTH",
"700 483 OFFCURVE",
"696 570 OFFCURVE",
"596 570 CURVE",
"624 552 LINE",
"828 552 LINE",
"831 558 OFFCURVE",
"835 572 OFFCURVE",
"835 584 CURVE SMOOTH",
"835 669 OFFCURVE",
"745 669 OFFCURVE",
"709 669 CURVE SMOOTH",
"503 669 LINE",
"500 663 OFFCURVE",
"498 650 OFFCURVE",
"498 642 CURVE SMOOTH",
"498 613 OFFCURVE",
"509 592 OFFCURVE",
"530 571 CURVE SMOOTH",
"560 543 OFFCURVE",
"567 536 OFFCURVE",
"567 447 CURVE SMOOTH",
"567 379 LINE",
"608 462 LINE",
"554 402 OFFCURVE",
"467 374 OFFCURVE",
"385 374 CURVE SMOOTH",
"305 374 OFFCURVE",
"207 426 OFFCURVE",
"207 510 CURVE SMOOTH",
"207 561 OFFCURVE",
"240 593 OFFCURVE",
"275 593 CURVE SMOOTH",
"302 593 OFFCURVE",
"325 573 OFFCURVE",
"325 540 CURVE SMOOTH",
"325 421 OFFCURVE",
"50 420 OFFCURVE",
"50 239 CURVE SMOOTH",
"50 99 OFFCURVE",
"210 8 OFFCURVE",
"319 8 CURVE SMOOTH",
"404 8 OFFCURVE",
"477 46 OFFCURVE",
"477 127 CURVE SMOOTH",
"477 177 OFFCURVE",
"438 223 OFFCURVE",
"392 223 CURVE SMOOTH",
"350 223 OFFCURVE",
"317 192 OFFCURVE",
"317 146 CURVE SMOOTH",
"317 122 OFFCURVE",
"328 99 OFFCURVE",
"342 82 CURVE",
"348 135 LINE",
"327 116 OFFCURVE",
"305 105 OFFCURVE",
"262 105 CURVE SMOOTH",
"208 105 OFFCURVE",
"167 141 OFFCURVE",
"167 188 CURVE SMOOTH",
"167 324 OFFCURVE",
"436 317 OFFCURVE",
"436 499 CURVE SMOOTH",
"436 600 OFFCURVE",
"325 690 OFFCURVE",
"230 690 CURVE SMOOTH",
"158 690 OFFCURVE",
"86 646 OFFCURVE",
"86 556 CURVE SMOOTH",
"86 424 OFFCURVE",
"267 279 OFFCURVE",
"476 279 CURVE SMOOTH",
"534 279 OFFCURVE",
"589 290 OFFCURVE",
"624 318 CURVE"
);
},
{
closed = 1;
nodes = (
"368 17 LINE",
"373 7 OFFCURVE",
"373 -3 OFFCURVE",
"373 -11 CURVE SMOOTH",
"373 -53 OFFCURVE",
"340 -78 OFFCURVE",
"298 -85 CURVE",
"306 -131 OFFCURVE",
"345 -162 OFFCURVE",
"385 -162 CURVE SMOOTH",
"449 -162 OFFCURVE",
"477 -118 OFFCURVE",
"477 -69 CURVE SMOOTH",
"477 -30 OFFCURVE",
"459 8 OFFCURVE",
"427 40 CURVE"
);
}
);
width = 772;
}
);
},
{
glyphname = dvJ_NYA;
layers = (
{
layerId = "A7C7F4A0-D38E-458B-B20F-CA7152D87AAE";
name = Bold;
paths = (
{
closed = 1;
nodes = (
"-75 669 LINE",
"-78 663 OFFCURVE",
"-80 650 OFFCURVE",
"-80 642 CURVE SMOOTH",
"-80 552 OFFCURVE",
"10 552 OFFCURVE",
"46 552 CURVE SMOOTH",
"743 552 LINE",
"746 558 OFFCURVE",
"750 572 OFFCURVE",
"750 584 CURVE SMOOTH",
"750 669 OFFCURVE",
"660 669 OFFCURVE",
"624 669 CURVE SMOOTH"
);
},
{
closed = 1;
nodes = (
"482 448 CURVE SMOOTH",
"482 294 OFFCURVE",
"477 223 OFFCURVE",
"477 145 CURVE SMOOTH",
"477 102 OFFCURVE",
"479 -7 OFFCURVE",
"583 -7 CURVE SMOOTH",
"594 -7 OFFCURVE",
"610 -6 OFFCURVE",
"625 0 CURVE",
"614 18 OFFCURVE",
"610 69 OFFCURVE",
"610 105 CURVE SMOOTH",
"610 208 OFFCURVE",
"615 322 OFFCURVE",
"615 431 CURVE SMOOTH",
"615 483 OFFCURVE",
"612 570 OFFCURVE",
"512 570 CURVE SMOOTH",
"494 570 OFFCURVE",
"477 564 OFFCURVE",
"467 552 CURVE",
"482 529 OFFCURVE",
"482 485 OFFCURVE"
);
},
{
closed = 1;
nodes = (
"596 462 LINE",
"105 462 LINE",
"102 456 OFFCURVE",
"100 443 OFFCURVE",
"100 435 CURVE SMOOTH",
"100 345 OFFCURVE",
"190 345 OFFCURVE",
"226 345 CURVE SMOOTH",
"596 345 LINE"
);
},
{
closed = 1;
nodes = (
"151 183 LINE",
"132 248 OFFCURVE",
"110 273 OFFCURVE",
"71 273 CURVE SMOOTH",
"37 273 OFFCURVE",
"16 243 OFFCURVE",
"16 213 CURVE SMOOTH",
"16 124 OFFCURVE",
"135 84 OFFCURVE",
"200 84 CURVE SMOOTH",
"287 84 OFFCURVE",
"357 139 OFFCURVE",
"357 226 CURVE SMOOTH",
"357 289 OFFCURVE",
"315 347 OFFCURVE",
"268 383 CURVE",
"204 356 LINE",
"233 339 OFFCURVE",
"246 308 OFFCURVE",
"246 277 CURVE SMOOTH",
"246 229 OFFCURVE",
"212 202 OFFCURVE",
"167 202 CURVE SMOOTH",
"156 202 OFFCURVE",
"143 204 OFFCURVE",
"130 207 CURVE"
);
},
{
closed = 1;
nodes = (
"95 129 LINE",
"123 48 OFFCURVE",
"178 -97 OFFCURVE",
"297 -97 CURVE SMOOTH",
"353 -97 OFFCURVE",
"373 -58 OFFCURVE",
"373 -26 CURVE SMOOTH",
"373 -9 OFFCURVE",
"368 10 OFFCURVE",
"361 24 CURVE",
"345 19 OFFCURVE",
"330 19 OFFCURVE",
"315 19 CURVE SMOOTH",
"250 19 OFFCURVE",
"200 47 OFFCURVE",
"168 114 CURVE"
);
}
);
width = 687;
}
);
},
{
glyphname = dvRashtrasign;
layers = (
{
layerId = "A7C7F4A0-D38E-458B-B20F-CA7152D87AAE";
name = Bold;
paths = (
{
closed = 1;
nodes = (
"-274 -273 CURVE",
"-202 -198 OFFCURVE",
"-134 -155 OFFCURVE",
"-108 -155 CURVE SMOOTH",
"-66 -155 OFFCURVE",
"53 -269 OFFCURVE",
"53 -269 CURVE",
"75 -260 OFFCURVE",
"87 -244 OFFCURVE",
"87 -225 CURVE SMOOTH",
"87 -169 OFFCURVE",
"-65 -43 OFFCURVE",
"-134 -43 CURVE SMOOTH",
"-196 -43 OFFCURVE",
"-332 -128 OFFCURVE",
"-332 -198 CURVE SMOOTH",
"-332 -229 OFFCURVE",
"-313 -259 OFFCURVE"
);
}
);
width = 0;
}
);
},
{
glyphname = dvK;
layers = (
{
layerId = "A7C7F4A0-D38E-458B-B20F-CA7152D87AAE";
name = Bold;
paths = (
{
closed = 1;
nodes = (
"437 250 LINE",
"466 310 OFFCURVE",
"514 374 OFFCURVE",
"578 374 CURVE SMOOTH",
"612 374 OFFCURVE",
"642 352 OFFCURVE",
"642 302 CURVE",
"673 286 OFFCURVE",
"699 307 OFFCURVE",
"699 343 CURVE SMOOTH",
"699 397 OFFCURVE",
"639 476 OFFCURVE",
"546 476 CURVE SMOOTH",
"485 476 OFFCURVE",
"438 444 OFFCURVE",
"410 398 CURVE",
"441 420 LINE",
"445 435 OFFCURVE",
"449 454 OFFCURVE",
"449 474 CURVE SMOOTH",
"449 521 OFFCURVE",
"430 570 OFFCURVE",
"364 570 CURVE SMOOTH",
"339 570 OFFCURVE",
"321 563 OFFCURVE",
"310 552 CURVE",
"325 529 OFFCURVE",
"325 485 OFFCURVE",
"325 448 CURVE SMOOTH",
"325 331 OFFCURVE",
"322 262 OFFCURVE",
"321 201 CURVE",
"348 352 LINE",
"317 288 OFFCURVE",
"266 222 OFFCURVE",
"198 222 CURVE SMOOTH",
"164 222 OFFCURVE",
"134 248 OFFCURVE",
"134 285 CURVE SMOOTH",
"134 335 OFFCURVE",
"173 372 OFFCURVE",
"224 382 CURVE SMOOTH",
"234 384 OFFCURVE",
"244 385 OFFCURVE",
"255 385 CURVE",
"256 390 OFFCURVE",
"256 394 OFFCURVE",
"256 396 CURVE SMOOTH",
"256 443 OFFCURVE",
"220 486 OFFCURVE",
"163 486 CURVE SMOOTH",
"83 486 OFFCURVE",
"30 417 OFFCURVE",
"30 344 CURVE SMOOTH",
"30 228 OFFCURVE",
"136 121 OFFCURVE",
"246 121 CURVE SMOOTH",
"323 121 OFFCURVE",
"348 160 OFFCURVE",
"377 206 CURVE",
"347 182 LINE",
"336 160 OFFCURVE",
"329 130 OFFCURVE",
"329 100 CURVE SMOOTH",
"329 46 OFFCURVE",
"353 -7 OFFCURVE",
"426 -7 CURVE SMOOTH",
"437 -7 OFFCURVE",
"453 -6 OFFCURVE",
"468 0 CURVE",
"457 18 OFFCURVE",
"453 69 OFFCURVE",
"453 105 CURVE SMOOTH",
"453 181 OFFCURVE",
"456 262 OFFCURVE",
"457 343 CURVE"
);
},
{
closed = 1;
nodes = (
"-75 669 LINE",
"-78 663 OFFCURVE",
"-80 650 OFFCURVE",
"-80 642 CURVE SMOOTH",
"-80 552 OFFCURVE",
"10 552 OFFCURVE",
"46 552 CURVE SMOOTH",
"611 552 LINE",
"614 558 OFFCURVE",
"618 572 OFFCURVE",
"618 584 CURVE SMOOTH",
"618 669 OFFCURVE",
"528 669 OFFCURVE",
"492 669 CURVE SMOOTH"
);
}
);
width = 557;
}
);
},
{
glyphname = dvKH;
layers = (
{
layerId = "A7C7F4A0-D38E-458B-B20F-CA7152D87AAE";
name = Bold;
paths = (
{
closed = 1;
nodes = (
"-50 669 LINE",
"-53 663 OFFCURVE",
"-55 650 OFFCURVE",
"-55 642 CURVE SMOOTH",
"-55 552 OFFCURVE",
"35 552 OFFCURVE",
"71 552 CURVE SMOOTH",
"675 552 LINE",
"678 558 OFFCURVE",
"682 572 OFFCURVE",
"682 584 CURVE SMOOTH",
"682 669 OFFCURVE",
"592 669 OFFCURVE",
"556 669 CURVE SMOOTH"
);
},
{
closed = 1;
nodes = (
"154 318 LINE",
"144 373 OFFCURVE",
"117 417 OFFCURVE",
"75 417 CURVE SMOOTH",
"35 417 OFFCURVE",
"16 387 OFFCURVE",
"16 355 CURVE SMOOTH",
"16 290 OFFCURVE",
"89 233 OFFCURVE",
"163 233 CURVE SMOOTH",
"275 233 OFFCURVE",
"335 299 OFFCURVE",
"335 384 CURVE SMOOTH",
"335 470 OFFCURVE",
"282 543 OFFCURVE",
"227 586 CURVE",
"173 554 LINE",
"197 527 OFFCURVE",
"217 478 OFFCURVE",
"217 430 CURVE SMOOTH",
"217 367 OFFCURVE",
"170 329 OFFCURVE",
"116 328 CURVE"
);
},
{
closed = 1;
nodes = (
"402 21 CURVE SMOOTH",
"608 21 OFFCURVE",
"697 158 OFFCURVE",
"697 284 CURVE SMOOTH",
"697 392 OFFCURVE",
"631 492 OFFCURVE",
"517 492 CURVE SMOOTH",
"442 492 OFFCURVE",
"388 440 OFFCURVE",
"388 371 CURVE SMOOTH",
"388 290 OFFCURVE",
"442 248 OFFCURVE",
"498 248 CURVE SMOOTH",
"507 248 OFFCURVE",
"525 251 OFFCURVE",
"537 260 CURVE",
"522 273 OFFCURVE",
"511 304 OFFCURVE",
"511 334 CURVE SMOOTH",
"511 369 OFFCURVE",
"526 401 OFFCURVE",
"564 401 CURVE SMOOTH",
"596 401 OFFCURVE",
"612 370 OFFCURVE",
"612 336 CURVE SMOOTH",
"612 221 OFFCURVE",
"504 130 OFFCURVE",
"376 130 CURVE SMOOTH",
"282 130 OFFCURVE",
"188 182 OFFCURVE",
"162 284 CURVE",
"86 284 LINE",
"123 112 OFFCURVE",
"283 21 OFFCURVE"
);
}
);
width = 602;
}
);
},
{
glyphname = dvG;
layers = (
{
layerId = "A7C7F4A0-D38E-458B-B20F-CA7152D87AAE";
name = Bold;
paths = (
{
closed = 1;
nodes = (
"-78 669 LINE",
"-81 663 OFFCURVE",
"-83 650 OFFCURVE",
"-83 642 CURVE SMOOTH",
"-83 552 OFFCURVE",
"7 552 OFFCURVE",
"43 552 CURVE SMOOTH",
"406 552 LINE",
"409 558 OFFCURVE",
"413 572 OFFCURVE",
"413 584 CURVE SMOOTH",
"413 669 OFFCURVE",
"323 669 OFFCURVE",
"287 669 CURVE SMOOTH"
);
},
{
closed = 1;
nodes = (
"83 562 LINE",
"121 540 OFFCURVE",
"161 491 OFFCURVE",
"161 423 CURVE SMOOTH",
"161 406 OFFCURVE",
"158 384 OFFCURVE",
"149 372 CURVE",
"132 398 OFFCURVE",
"108 410 OFFCURVE",
"86 410 CURVE SMOOTH",
"55 410 OFFCURVE",
"27 389 OFFCURVE",
"27 346 CURVE SMOOTH",
"27 269 OFFCURVE",
"99 214 OFFCURVE",
"165 214 CURVE SMOOTH",
"226 214 OFFCURVE",
"283 255 OFFCURVE",
"283 353 CURVE SMOOTH",
"283 428 OFFCURVE",
"248 514 OFFCURVE",
"191 562 CURVE"
);
}
);
width = 347;
}
);
},
{
glyphname = dvGH;
layers = (
{
layerId = "A7C7F4A0-D38E-458B-B20F-CA7152D87AAE";
name = Bold;
paths = (
{
closed = 1;
nodes = (
"-78 669 LINE",
"-81 663 OFFCURVE",
"-83 650 OFFCURVE",
"-83 642 CURVE SMOOTH",
"-83 571 OFFCURVE",
"-25 553 OFFCURVE",
"26 553 CURVE SMOOTH",
"40 553 OFFCURVE",
"52 554 OFFCURVE",
"64 556 CURVE",
"62 571 LINE",
"47 546 OFFCURVE",
"41 520 OFFCURVE",
"41 495 CURVE SMOOTH",
"41 395 OFFCURVE",
"146 308 OFFCURVE",
"249 308 CURVE SMOOTH",
"290 308 OFFCURVE",
"331 330 OFFCURVE",
"331 368 CURVE SMOOTH",
"331 413 OFFCURVE",
"285 443 OFFCURVE",
"231 443 CURVE SMOOTH",
"150 443 OFFCURVE",
"69 384 OFFCURVE",
"69 293 CURVE SMOOTH",
"69 206 OFFCURVE",
"171 104 OFFCURVE",
"303 104 CURVE SMOOTH",
"417 104 OFFCURVE",
"525 175 OFFCURVE",
"525 259 CURVE SMOOTH",
"525 288 OFFCURVE",
"506 325 OFFCURVE",
"450 333 CURVE",
"418 256 OFFCURVE",
"338 198 OFFCURVE",
"253 198 CURVE SMOOTH",
"214 198 OFFCURVE",
"180 219 OFFCURVE",
"180 255 CURVE SMOOTH",
"180 302 OFFCURVE",
"223 326 OFFCURVE",
"258 329 CURVE",
"202 349 OFFCURVE",
"152 391 OFFCURVE",
"152 446 CURVE SMOOTH",
"152 522 OFFCURVE",
"206 552 OFFCURVE",
"233 561 CURVE",
"183 552 LINE",
"423 552 LINE",
"426 558 OFFCURVE",
"430 572 OFFCURVE",
"430 584 CURVE SMOOTH",
"430 669 OFFCURVE",
"340 669 OFFCURVE",
"304 669 CURVE SMOOTH"
);
}
);
width = 387;
}
);
},
{
glyphname = dvC;
layers = (
{
layerId = "A7C7F4A0-D38E-458B-B20F-CA7152D87AAE";
name = Bold;
paths = (
{
closed = 1;
nodes = (
"-87 669 LINE",
"-90 663 OFFCURVE",
"-92 650 OFFCURVE",
"-92 642 CURVE SMOOTH",
"-92 552 OFFCURVE",
"-2 552 OFFCURVE",
"34 552 CURVE SMOOTH",
"497 552 LINE",
"500 558 OFFCURVE",
"504 572 OFFCURVE",
"504 584 CURVE SMOOTH",
"504 669 OFFCURVE",
"414 669 OFFCURVE",
"378 669 CURVE SMOOTH"
);
},
{
closed = 1;
nodes = (
"504 336 CURVE",
"467 258 OFFCURVE",
"383 216 OFFCURVE",
"320 216 CURVE SMOOTH",
"275 216 OFFCURVE",
"239 240 OFFCURVE",
"239 280 CURVE SMOOTH",
"239 327 OFFCURVE",
"283 349 OFFCURVE",
"330 349 CURVE SMOOTH",
"365 349 LINE",
"368 355 OFFCURVE",
"372 367 OFFCURVE",
"372 379 CURVE SMOOTH",
"372 464 OFFCURVE",
"282 464 OFFCURVE",
"246 464 CURVE SMOOTH",
"2 464 LINE",
"-1 458 OFFCURVE",
"-3 446 OFFCURVE",
"-3 437 CURVE SMOOTH",
"-3 372 OFFCURVE",
"49 348 OFFCURVE",
"98 348 CURVE SMOOTH",
"123 348 OFFCURVE",
"154 359 OFFCURVE",
"177 374 CURVE",
"172 402 LINE",
"148 375 OFFCURVE",
"141 347 OFFCURVE",
"141 318 CURVE SMOOTH",
"141 230 OFFCURVE",
"242 108 OFFCURVE",
"372 108 CURVE SMOOTH",
"480 108 OFFCURVE",
"564 175 OFFCURVE",
"564 246 CURVE SMOOTH",
"564 277 OFFCURVE",
"550 314 OFFCURVE"
);
}
);
width = 442;
}
);
},
{
glyphname = dvCH;
layers = (
{
layerId = "A7C7F4A0-D38E-458B-B20F-CA7152D87AAE";
name = Bold;
paths = (
{
closed = 1;
nodes = (
"552 426 CURVE",
"521 406 LINE",
"552 398 OFFCURVE",
"559 366 OFFCURVE",
"559 343 CURVE SMOOTH",
"559 201 OFFCURVE",
"418 126 OFFCURVE",
"302 126 CURVE SMOOTH",
"224 126 OFFCURVE",
"163 163 OFFCURVE",
"163 221 CURVE SMOOTH",
"163 278 OFFCURVE",
"219 304 OFFCURVE",
"263 311 CURVE",
"198 328 OFFCURVE",
"161 386 OFFCURVE",
"161 444 CURVE SMOOTH",
"161 492 OFFCURVE",
"187 540 OFFCURVE",
"246 561 CURVE",
"172 552 LINE",
"750 552 LINE",
"753 558 OFFCURVE",
"757 572 OFFCURVE",
"757 584 CURVE SMOOTH",
"757 669 OFFCURVE",
"667 669 OFFCURVE",
"631 669 CURVE SMOOTH",
"-65 669 LINE",
"-68 663 OFFCURVE",
"-70 650 OFFCURVE",
"-70 642 CURVE SMOOTH",
"-70 571 OFFCURVE",
"-12 553 OFFCURVE",
"39 553 CURVE SMOOTH",
"53 553 OFFCURVE",
"65 554 OFFCURVE",
"77 556 CURVE",
"75 571 LINE",
"59 544 OFFCURVE",
"52 515 OFFCURVE",
"52 486 CURVE SMOOTH",
"52 382 OFFCURVE",
"145 281 OFFCURVE",
"252 281 CURVE SMOOTH",
"294 281 OFFCURVE",
"335 303 OFFCURVE",
"335 344 CURVE SMOOTH",
"335 387 OFFCURVE",
"291 416 OFFCURVE",
"238 416 CURVE SMOOTH",
"138 416 OFFCURVE",
"57 354 OFFCURVE",
"57 265 CURVE SMOOTH",
"57 124 OFFCURVE",
"212 22 OFFCURVE",
"362 22 CURVE SMOOTH",
"532 22 OFFCURVE",
"652 127 OFFCURVE",
"652 295 CURVE SMOOTH",
"652 395 OFFCURVE",
"583 506 OFFCURVE",
"474 506 CURVE SMOOTH",
"429 506 OFFCURVE",
"390 478 OFFCURVE",
"390 429 CURVE SMOOTH",
"390 384 OFFCURVE",
"429 340 OFFCURVE",
"485 340 CURVE SMOOTH",
"530 340 OFFCURVE",
"557 368 OFFCURVE",
"557 407 CURVE SMOOTH",
"557 417 OFFCURVE",
"552 426 OFFCURVE"
);
}
);
width = 694;
}
);
},
{
glyphname = dvJ;
layers = (
{
layerId = "A7C7F4A0-D38E-458B-B20F-CA7152D87AAE";
name = Bold;
paths = (
{
closed = 1;
nodes = (
"-60 669 LINE",
"-63 663 OFFCURVE",
"-65 650 OFFCURVE",
"-65 642 CURVE SMOOTH",
"-65 552 OFFCURVE",
"25 552 OFFCURVE",
"61 552 CURVE SMOOTH",
"531 552 LINE",
"534 558 OFFCURVE",
"538 572 OFFCURVE",
"538 584 CURVE SMOOTH",
"538 669 OFFCURVE",
"448 669 OFFCURVE",
"412 669 CURVE SMOOTH"
);
},
{
closed = 1;
nodes = (
"282 338 LINE",
"299 318 OFFCURVE",
"309 295 OFFCURVE",
"309 274 CURVE SMOOTH",
"309 242 OFFCURVE",
"292 214 OFFCURVE",
"249 214 CURVE SMOOTH",
"199 214 OFFCURVE",
"121 275 OFFCURVE",
"59 450 CURVE",
"39 449 OFFCURVE",
"13 438 OFFCURVE",
"13 399 CURVE SMOOTH",
"13 329 OFFCURVE",
"128 92 OFFCURVE",
"297 92 CURVE SMOOTH",
"364 92 OFFCURVE",
"414 135 OFFCURVE",
"414 208 CURVE SMOOTH",
"414 285 OFFCURVE",
"358 338 OFFCURVE",
"358 338 CURVE"
);
},
{
closed = 1;
nodes = (
"581 335 LINE",
"584 341 OFFCURVE",
"588 355 OFFCURVE",
"588 367 CURVE SMOOTH",
"588 452 OFFCURVE",
"498 452 OFFCURVE",
"462 452 CURVE SMOOTH",
"200 452 LINE",
"197 446 OFFCURVE",
"195 433 OFFCURVE",
"195 425 CURVE SMOOTH",
"195 335 OFFCURVE",
"285 335 OFFCURVE",
"321 335 CURVE SMOOTH"
);
}
);
width = 473;
}
);
},
{
glyphname = dvJH;
layers = (
{
layerId = "A7C7F4A0-D38E-458B-B20F-CA7152D87AAE";
name = Bold;
paths = (
{
closed = 1;
nodes = (
"-78 669 LINE",
"-81 663 OFFCURVE",
"-83 650 OFFCURVE",
"-83 642 CURVE SMOOTH",
"-83 552 OFFCURVE",
"7 552 OFFCURVE",
"43 552 CURVE SMOOTH",
"605 552 LINE",
"608 558 OFFCURVE",
"612 572 OFFCURVE",
"612 584 CURVE SMOOTH",
"612 669 OFFCURVE",
"522 669 OFFCURVE",
"486 669 CURVE SMOOTH"
);
},
{
closed = 1;
nodes = (
"117 81 LINE",
"143 -13 OFFCURVE",
"197 -203 OFFCURVE",
"336 -203 CURVE SMOOTH",
"383 -203 OFFCURVE",
"423 -173 OFFCURVE",
"423 -128 CURVE SMOOTH",
"423 -102 OFFCURVE",
"411 -78 OFFCURVE",
"392 -62 CURVE",
"373 -78 OFFCURVE",
"349 -83 OFFCURVE",
"331 -83 CURVE SMOOTH",
"254 -83 OFFCURVE",
"205 0 OFFCURVE",
"182 57 CURVE"
);
},
{
closed = 1;
nodes = (
"647 344 CURVE",
"611 314 OFFCURVE",
"575 295 OFFCURVE",
"489 295 CURVE SMOOTH",
"414 295 OFFCURVE",
"353 318 OFFCURVE",
"289 318 CURVE SMOOTH",
"257 318 OFFCURVE",
"225 310 OFFCURVE",
"198 310 CURVE SMOOTH",
"177 310 OFFCURVE",
"152 316 OFFCURVE",
"152 340 CURVE SMOOTH",
"152 377 OFFCURVE",
"223 377 OFFCURVE",
"254 377 CURVE SMOOTH",
"276 377 OFFCURVE",
"303 376 OFFCURVE",
"328 376 CURVE SMOOTH",
"402 376 OFFCURVE",
"437 416 OFFCURVE",
"437 465 CURVE SMOOTH",
"437 501 OFFCURVE",
"418 542 OFFCURVE",
"380 570 CURVE",
"310 555 LINE",
"327 546 OFFCURVE",
"333 533 OFFCURVE",
"333 521 CURVE SMOOTH",
"333 502 OFFCURVE",
"313 493 OFFCURVE",
"282 493 CURVE SMOOTH",
"251 493 OFFCURVE",
"228 494 OFFCURVE",
"205 494 CURVE SMOOTH",
"114 494 OFFCURVE",
"64 449 OFFCURVE",
"64 377 CURVE SMOOTH",
"64 276 OFFCURVE",
"152 191 OFFCURVE",
"253 191 CURVE SMOOTH",
"289 191 OFFCURVE",
"325 198 OFFCURVE",
"344 198 CURVE SMOOTH",
"366 198 OFFCURVE",
"379 186 OFFCURVE",
"379 168 CURVE SMOOTH",
"379 133 OFFCURVE",
"312 107 OFFCURVE",
"249 107 CURVE SMOOTH",
"221 107 OFFCURVE",
"190 112 OFFCURVE",
"168 124 CURVE",
"157 163 OFFCURVE",
"127 207 OFFCURVE",
"84 207 CURVE SMOOTH",
"52 207 OFFCURVE",
"33 182 OFFCURVE",
"33 154 CURVE SMOOTH",
"33 56 OFFCURVE",
"151 -9 OFFCURVE",
"297 -9 CURVE SMOOTH",
"398 -9 OFFCURVE",
"469 46 OFFCURVE",
"469 134 CURVE SMOOTH",
"469 178 OFFCURVE",
"452 212 OFFCURVE",
"432 245 CURVE",
"382 258 LINE",
"422 218 OFFCURVE",
"492 196 OFFCURVE",
"555 196 CURVE SMOOTH",
"627 196 OFFCURVE",
"681 226 OFFCURVE",
"681 278 CURVE SMOOTH",
"681 305 OFFCURVE",
"667 332 OFFCURVE"
);
}
);
width = 548;
}
);
},
{
glyphname = dvNY;
layers = (
{
layerId = "A7C7F4A0-D38E-458B-B20F-CA7152D87AAE";
name = Bold;
paths = (
{
closed = 1;
nodes = (
"-78 669 LINE",
"-81 663 OFFCURVE",
"-83 650 OFFCURVE",
"-83 642 CURVE SMOOTH",
"-83 552 OFFCURVE",
"7 552 OFFCURVE",
"43 552 CURVE SMOOTH",
"564 552 LINE",
"567 558 OFFCURVE",
"571 572 OFFCURVE",
"571 584 CURVE SMOOTH",
"571 669 OFFCURVE",
"481 669 OFFCURVE",
"445 669 CURVE SMOOTH"
);
},
{
closed = 1;
nodes = (
"445 254 LINE",
"466 243 OFFCURVE",
"509 233 OFFCURVE",
"553 233 CURVE SMOOTH",
"612 233 OFFCURVE",
"652 261 OFFCURVE",
"652 309 CURVE SMOOTH",
"652 337 OFFCURVE",
"639 363 OFFCURVE",
"618 381 CURVE",
"577 354 OFFCURVE",
"530 334 OFFCURVE",
"452 334 CURVE SMOOTH",
"443 334 OFFCURVE",
"434 335 OFFCURVE",
"425 337 CURVE"
);
},
{
closed = 1;
nodes = (
"46 453 CURVE",
"26 452 OFFCURVE",
"0 440 OFFCURVE",
"0 402 CURVE SMOOTH",
"0 331 OFFCURVE",
"110 104 OFFCURVE",
"300 104 CURVE SMOOTH",
"389 104 OFFCURVE",
"457 158 OFFCURVE",
"457 250 CURVE SMOOTH",
"457 371 OFFCURVE",
"365 482 OFFCURVE",
"267 482 CURVE SMOOTH",
"210 482 OFFCURVE",
"180 443 OFFCURVE",
"180 403 CURVE SMOOTH",
"180 362 OFFCURVE",
"212 326 OFFCURVE",
"246 316 CURVE",
"257 340 OFFCURVE",
"283 362 OFFCURVE",
"312 362 CURVE SMOOTH",
"344 362 OFFCURVE",
"363 338 OFFCURVE",
"363 310 CURVE SMOOTH",
"363 269 OFFCURVE",
"326 225 OFFCURVE",
"261 225 CURVE SMOOTH",
"144 225 OFFCURVE",
"78 364 OFFCURVE"
);
}
);
width = 509;
}
);
},
{
glyphname = dvNN;
layers = (
{
layerId = "A7C7F4A0-D38E-458B-B20F-CA7152D87AAE";
name = Bold;
paths = (
{
closed = 1;
nodes = (
"-78 669 LINE",
"-81 663 OFFCURVE",
"-83 650 OFFCURVE",
"-83 642 CURVE SMOOTH",
"-83 552 OFFCURVE",
"7 552 OFFCURVE",
"43 552 CURVE SMOOTH",
"552 552 LINE",
"555 558 OFFCURVE",
"559 572 OFFCURVE",
"559 584 CURVE SMOOTH",
"559 669 OFFCURVE",
"469 669 OFFCURVE",
"433 669 CURVE SMOOTH"
);
},
{
closed = 1;
nodes = (
"294 554 LINE",
"301 547 OFFCURVE",
"312 499 OFFCURVE",
"312 435 CURVE SMOOTH",
"312 340 OFFCURVE",
"297 273 OFFCURVE",
"243 273 CURVE SMOOTH",
"202 273 OFFCURVE",
"187 306 OFFCURVE",
"181 351 CURVE SMOOTH",
"178 375 OFFCURVE",
"178 403 OFFCURVE",
"178 431 CURVE SMOOTH",
"178 483 OFFCURVE",
"175 570 OFFCURVE",
"75 570 CURVE SMOOTH",
"57 570 OFFCURVE",
"40 564 OFFCURVE",
"30 552 CURVE",
"45 529 OFFCURVE",
"45 485 OFFCURVE",
"45 448 CURVE SMOOTH",
"45 416 OFFCURVE",
"48 382 OFFCURVE",
"49 374 CURVE SMOOTH",
"64 263 OFFCURVE",
"203 178 OFFCURVE",
"296 178 CURVE SMOOTH",
"400 178 OFFCURVE",
"443 263 OFFCURVE",
"443 344 CURVE SMOOTH",
"443 473 OFFCURVE",
"376 550 OFFCURVE",
"361 561 CURVE"
);
}
);
width = 496;
}
);
},
{
glyphname = dvT;
layers = (
{
layerId = "A7C7F4A0-D38E-458B-B20F-CA7152D87AAE";
name = Bold;
paths = (
{
closed = 1;
nodes = (
"-65 669 LINE",
"-68 663 OFFCURVE",
"-70 650 OFFCURVE",
"-70 642 CURVE SMOOTH",
"-70 552 OFFCURVE",
"20 552 OFFCURVE",
"56 552 CURVE SMOOTH",
"390 552 LINE",
"393 558 OFFCURVE",
"397 572 OFFCURVE",
"397 584 CURVE SMOOTH",
"397 669 OFFCURVE",
"307 669 OFFCURVE",
"271 669 CURVE SMOOTH"
);
},
{
closed = 1;
nodes = (
"364 326 LINE",
"409 326 OFFCURVE",
"450 341 OFFCURVE",
"450 386 CURVE SMOOTH",
"450 405 OFFCURVE",
"444 425 OFFCURVE",
"441 432 CURVE",
"365 441 OFFCURVE",
"317 445 OFFCURVE",
"218 445 CURVE SMOOTH",
"126 445 OFFCURVE",
"45 404 OFFCURVE",
"45 287 CURVE SMOOTH",
"45 166 OFFCURVE",
"153 12 OFFCURVE",
"209 12 CURVE SMOOTH",
"227 12 OFFCURVE",
"241 23 OFFCURVE",
"247 35 CURVE",
"200 99 OFFCURVE",
"172 171 OFFCURVE",
"172 241 CURVE SMOOTH",
"172 297 OFFCURVE",
"206 326 OFFCURVE",
"260 326 CURVE SMOOTH"
);
}
);
width = 328;
}
);
},
{
glyphname = dvTH;
layers = (
{
layerId = "A7C7F4A0-D38E-458B-B20F-CA7152D87AAE";
name = Bold;
paths = (
{
closed = 1;
nodes = (
"295 125 CURVE",
"435 125 OFFCURVE",
"536 211 OFFCURVE",
"536 284 CURVE SMOOTH",
"536 321 OFFCURVE",
"514 355 OFFCURVE",
"466 373 CURVE",
"414 267 OFFCURVE",
"297 236 OFFCURVE",
"219 236 CURVE",
"191 236 OFFCURVE",
"170 244 OFFCURVE",
"170 259 CURVE SMOOTH",
"170 298 OFFCURVE",
"349 321 OFFCURVE",
"349 471 CURVE SMOOTH",
"349 586 OFFCURVE",
"257 677 OFFCURVE",
"170 677 CURVE SMOOTH",
"98 677 OFFCURVE",
"47 626 OFFCURVE",
"47 561 CURVE SMOOTH",
"47 503 OFFCURVE",
"83 448 OFFCURVE",
"140 448 CURVE SMOOTH",
"149 448 OFFCURVE",
"157 450 OFFCURVE",
"161 452 CURVE",
"154 464 OFFCURVE",
"151 479 OFFCURVE",
"151 495 CURVE SMOOTH",
"151 532 OFFCURVE",
"174 572 OFFCURVE",
"211 572 CURVE SMOOTH",
"241 572 OFFCURVE",
"253 548 OFFCURVE",
"253 527 CURVE SMOOTH",
"253 416 OFFCURVE",
"40 395 OFFCURVE",
"40 319 CURVE SMOOTH",
"40 247 OFFCURVE",
"169 125 OFFCURVE"
);
}
);
width = 430;
}
);
},
{
glyphname = dvD;
layers = (
{
components = (
{
name = dvVirama;
transform = "{1, 0, 0, 1, 383, -5}";
}
);
layerId = "A7C7F4A0-D38E-458B-B20F-CA7152D87AAE";
name = Bold;
paths = (
{
closed = 1;
nodes = (
"-66 669 LINE",
"-69 663 OFFCURVE",
"-71 650 OFFCURVE",
"-71 642 CURVE SMOOTH",
"-71 552 OFFCURVE",
"19 552 OFFCURVE",
"55 552 CURVE SMOOTH",
"531 552 LINE",
"534 558 OFFCURVE",
"538 572 OFFCURVE",
"538 584 CURVE SMOOTH",
"538 669 OFFCURVE",
"448 669 OFFCURVE",
"412 669 CURVE SMOOTH"
);
},
{
closed = 1;
nodes = (
"362 198 LINE",
"337 158 OFFCURVE",
"295 143 OFFCURVE",
"248 143 CURVE SMOOTH",
"198 143 OFFCURVE",
"145 171 OFFCURVE",
"145 227 CURVE SMOOTH",
"145 368 OFFCURVE",
"418 340 OFFCURVE",
"418 478 CURVE SMOOTH",
"418 510 OFFCURVE",
"390 549 OFFCURVE",
"363 567 CURVE",
"292 554 LINE",
"297 546 OFFCURVE",
"300 538 OFFCURVE",
"300 528 CURVE SMOOTH",
"300 452 OFFCURVE",
"32 466 OFFCURVE",
"32 277 CURVE SMOOTH",
"32 155 OFFCURVE",
"174 40 OFFCURVE",
"308 40 CURVE SMOOTH",
"389 40 OFFCURVE",
"464 75 OFFCURVE",
"464 160 CURVE SMOOTH",
"464 213 OFFCURVE",
"422 266 OFFCURVE",
"372 266 CURVE SMOOTH",
"330 266 OFFCURVE",
"297 235 OFFCURVE",
"297 189 CURVE SMOOTH",
"297 164 OFFCURVE",
"303 138 OFFCURVE",
"319 120 CURVE"
);
},
{
closed = 1;
nodes = (
"345 43 LINE",
"367 -14 OFFCURVE",
"417 -64 OFFCURVE",
"480 -64 CURVE SMOOTH",
"536 -64 OFFCURVE",
"561 -26 OFFCURVE",
"561 8 CURVE SMOOTH",
"561 44 OFFCURVE",
"543 72 OFFCURVE",
"518 92 CURVE",
"504 69 OFFCURVE",
"484 53 OFFCURVE",
"457 53 CURVE SMOOTH",
"430 53 OFFCURVE",
"407 66 OFFCURVE",
"395 82 CURVE"
);
}
);
width = 475;
}
);
},
{
glyphname = dvDH;
layers = (
{
layerId = "A7C7F4A0-D38E-458B-B20F-CA7152D87AAE";
name = Bold;
paths = (
{
closed = 1;
nodes = (
"253 198 CURVE SMOOTH",
"214 198 OFFCURVE",
"180 219 OFFCURVE",
"180 255 CURVE SMOOTH",
"180 302 OFFCURVE",
"223 326 OFFCURVE",
"258 329 CURVE",
"205 345 OFFCURVE",
"152 389 OFFCURVE",
"152 455 CURVE SMOOTH",
"152 511 OFFCURVE",
"192 552 OFFCURVE",
"252 552 CURVE SMOOTH",
"262 552 LINE",
"265 558 OFFCURVE",
"269 572 OFFCURVE",
"269 584 CURVE SMOOTH",
"269 669 OFFCURVE",
"179 669 OFFCURVE",
"143 669 CURVE SMOOTH",
"-78 669 LINE",
"-81 663 OFFCURVE",
"-83 650 OFFCURVE",
"-83 642 CURVE SMOOTH",
"-83 571 OFFCURVE",
"-25 553 OFFCURVE",
"26 553 CURVE SMOOTH",
"40 553 OFFCURVE",
"52 554 OFFCURVE",
"64 556 CURVE",
"62 571 LINE",
"47 546 OFFCURVE",
"41 520 OFFCURVE",
"41 495 CURVE SMOOTH",
"41 395 OFFCURVE",
"146 308 OFFCURVE",
"249 308 CURVE SMOOTH",
"290 308 OFFCURVE",
"331 330 OFFCURVE",
"331 368 CURVE SMOOTH",
"331 413 OFFCURVE",
"285 443 OFFCURVE",
"231 443 CURVE SMOOTH",
"150 443 OFFCURVE",
"69 384 OFFCURVE",
"69 293 CURVE SMOOTH",
"69 206 OFFCURVE",
"171 104 OFFCURVE",
"303 104 CURVE SMOOTH",
"417 104 OFFCURVE",
"525 175 OFFCURVE",
"525 259 CURVE SMOOTH",
"525 288 OFFCURVE",
"506 325 OFFCURVE",
"450 333 CURVE",
"418 256 OFFCURVE",
"338 198 OFFCURVE"
);
}
);
width = 402;
}
);
},
{
glyphname = dvN;
layers = (
{
layerId = "A7C7F4A0-D38E-458B-B20F-CA7152D87AAE";
name = Bold;
paths = (
{
closed = 1;
nodes = (
"-65 669 LINE",
"-68 663 OFFCURVE",
"-70 650 OFFCURVE",
"-70 642 CURVE SMOOTH",
"-70 552 OFFCURVE",
"20 552 OFFCURVE",
"56 552 CURVE SMOOTH",
"390 552 LINE",
"393 558 OFFCURVE",
"397 572 OFFCURVE",
"397 584 CURVE SMOOTH",
"397 669 OFFCURVE",
"307 669 OFFCURVE",
"271 669 CURVE SMOOTH"
);
},
{
closed = 1;
nodes = (
"24 316 CURVE SMOOTH",
"24 221 OFFCURVE",
"135 110 OFFCURVE",
"233 110 CURVE SMOOTH",
"285 110 OFFCURVE",
"307 142 OFFCURVE",
"307 177 CURVE SMOOTH",
"307 213 OFFCURVE",
"284 253 OFFCURVE",
"244 268 CURVE",
"241 261 OFFCURVE",
"236 253 OFFCURVE",
"225 243 CURVE SMOOTH",
"213 233 OFFCURVE",
"195 223 OFFCURVE",
"174 223 CURVE SMOOTH",
"144 223 OFFCURVE",
"131 244 OFFCURVE",
"131 262 CURVE SMOOTH",
"131 291 OFFCURVE",
"157 326 OFFCURVE",
"221 326 CURVE",
"349 326 LINE SMOOTH",
"431 326 OFFCURVE",
"450 362 OFFCURVE",
"450 393 CURVE SMOOTH",
"450 409 OFFCURVE",
"445 424 OFFCURVE",
"441 432 CURVE",
"378 439 OFFCURVE",
"293 444 OFFCURVE",
"209 444 CURVE",
"88 444 OFFCURVE",
"24 401 OFFCURVE"
);
}
);
width = 323;
}
);
},
{
glyphname = dvP;
layers = (
{
layerId = "A7C7F4A0-D38E-458B-B20F-CA7152D87AAE";
name = Bold;
paths = (
{
closed = 1;
nodes = (
"297 161 CURVE SMOOTH",
"401 161 OFFCURVE",
"465 221 OFFCURVE",
"465 280 CURVE SMOOTH",
"465 314 OFFCURVE",
"446 353 OFFCURVE",
"399 369 CURVE",
"376 311 OFFCURVE",
"307 259 OFFCURVE",
"250 259 CURVE SMOOTH",
"193 259 OFFCURVE",
"182 295 OFFCURVE",
"182 350 CURVE SMOOTH",
"182 374 OFFCURVE",
"184 402 OFFCURVE",
"184 431 CURVE SMOOTH",
"184 483 OFFCURVE",
"183 570 OFFCURVE",
"83 570 CURVE SMOOTH",
"65 570 OFFCURVE",
"48 564 OFFCURVE",
"38 552 CURVE",
"45 541 OFFCURVE",
"49 530 OFFCURVE",
"51 508 CURVE SMOOTH",
"53 483 OFFCURVE",
"53 445 OFFCURVE",
"53 379 CURVE SMOOTH",
"53 285 OFFCURVE",
"181 161 OFFCURVE"
);
},
{
closed = 1;
nodes = (
"401 584 CURVE SMOOTH",
"401 669 OFFCURVE",
"311 669 OFFCURVE",
"275 669 CURVE SMOOTH",
"-70 669 LINE",
"-73 663 OFFCURVE",
"-75 650 OFFCURVE",
"-75 642 CURVE SMOOTH",
"-75 552 OFFCURVE",
"15 552 OFFCURVE",
"51 552 CURVE SMOOTH",
"394 552 LINE",
"397 558 OFFCURVE",
"401 572 OFFCURVE"
);
}
);
width = 330;
}
);
},
{
glyphname = dvPH;
layers = (
{
layerId = "A7C7F4A0-D38E-458B-B20F-CA7152D87AAE";
name = Bold;
paths = (
{
closed = 1;
nodes = (
"-70 669 LINE",
"-73 663 OFFCURVE",
"-75 650 OFFCURVE",
"-75 642 CURVE SMOOTH",
"-75 552 OFFCURVE",
"15 552 OFFCURVE",
"51 552 CURVE SMOOTH",
"626 552 LINE",
"629 558 OFFCURVE",
"633 572 OFFCURVE",
"633 584 CURVE SMOOTH",
"633 669 OFFCURVE",
"543 669 OFFCURVE",
"507 669 CURVE SMOOTH"
);
},
{
closed = 1;
nodes = (
"47 488 CURVE SMOOTH",
"48 466 OFFCURVE",
"48 436 OFFCURVE",
"48 393 CURVE SMOOTH",
"48 298 OFFCURVE",
"167 181 OFFCURVE",
"292 181 CURVE SMOOTH",
"348 181 OFFCURVE",
"392 212 OFFCURVE",
"404 225 CURVE",
"338 198 LINE",
"330 176 OFFCURVE",
"326 150 OFFCURVE",
"326 123 CURVE SMOOTH",
"326 58 OFFCURVE",
"353 -7 OFFCURVE",
"431 -7 CURVE SMOOTH",
"442 -7 OFFCURVE",
"458 -6 OFFCURVE",
"473 0 CURVE",
"462 18 OFFCURVE",
"458 69 OFFCURVE",
"458 105 CURVE SMOOTH",
"458 181 OFFCURVE",
"461 262 OFFCURVE",
"462 343 CURVE",
"442 250 LINE",
"471 310 OFFCURVE",
"519 374 OFFCURVE",
"583 374 CURVE SMOOTH",
"617 374 OFFCURVE",
"647 352 OFFCURVE",
"647 302 CURVE",
"678 286 OFFCURVE",
"704 307 OFFCURVE",
"704 343 CURVE SMOOTH",
"704 397 OFFCURVE",
"644 476 OFFCURVE",
"551 476 CURVE SMOOTH",
"490 476 OFFCURVE",
"443 444 OFFCURVE",
"415 398 CURVE",
"446 420 LINE",
"450 434 OFFCURVE",
"453 453 OFFCURVE",
"453 472 CURVE SMOOTH",
"453 519 OFFCURVE",
"435 570 OFFCURVE",
"369 570 CURVE SMOOTH",
"344 570 OFFCURVE",
"326 563 OFFCURVE",
"315 552 CURVE",
"330 529 OFFCURVE",
"330 485 OFFCURVE",
"330 448 CURVE SMOOTH",
"330 378 OFFCURVE",
"329 324 OFFCURVE",
"328 280 CURVE",
"365 376 LINE SMOOTH",
"346 325 OFFCURVE",
"291 279 OFFCURVE",
"245 279 CURVE SMOOTH",
"188 279 OFFCURVE",
"177 315 OFFCURVE",
"177 370 CURVE SMOOTH",
"177 388 OFFCURVE",
"179 409 OFFCURVE",
"179 431 CURVE SMOOTH",
"179 483 OFFCURVE",
"178 570 OFFCURVE",
"78 570 CURVE SMOOTH",
"60 570 OFFCURVE",
"43 564 OFFCURVE",
"33 552 CURVE",
"42 539 OFFCURVE",
"46 525 OFFCURVE"
);
}
);
width = 562;
}
);
},
{
glyphname = dvB;
layers = (
{
layerId = "A7C7F4A0-D38E-458B-B20F-CA7152D87AAE";
name = Bold;
paths = (
{
closed = 1;
nodes = (
"338 227 LINE",
"186 413 LINE",
"137 374 LINE",
"289 188 LINE"
);
},
{
closed = 1;
nodes = (
"-75 669 LINE",
"-78 663 OFFCURVE",
"-80 650 OFFCURVE",
"-80 642 CURVE SMOOTH",
"-80 552 OFFCURVE",
"10 552 OFFCURVE",
"46 552 CURVE SMOOTH",
"413 552 LINE",
"416 558 OFFCURVE",
"420 572 OFFCURVE",
"420 584 CURVE SMOOTH",
"420 669 OFFCURVE",
"330 669 OFFCURVE",
"294 669 CURVE SMOOTH"
);
},
{
closed = 1;
nodes = (
"423 330 CURVE",
"384 249 OFFCURVE",
"303 211 OFFCURVE",
"236 211 CURVE SMOOTH",
"180 211 OFFCURVE",
"134 238 OFFCURVE",
"134 289 CURVE SMOOTH",
"134 341 OFFCURVE",
"184 369 OFFCURVE",
"237 369 CURVE SMOOTH",
"280 369 OFFCURVE",
"306 355 OFFCURVE",
"316 349 CURVE",
"326 361 OFFCURVE",
"331 384 OFFCURVE",
"331 401 CURVE SMOOTH",
"331 458 OFFCURVE",
"269 491 OFFCURVE",
"198 491 CURVE SMOOTH",
"117 491 OFFCURVE",
"29 444 OFFCURVE",
"29 342 CURVE SMOOTH",
"29 228 OFFCURVE",
"152 103 OFFCURVE",
"284 103 CURVE SMOOTH",
"391 103 OFFCURVE",
"482 164 OFFCURVE",
"482 242 CURVE SMOOTH",
"482 280 OFFCURVE",
"461 313 OFFCURVE"
);
}
);
width = 357;
}
);
},
{
glyphname = dvBH;
layers = (
{
layerId = "A7C7F4A0-D38E-458B-B20F-CA7152D87AAE";
name = Bold;
paths = (
{
closed = 1;
nodes = (
"493 373 CURVE",
"438 381 OFFCURVE",
"310 390 OFFCURVE",
"206 390 CURVE SMOOTH",
"167 390 OFFCURVE",
"93 387 OFFCURVE",
"93 319 CURVE SMOOTH",
"93 260 OFFCURVE",
"165 171 OFFCURVE",
"234 171 CURVE SMOOTH",
"294 171 OFFCURVE",
"309 260 OFFCURVE",
"309 367 CURVE SMOOTH",
"309 528 OFFCURVE",
"209 669 OFFCURVE",
"115 669 CURVE SMOOTH",
"46 669 OFFCURVE",
"10 617 OFFCURVE",
"10 560 CURVE SMOOTH",
"10 502 OFFCURVE",
"45 441 OFFCURVE",
"103 441 CURVE SMOOTH",
"112 441 OFFCURVE",
"120 443 OFFCURVE",
"124 445 CURVE",
"118 456 OFFCURVE",
"114 476 OFFCURVE",
"114 496 CURVE SMOOTH",
"114 523 OFFCURVE",
"123 560 OFFCURVE",
"153 560 CURVE SMOOTH",
"176 560 OFFCURVE",
"184 537 OFFCURVE",
"184 488 CURVE SMOOTH",
"184 356 OFFCURVE",
"179 318 OFFCURVE",
"170 268 CURVE",
"400 268 LINE SMOOTH",
"482 268 OFFCURVE",
"501 304 OFFCURVE",
"501 335 CURVE SMOOTH",
"501 351 OFFCURVE",
"497 365 OFFCURVE"
);
}
);
width = 390;
}
);
},
{
glyphname = dvM;
layers = (
{
layerId = "A7C7F4A0-D38E-458B-B20F-CA7152D87AAE";
name = Bold;
paths = (
{
closed = 1;
nodes = (
"-78 669 LINE",
"-81 663 OFFCURVE",
"-83 650 OFFCURVE",
"-83 642 CURVE SMOOTH",
"-83 552 OFFCURVE",
"7 552 OFFCURVE",
"43 552 CURVE SMOOTH",
"393 552 LINE",
"396 558 OFFCURVE",
"400 572 OFFCURVE",
"400 584 CURVE SMOOTH",
"400 669 OFFCURVE",
"310 669 OFFCURVE",
"274 669 CURVE SMOOTH"
);
},
{
closed = 1;
nodes = (
"144 390 CURVE SMOOTH",
"105 390 OFFCURVE",
"31 387 OFFCURVE",
"31 319 CURVE SMOOTH",
"31 260 OFFCURVE",
"103 171 OFFCURVE",
"172 171 CURVE SMOOTH",
"236 171 OFFCURVE",
"250 248 OFFCURVE",
"250 431 CURVE SMOOTH",
"250 483 OFFCURVE",
"247 570 OFFCURVE",
"147 570 CURVE SMOOTH",
"131 570 OFFCURVE",
"111 564 OFFCURVE",
"101 552 CURVE",
"118 526 OFFCURVE",
"118 475 OFFCURVE",
"118 433 CURVE SMOOTH",
"118 364 OFFCURVE",
"111 288 OFFCURVE",
"110 268 CURVE",
"338 268 LINE SMOOTH",
"420 268 OFFCURVE",
"439 304 OFFCURVE",
"439 335 CURVE SMOOTH",
"439 351 OFFCURVE",
"435 365 OFFCURVE",
"431 373 CURVE",
"376 381 OFFCURVE",
"248 390 OFFCURVE"
);
}
);
width = 328;
}
);
},
{
glyphname = dvY;
layers = (
{
layerId = "A7C7F4A0-D38E-458B-B20F-CA7152D87AAE";
name = Bold;
paths = (
{
closed = 1;
nodes = (
"-45 669 LINE",
"-48 663 OFFCURVE",
"-50 650 OFFCURVE",
"-50 642 CURVE SMOOTH",
"-50 552 OFFCURVE",
"40 552 OFFCURVE",
"76 552 CURVE SMOOTH",
"405 552 LINE",
"408 558 OFFCURVE",
"412 572 OFFCURVE",
"412 584 CURVE SMOOTH",
"412 669 OFFCURVE",
"322 669 OFFCURVE",
"286 669 CURVE SMOOTH"
);
},
{
closed = 1;
nodes = (
"414 350 CURVE",
"375 278 OFFCURVE",
"290 248 OFFCURVE",
"225 248 CURVE SMOOTH",
"187 248 OFFCURVE",
"158 259 OFFCURVE",
"158 282 CURVE SMOOTH",
"158 324 OFFCURVE",
"292 338 OFFCURVE",
"292 454 CURVE SMOOTH",
"292 501 OFFCURVE",
"274 540 OFFCURVE",
"250 568 CURVE",
"150 568 LINE SMOOTH",
"177 568 OFFCURVE",
"188 545 OFFCURVE",
"188 524 CURVE SMOOTH",
"188 431 OFFCURVE",
"33 410 OFFCURVE",
"33 348 CURVE SMOOTH",
"33 262 OFFCURVE",
"164 135 OFFCURVE",
"290 135 CURVE SMOOTH",
"401 135 OFFCURVE",
"475 194 OFFCURVE",
"475 258 CURVE SMOOTH",
"475 290 OFFCURVE",
"460 326 OFFCURVE"
);
}
);
width = 348;
}
);
},
{
glyphname = dvL;
layers = (
{
layerId = "A7C7F4A0-D38E-458B-B20F-CA7152D87AAE";
name = Bold;
paths = (
{
closed = 1;
nodes = (
"442 669 CURVE",
"-65 669 LINE",
"-68 663 OFFCURVE",
"-70 650 OFFCURVE",
"-70 642 CURVE SMOOTH",
"-70 552 OFFCURVE",
"20 552 OFFCURVE",
"56 552 CURVE SMOOTH",
"561 552 LINE",
"564 558 OFFCURVE",
"568 572 OFFCURVE",
"568 584 CURVE SMOOTH",
"568 669 OFFCURVE",
"478 669 OFFCURVE"
);
},
{
closed = 1;
nodes = (
"255 354 CURVE SMOOTH",
"273 354 OFFCURVE",
"291 349 OFFCURVE",
"304 342 CURVE",
"294 323 OFFCURVE",
"279 296 OFFCURVE",
"279 248 CURVE SMOOTH",
"279 194 OFFCURVE",
"310 136 OFFCURVE",
"360 136 CURVE SMOOTH",
"416 136 OFFCURVE",
"432 192 OFFCURVE",
"432 229 CURVE SMOOTH",
"432 360 OFFCURVE",
"308 461 OFFCURVE",
"201 461 CURVE SMOOTH",
"102 461 OFFCURVE",
"39 393 OFFCURVE",
"39 291 CURVE SMOOTH",
"39 148 OFFCURVE",
"169 6 OFFCURVE",
"235 6 CURVE SMOOTH",
"254 6 OFFCURVE",
"266 16 OFFCURVE",
"273 29 CURVE",
"212 93 OFFCURVE",
"169 171 OFFCURVE",
"169 252 CURVE SMOOTH",
"169 312 OFFCURVE",
"201 354 OFFCURVE"
);
},
{
closed = 1;
nodes = (
"586 297 CURVE",
"601 307 OFFCURVE",
"606 323 OFFCURVE",
"606 337 CURVE SMOOTH",
"606 394 OFFCURVE",
"548 453 OFFCURVE",
"463 453 CURVE SMOOTH",
"400 453 OFFCURVE",
"342 417 OFFCURVE",
"310 356 CURVE",
"422 276 LINE",
"432 312 OFFCURVE",
"468 334 OFFCURVE",
"501 334 CURVE SMOOTH",
"539 334 OFFCURVE",
"568 317 OFFCURVE"
);
}
);
width = 506;
}
);
},
{
glyphname = dvLL;
layers = (
{
layerId = "A7C7F4A0-D38E-458B-B20F-CA7152D87AAE";
name = Bold;
paths = (
{
closed = 1;
nodes = (
"-75 669 LINE",
"-78 663 OFFCURVE",
"-80 650 OFFCURVE",
"-80 642 CURVE SMOOTH",
"-80 552 OFFCURVE",
"10 552 OFFCURVE",
"46 552 CURVE SMOOTH",
"736 552 LINE",
"739 558 OFFCURVE",
"743 572 OFFCURVE",
"743 584 CURVE SMOOTH",
"743 669 OFFCURVE",
"653 669 OFFCURVE",
"617 669 CURVE SMOOTH"
);
},
{
closed = 1;
nodes = (
"499 363 CURVE SMOOTH",
"527 363 OFFCURVE",
"563 343 OFFCURVE",
"563 300 CURVE SMOOTH",
"563 240 OFFCURVE",
"503 207 OFFCURVE",
"439 207 CURVE SMOOTH",
"412 207 OFFCURVE",
"391 211 OFFCURVE",
"373 217 CURVE",
"367 185 LINE",
"389 121 OFFCURVE",
"446 88 OFFCURVE",
"507 88 CURVE SMOOTH",
"605 88 OFFCURVE",
"659 164 OFFCURVE",
"659 244 CURVE SMOOTH",
"659 345 OFFCURVE",
"569 466 OFFCURVE",
"454 466 CURVE SMOOTH",
"273 466 OFFCURVE",
"308 191 OFFCURVE",
"185 191 CURVE SMOOTH",
"157 191 OFFCURVE",
"121 211 OFFCURVE",
"121 254 CURVE SMOOTH",
"121 314 OFFCURVE",
"181 347 OFFCURVE",
"245 347 CURVE SMOOTH",
"272 347 OFFCURVE",
"293 343 OFFCURVE",
"311 337 CURVE",
"317 369 LINE",
"295 433 OFFCURVE",
"238 466 OFFCURVE",
"177 466 CURVE SMOOTH",
"79 466 OFFCURVE",
"25 390 OFFCURVE",
"25 310 CURVE SMOOTH",
"25 209 OFFCURVE",
"115 88 OFFCURVE",
"230 88 CURVE SMOOTH",
"411 88 OFFCURVE",
"376 363 OFFCURVE"
);
}
);
width = 693;
}
);
},
{
glyphname = dvV;
layers = (
{
layerId = "A7C7F4A0-D38E-458B-B20F-CA7152D87AAE";
name = Bold;
paths = (
{
closed = 1;
nodes = (
"-75 669 LINE",
"-78 663 OFFCURVE",
"-80 650 OFFCURVE",
"-80 642 CURVE SMOOTH",
"-80 552 OFFCURVE",
"10 552 OFFCURVE",
"46 552 CURVE SMOOTH",
"389 552 LINE",
"392 558 OFFCURVE",
"396 572 OFFCURVE",
"396 584 CURVE SMOOTH",
"396 669 OFFCURVE",
"306 669 OFFCURVE",
"270 669 CURVE SMOOTH"
);
},
{
closed = 1;
nodes = (
"134 295 CURVE SMOOTH",
"134 343 OFFCURVE",
"174 367 OFFCURVE",
"214 367 CURVE SMOOTH",
"250 367 OFFCURVE",
"272 354 OFFCURVE",
"280 349 CURVE",
"290 362 OFFCURVE",
"295 383 OFFCURVE",
"295 399 CURVE SMOOTH",
"295 456 OFFCURVE",
"237 489 OFFCURVE",
"175 489 CURVE SMOOTH",
"104 489 OFFCURVE",
"29 446 OFFCURVE",
"29 348 CURVE SMOOTH",
"29 255 OFFCURVE",
"137 118 OFFCURVE",
"267 118 CURVE SMOOTH",
"389 118 OFFCURVE",
"461 189 OFFCURVE",
"461 256 CURVE SMOOTH",
"461 289 OFFCURVE",
"445 322 OFFCURVE",
"403 342 CURVE",
"351 257 OFFCURVE",
"284 223 OFFCURVE",
"224 223 CURVE SMOOTH",
"171 223 OFFCURVE",
"134 254 OFFCURVE"
);
}
);
width = 328;
}
);
},
{
glyphname = dvSH;
layers = (
{
layerId = "A7C7F4A0-D38E-458B-B20F-CA7152D87AAE";
name = Bold;
paths = (
{
closed = 1;
nodes = (
"130 257 LINE",
"162 161 OFFCURVE",
"227 -10 OFFCURVE",
"358 -10 CURVE SMOOTH",
"414 -10 OFFCURVE",
"434 29 OFFCURVE",
"434 61 CURVE SMOOTH",
"434 79 OFFCURVE",
"430 97 OFFCURVE",
"423 111 CURVE",
"406 107 OFFCURVE",
"391 106 OFFCURVE",
"376 106 CURVE SMOOTH",
"275 106 OFFCURVE",
"225 188 OFFCURVE",
"198 288 CURVE"
);
},
{
closed = 1;
nodes = (
"280 562 CURVE SMOOTH",
"313 562 OFFCURVE",
"330 519 OFFCURVE",
"330 480 CURVE SMOOTH",
"330 380 OFFCURVE",
"265 319 OFFCURVE",
"187 318 CURVE",
"174 352 OFFCURVE",
"144 411 OFFCURVE",
"90 411 CURVE SMOOTH",
"53 411 OFFCURVE",
"30 382 OFFCURVE",
"30 351 CURVE SMOOTH",
"30 268 OFFCURVE",
"129 207 OFFCURVE",
"221 207 CURVE SMOOTH",
"331 207 OFFCURVE",
"435 268 OFFCURVE",
"435 418 CURVE SMOOTH",
"435 514 OFFCURVE",
"361 668 OFFCURVE",
"233 668 CURVE SMOOTH",
"163 668 OFFCURVE",
"122 611 OFFCURVE",
"122 545 CURVE SMOOTH",
"122 457 OFFCURVE",
"194 394 OFFCURVE",
"246 394 CURVE SMOOTH",
"262 394 OFFCURVE",
"276 400 OFFCURVE",
"285 412 CURVE",
"257 431 OFFCURVE",
"238 474 OFFCURVE",
"238 505 CURVE SMOOTH",
"238 537 OFFCURVE",
"252 562 OFFCURVE"
);
}
);
width = 494;
}
);
},
{
glyphname = dvSS;
layers = (
{
layerId = "A7C7F4A0-D38E-458B-B20F-CA7152D87AAE";
name = Bold;
paths = (
{
closed = 1;
nodes = (
"-70 669 LINE",
"-73 663 OFFCURVE",
"-75 650 OFFCURVE",
"-75 642 CURVE SMOOTH",
"-75 552 OFFCURVE",
"15 552 OFFCURVE",
"51 552 CURVE SMOOTH",
"422 552 LINE",
"425 558 OFFCURVE",
"429 572 OFFCURVE",
"429 584 CURVE SMOOTH",
"429 669 OFFCURVE",
"339 669 OFFCURVE",
"303 669 CURVE SMOOTH"
);
},
{
closed = 1;
nodes = (
"375 293 CURVE",
"375 332 LINE",
"343 286 OFFCURVE",
"292 259 OFFCURVE",
"250 259 CURVE SMOOTH",
"193 259 OFFCURVE",
"182 295 OFFCURVE",
"182 350 CURVE SMOOTH",
"182 374 OFFCURVE",
"183 386 OFFCURVE",
"183 415 CURVE SMOOTH",
"183 439 OFFCURVE",
"179 466 OFFCURVE",
"164 491 CURVE",
"122 514 LINE",
"219 438 OFFCURVE",
"333 335 OFFCURVE"
);
},
{
closed = 1;
nodes = (
"478 280 CURVE",
"246 488 OFFCURVE",
"187 561 OFFCURVE",
"96 561 CURVE SMOOTH",
"78 561 OFFCURVE",
"59 558 OFFCURVE",
"38 552 CURVE",
"47 538 OFFCURVE",
"50 526 OFFCURVE",
"52 494 CURVE SMOOTH",
"53 470 OFFCURVE",
"53 434 OFFCURVE",
"53 379 CURVE SMOOTH",
"53 287 OFFCURVE",
"179 161 OFFCURVE",
"297 161 CURVE SMOOTH",
"395 161 OFFCURVE",
"459 248 OFFCURVE"
);
}
);
width = 356;
}
);
},
{
glyphname = dvS;
layers = (
{
layerId = "A7C7F4A0-D38E-458B-B20F-CA7152D87AAE";
name = Bold;
paths = (
{
closed = 1;
nodes = (
"-69 669 LINE",
"-72 663 OFFCURVE",
"-74 650 OFFCURVE",
"-74 642 CURVE SMOOTH",
"-74 552 OFFCURVE",
"16 552 OFFCURVE",
"52 552 CURVE SMOOTH",
"515 552 LINE",
"518 558 OFFCURVE",
"522 572 OFFCURVE",
"522 584 CURVE SMOOTH",
"522 669 OFFCURVE",
"432 669 OFFCURVE",
"396 669 CURVE SMOOTH"
);
},
{
closed = 1;
nodes = (
"165 323 LINE",
"150 382 OFFCURVE",
"130 431 OFFCURVE",
"79 431 CURVE SMOOTH",
"36 431 OFFCURVE",
"16 394 OFFCURVE",
"16 361 CURVE SMOOTH",
"16 272 OFFCURVE",
"115 216 OFFCURVE",
"189 216 CURVE SMOOTH",
"292 216 OFFCURVE",
"364 287 OFFCURVE",
"364 387 CURVE SMOOTH",
"364 466 OFFCURVE",
"318 539 OFFCURVE",
"266 584 CURVE",
"199 557 LINE",
"233 537 OFFCURVE",
"251 494 OFFCURVE",
"251 452 CURVE SMOOTH",
"251 398 OFFCURVE",
"221 346 OFFCURVE",
"155 346 CURVE SMOOTH",
"147 346 LINE"
);
},
{
closed = 1;
nodes = (
"563 388 CURVE",
"514 353 OFFCURVE",
"458 339 OFFCURVE",
"404 339 CURVE SMOOTH",
"379 339 OFFCURVE",
"351 343 OFFCURVE",
"327 351 CURVE",
"327 278 LINE",
"365 253 OFFCURVE",
"427 234 OFFCURVE",
"482 234 CURVE SMOOTH",
"559 234 OFFCURVE",
"597 274 OFFCURVE",
"597 318 CURVE SMOOTH",
"597 342 OFFCURVE",
"586 367 OFFCURVE"
);
},
{
closed = 1;
nodes = (
"105 260 LINE",
"132 163 OFFCURVE",
"185 -10 OFFCURVE",
"300 -10 CURVE SMOOTH",
"356 -10 OFFCURVE",
"376 29 OFFCURVE",
"376 61 CURVE SMOOTH",
"376 78 OFFCURVE",
"372 96 OFFCURVE",
"366 109 CURVE",
"356 106 OFFCURVE",
"344 105 OFFCURVE",
"334 105 CURVE SMOOTH",
"229 105 OFFCURVE",
"200 190 OFFCURVE",
"178 274 CURVE"
);
}
);
width = 470;
}
);
},
{
glyphname = dvJ_NY;
layers = (
{
layerId = "A7C7F4A0-D38E-458B-B20F-CA7152D87AAE";
name = Bold;
paths = (
{
closed = 1;
nodes = (
"-75 669 LINE",
"-78 663 OFFCURVE",
"-80 650 OFFCURVE",
"-80 642 CURVE SMOOTH",
"-80 552 OFFCURVE",
"10 552 OFFCURVE",
"46 552 CURVE SMOOTH",
"487 552 LINE",
"490 558 OFFCURVE",
"494 572 OFFCURVE",
"494 584 CURVE SMOOTH",
"494 669 OFFCURVE",
"404 669 OFFCURVE",
"368 669 CURVE SMOOTH"
);
},
{
closed = 1;
nodes = (
"155 168 LINE",
"135 244 OFFCURVE",
"112 273 OFFCURVE",
"71 273 CURVE SMOOTH",
"37 273 OFFCURVE",
"16 243 OFFCURVE",
"16 213 CURVE SMOOTH",
"16 124 OFFCURVE",
"135 84 OFFCURVE",
"200 84 CURVE SMOOTH",
"287 84 OFFCURVE",
"357 139 OFFCURVE",
"357 226 CURVE SMOOTH",
"357 289 OFFCURVE",
"315 347 OFFCURVE",
"268 383 CURVE",
"204 356 LINE",
"233 339 OFFCURVE",
"246 308 OFFCURVE",
"246 277 CURVE SMOOTH",
"246 229 OFFCURVE",
"212 202 OFFCURVE",
"167 202 CURVE SMOOTH",
"159 202 OFFCURVE",
"150 203 OFFCURVE",
"141 205 CURVE"
);
},
{
closed = 1;
nodes = (
"95 129 LINE",
"123 48 OFFCURVE",
"178 -97 OFFCURVE",
"297 -97 CURVE SMOOTH",
"353 -97 OFFCURVE",
"373 -58 OFFCURVE",
"373 -26 CURVE SMOOTH",
"373 -9 OFFCURVE",
"368 10 OFFCURVE",
"361 24 CURVE",
"345 19 OFFCURVE",
"330 19 OFFCURVE",
"315 19 CURVE SMOOTH",
"250 19 OFFCURVE",
"200 47 OFFCURVE",
"168 114 CURVE"
);
},
{
closed = 1;
nodes = (
"563 345 LINE",
"566 351 OFFCURVE",
"570 365 OFFCURVE",
"570 377 CURVE SMOOTH",
"570 462 OFFCURVE",
"480 462 OFFCURVE",
"444 462 CURVE SMOOTH",
"105 462 LINE",
"102 456 OFFCURVE",
"100 443 OFFCURVE",
"100 435 CURVE SMOOTH",
"100 345 OFFCURVE",
"190 345 OFFCURVE",
"226 345 CURVE SMOOTH"
);
}
);
width = 423;
}
);
},
{
glyphname = dvK_RA;
layers = (
{
anchors = (
{
name = abvm.bindu;
position = "{310, 669}";
},
{
name = abvm.e;
position = "{448, 669}";
},
{
name = blwm.r;
position = "{468, 0}";
},
{
name = blwm.u;
position = "{468, -1}";
},
{
name = blwm.uu;
position = "{468, -14}";
},
{
name = blwm.virama;
position = "{468, 0}";
}
);
layerId = "A7C7F4A0-D38E-458B-B20F-CA7152D87AAE";
name = Bold;
paths = (
{
closed = 1;
nodes = (
"834 584 CURVE SMOOTH",
"834 669 OFFCURVE",
"744 669 OFFCURVE",
"708 669 CURVE SMOOTH",
"-75 669 LINE",
"-78 663 OFFCURVE",
"-80 650 OFFCURVE",
"-80 642 CURVE SMOOTH",
"-80 552 OFFCURVE",
"10 552 OFFCURVE",
"46 552 CURVE SMOOTH",
"827 552 LINE",
"830 558 OFFCURVE",
"834 572 OFFCURVE"
);
},
{
closed = 1;
nodes = (
"212 183 LINE",
"160 151 OFFCURVE",
"84 124 OFFCURVE",
"10 111 CURVE",
"13 60 OFFCURVE",
"54 19 OFFCURVE",
"117 19 CURVE SMOOTH",
"158 19 OFFCURVE",
"273 56 OFFCURVE",
"377 201 CURVE",
"347 182 LINE",
"336 160 OFFCURVE",
"329 130 OFFCURVE",
"329 100 CURVE SMOOTH",
"329 46 OFFCURVE",
"353 -7 OFFCURVE",
"426 -7 CURVE SMOOTH",
"437 -7 OFFCURVE",
"453 -6 OFFCURVE",
"468 0 CURVE",
"457 18 OFFCURVE",
"453 69 OFFCURVE",
"453 105 CURVE SMOOTH",
"453 181 OFFCURVE",
"456 262 OFFCURVE",
"457 343 CURVE",
"437 250 LINE",
"466 310 OFFCURVE",
"514 374 OFFCURVE",
"578 374 CURVE SMOOTH",
"612 374 OFFCURVE",
"642 349 OFFCURVE",
"642 311 CURVE SMOOTH",
"642 265 OFFCURVE",
"609 230 OFFCURVE",
"564 217 CURVE SMOOTH",
"551 213 OFFCURVE",
"536 211 OFFCURVE",
"521 211 CURVE",
"520 206 OFFCURVE",
"520 202 OFFCURVE",
"520 200 CURVE SMOOTH",
"520 153 OFFCURVE",
"556 110 OFFCURVE",
"613 110 CURVE SMOOTH",
"693 110 OFFCURVE",
"746 179 OFFCURVE",
"746 252 CURVE SMOOTH",
"746 369 OFFCURVE",
"636 476 OFFCURVE",
"532 476 CURVE SMOOTH",
"456 476 OFFCURVE",
"423 421 OFFCURVE",
"410 398 CURVE",
"441 420 LINE",
"445 435 OFFCURVE",
"449 454 OFFCURVE",
"449 474 CURVE SMOOTH",
"449 521 OFFCURVE",
"430 570 OFFCURVE",
"364 570 CURVE SMOOTH",
"339 570 OFFCURVE",
"321 563 OFFCURVE",
"310 552 CURVE",
"325 529 OFFCURVE",
"325 485 OFFCURVE",
"325 448 CURVE SMOOTH",
"325 331 OFFCURVE",
"322 262 OFFCURVE",
"321 201 CURVE",
"348 352 LINE",
"317 288 OFFCURVE",
"266 222 OFFCURVE",
"198 222 CURVE SMOOTH",
"164 222 OFFCURVE",
"134 248 OFFCURVE",
"134 285 CURVE SMOOTH",
"134 326 OFFCURVE",
"160 358 OFFCURVE",
"198 374 CURVE SMOOTH",
"215 381 OFFCURVE",
"234 385 OFFCURVE",
"255 385 CURVE",
"256 390 OFFCURVE",
"256 394 OFFCURVE",
"256 396 CURVE SMOOTH",
"256 443 OFFCURVE",
"220 486 OFFCURVE",
"163 486 CURVE SMOOTH",
"83 486 OFFCURVE",
"30 417 OFFCURVE",
"30 344 CURVE SMOOTH",
"30 237 OFFCURVE",
"115 146 OFFCURVE",
"207 146 CURVE SMOOTH",
"218 146 OFFCURVE",
"230 148 OFFCURVE",
"230 148 CURVE"
);
}
);
width = 784;
}
);
},
{
glyphname = dvKH_RA;
layers = (
{
layerId = "A7C7F4A0-D38E-458B-B20F-CA7152D87AAE";
name = Bold;
paths = (
{
closed = 1;
nodes = (
"-50 669 LINE",
"-53 663 OFFCURVE",
"-55 650 OFFCURVE",
"-55 642 CURVE SMOOTH",
"-55 552 OFFCURVE",
"35 552 OFFCURVE",
"71 552 CURVE SMOOTH",
"871 552 LINE",
"874 558 OFFCURVE",
"878 572 OFFCURVE",
"878 584 CURVE SMOOTH",
"878 669 OFFCURVE",
"788 669 OFFCURVE",
"752 669 CURVE SMOOTH"
);
},
{
closed = 1;
nodes = (
"433 78 LINE",
"326 39 OFFCURVE",
"211 34 OFFCURVE",
"96 46 CURVE",
"79 -32 OFFCURVE",
"136 -71 OFFCURVE",
"214 -71 CURVE SMOOTH",
"328 -71 OFFCURVE",
"632 49 OFFCURVE",
"661 189 CURVE",
"634 161 LINE",
"626 134 OFFCURVE",
"622 108 OFFCURVE",
"622 86 CURVE SMOOTH",
"622 30 OFFCURVE",
"651 -7 OFFCURVE",
"711 -7 CURVE SMOOTH",
"722 -7 OFFCURVE",
"738 -6 OFFCURVE",
"753 0 CURVE",
"742 18 OFFCURVE",
"738 69 OFFCURVE",
"738 105 CURVE SMOOTH",
"738 208 OFFCURVE",
"743 322 OFFCURVE",
"743 431 CURVE SMOOTH",
"743 483 OFFCURVE",
"740 570 OFFCURVE",
"640 570 CURVE SMOOTH",
"622 570 OFFCURVE",
"605 564 OFFCURVE",
"595 552 CURVE",
"615 532 OFFCURVE",
"616 471 OFFCURVE",
"616 432 CURVE SMOOTH",
"616 393 LINE",
"662 410 LINE",
"625 453 OFFCURVE",
"586 492 OFFCURVE",
"517 492 CURVE SMOOTH",
"442 492 OFFCURVE",
"388 440 OFFCURVE",
"388 371 CURVE SMOOTH",
"388 290 OFFCURVE",
"442 248 OFFCURVE",
"498 248 CURVE SMOOTH",
"507 248 OFFCURVE",
"525 251 OFFCURVE",
"537 260 CURVE",
"522 273 OFFCURVE",
"511 304 OFFCURVE",
"511 334 CURVE SMOOTH",
"511 369 OFFCURVE",
"526 401 OFFCURVE",
"564 401 CURVE SMOOTH",
"596 401 OFFCURVE",
"612 370 OFFCURVE",
"612 336 CURVE SMOOTH",
"612 221 OFFCURVE",
"504 130 OFFCURVE",
"376 130 CURVE SMOOTH",
"282 130 OFFCURVE",
"188 182 OFFCURVE",
"162 284 CURVE",
"86 284 LINE",
"129 105 OFFCURVE",
"273 43 OFFCURVE",
"384 43 CURVE"
);
},
{
closed = 1;
nodes = (
"154 318 LINE",
"144 373 OFFCURVE",
"117 417 OFFCURVE",
"75 417 CURVE SMOOTH",
"35 417 OFFCURVE",
"16 387 OFFCURVE",
"16 355 CURVE SMOOTH",
"16 290 OFFCURVE",
"89 233 OFFCURVE",
"163 233 CURVE SMOOTH",
"275 233 OFFCURVE",
"335 299 OFFCURVE",
"335 384 CURVE SMOOTH",
"335 470 OFFCURVE",
"282 543 OFFCURVE",
"227 586 CURVE",
"173 554 LINE",
"197 527 OFFCURVE",
"217 478 OFFCURVE",
"217 430 CURVE SMOOTH",
"217 367 OFFCURVE",
"170 329 OFFCURVE",
"116 328 CURVE SMOOTH",
"103 328 OFFCURVE",
"84 329 OFFCURVE",
"84 329 CURVE"
);
}
);
width = 815;
}
);
},
{
glyphname = dvG_RA;
layers = (
{
layerId = "A7C7F4A0-D38E-458B-B20F-CA7152D87AAE";
name = Bold;
paths = (
{
closed = 1;
nodes = (
"421 186 LINE",
"412 164 OFFCURVE",
"406 135 OFFCURVE",
"406 108 CURVE SMOOTH",
"406 50 OFFCURVE",
"432 -7 OFFCURVE",
"507 -7 CURVE SMOOTH",
"518 -7 OFFCURVE",
"534 -6 OFFCURVE",
"549 0 CURVE",
"538 18 OFFCURVE",
"534 69 OFFCURVE",
"534 105 CURVE SMOOTH",
"534 208 OFFCURVE",
"539 322 OFFCURVE",
"539 431 CURVE SMOOTH",
"539 483 OFFCURVE",
"536 570 OFFCURVE",
"436 570 CURVE SMOOTH",
"418 570 OFFCURVE",
"401 564 OFFCURVE",
"391 552 CURVE",
"406 529 OFFCURVE",
"406 485 OFFCURVE",
"406 448 CURVE SMOOTH",
"406 368 OFFCURVE",
"404 310 OFFCURVE",
"403 262 CURVE",
"414 304 LINE",
"361 259 OFFCURVE",
"198 152 OFFCURVE",
"81 128 CURVE",
"84 77 OFFCURVE",
"123 34 OFFCURVE",
"182 34 CURVE SMOOTH",
"213 34 OFFCURVE",
"309 56 OFFCURVE",
"448 197 CURVE"
);
},
{
closed = 1;
nodes = (
"-78 669 LINE",
"-81 663 OFFCURVE",
"-83 650 OFFCURVE",
"-83 642 CURVE SMOOTH",
"-83 552 OFFCURVE",
"7 552 OFFCURVE",
"43 552 CURVE SMOOTH",
"668 552 LINE",
"671 558 OFFCURVE",
"675 572 OFFCURVE",
"675 584 CURVE SMOOTH",
"675 669 OFFCURVE",
"585 669 OFFCURVE",
"549 669 CURVE SMOOTH"
);
},
{
closed = 1;
nodes = (
"182 580 CURVE",
"83 580 LINE",
"121 561 OFFCURVE",
"161 521 OFFCURVE",
"161 464 CURVE SMOOTH",
"161 447 OFFCURVE",
"158 425 OFFCURVE",
"149 413 CURVE",
"132 439 OFFCURVE",
"108 451 OFFCURVE",
"86 451 CURVE SMOOTH",
"55 451 OFFCURVE",
"27 430 OFFCURVE",
"27 387 CURVE SMOOTH",
"27 310 OFFCURVE",
"99 255 OFFCURVE",
"165 255 CURVE SMOOTH",
"224 255 OFFCURVE",
"283 294 OFFCURVE",
"283 385 CURVE SMOOTH",
"283 466 OFFCURVE",
"240 539 OFFCURVE"
);
}
);
width = 612;
}
);
},
{
glyphname = dvGH_RA;
layers = (
{
layerId = "A7C7F4A0-D38E-458B-B20F-CA7152D87AAE";
name = Bold;
paths = (
{
closed = 1;
nodes = (
"-78 669 LINE",
"-81 663 OFFCURVE",
"-83 650 OFFCURVE",
"-83 642 CURVE SMOOTH",
"-83 571 OFFCURVE",
"-25 553 OFFCURVE",
"26 553 CURVE SMOOTH",
"40 553 OFFCURVE",
"52 554 OFFCURVE",
"64 556 CURVE",
"62 571 LINE",
"47 546 OFFCURVE",
"41 520 OFFCURVE",
"41 495 CURVE SMOOTH",
"41 395 OFFCURVE",
"146 308 OFFCURVE",
"249 308 CURVE SMOOTH",
"290 308 OFFCURVE",
"331 330 OFFCURVE",
"331 368 CURVE SMOOTH",
"331 413 OFFCURVE",
"285 443 OFFCURVE",
"231 443 CURVE SMOOTH",
"150 443 OFFCURVE",
"69 384 OFFCURVE",
"69 293 CURVE SMOOTH",
"69 214 OFFCURVE",
"150 128 OFFCURVE",
"263 128 CURVE SMOOTH",
"273 128 OFFCURVE",
"290 130 OFFCURVE",
"290 130 CURVE",
"328 165 LINE",
"251 130 OFFCURVE",
"134 90 OFFCURVE",
"56 78 CURVE",
"59 26 OFFCURVE",
"101 -18 OFFCURVE",
"165 -18 CURVE SMOOTH",
"225 -18 OFFCURVE",
"357 58 OFFCURVE",
"450 167 CURVE",
"445 184 LINE",
"434 152 OFFCURVE",
"430 118 OFFCURVE",
"430 94 CURVE SMOOTH",
"430 28 OFFCURVE",
"470 -7 OFFCURVE",
"527 -7 CURVE SMOOTH",
"538 -7 OFFCURVE",
"554 -6 OFFCURVE",
"569 0 CURVE",
"558 18 OFFCURVE",
"554 69 OFFCURVE",
"554 105 CURVE SMOOTH",
"554 208 OFFCURVE",
"559 322 OFFCURVE",
"559 431 CURVE SMOOTH",
"559 483 OFFCURVE",
"556 570 OFFCURVE",
"456 570 CURVE SMOOTH",
"438 570 OFFCURVE",
"421 564 OFFCURVE",
"411 552 CURVE",
"426 529 OFFCURVE",
"426 485 OFFCURVE",
"426 448 CURVE SMOOTH",
"426 362 OFFCURVE",
"424 302 OFFCURVE",
"423 252 CURVE",
"430 312 LINE",
"402 248 OFFCURVE",
"329 198 OFFCURVE",
"253 198 CURVE SMOOTH",
"214 198 OFFCURVE",
"180 219 OFFCURVE",
"180 255 CURVE SMOOTH",
"180 302 OFFCURVE",
"223 326 OFFCURVE",
"258 329 CURVE",
"202 349 OFFCURVE",
"152 391 OFFCURVE",
"152 446 CURVE SMOOTH",
"152 522 OFFCURVE",
"206 552 OFFCURVE",
"233 561 CURVE",
"183 552 LINE",
"687 552 LINE",
"690 558 OFFCURVE",
"694 572 OFFCURVE",
"694 584 CURVE SMOOTH",
"694 669 OFFCURVE",
"604 669 OFFCURVE",
"568 669 CURVE SMOOTH"
);
}
);
width = 631;
}
);
},
{
glyphname = dvNG_RA;
layers = (
{
anchors = (
{
name = abvm.bindu;
position = "{248, 669}";
},
{
name = abvm.e;
position = "{456, 669}";
},
{
name = blwm.r;
position = "{443, -295}";
},
{
name = blwm.u;
position = "{384, -290}";
},
{
name = blwm.uu;
position = "{384, -304}";
},
{
name = blwm.virama;
position = "{399, -229}";
}
);
layerId = "A7C7F4A0-D38E-458B-B20F-CA7152D87AAE";
name = Bold;
paths = (
{
closed = 1;
nodes = (
"146 -264 CURVE",
"218 -189 OFFCURVE",
"286 -146 OFFCURVE",
"312 -146 CURVE SMOOTH",
"354 -146 OFFCURVE",
"473 -260 OFFCURVE",
"473 -260 CURVE",
"495 -251 OFFCURVE",
"507 -235 OFFCURVE",
"507 -216 CURVE SMOOTH",
"507 -160 OFFCURVE",
"355 -34 OFFCURVE",
"286 -34 CURVE SMOOTH",
"224 -34 OFFCURVE",
"88 -119 OFFCURVE",
"88 -189 CURVE SMOOTH",
"88 -220 OFFCURVE",
"107 -250 OFFCURVE"
);
},
{
closed = 1;
nodes = (
"-65 669 LINE",
"-68 663 OFFCURVE",
"-70 650 OFFCURVE",
"-70 642 CURVE SMOOTH",
"-70 552 OFFCURVE",
"20 552 OFFCURVE",
"56 552 CURVE SMOOTH",
"717 552 LINE",
"720 558 OFFCURVE",
"724 572 OFFCURVE",
"724 584 CURVE SMOOTH",
"724 669 OFFCURVE",
"634 669 OFFCURVE",
"598 669 CURVE SMOOTH"
);
},
{
closed = 1;
nodes = (
"352 555 LINE",
"368 546 OFFCURVE",
"375 534 OFFCURVE",
"375 522 CURVE SMOOTH",
"375 502 OFFCURVE",
"358 493 OFFCURVE",
"332 493 CURVE SMOOTH",
"285 494 OFFCURVE",
"251 494 OFFCURVE",
"216 494 CURVE SMOOTH",
"125 494 OFFCURVE",
"75 449 OFFCURVE",
"75 377 CURVE SMOOTH",
"75 274 OFFCURVE",
"163 187 OFFCURVE",
"264 187 CURVE SMOOTH",
"319 187 OFFCURVE",
"374 194 OFFCURVE",
"404 194 CURVE SMOOTH",
"430 194 OFFCURVE",
"441 183 OFFCURVE",
"441 168 CURVE SMOOTH",
"441 133 OFFCURVE",
"381 107 OFFCURVE",
"299 107 CURVE SMOOTH",
"203 107 OFFCURVE",
"116 143 OFFCURVE",
"64 199 CURVE",
"53 195 OFFCURVE",
"37 187 OFFCURVE",
"37 164 CURVE SMOOTH",
"37 97 OFFCURVE",
"188 -9 OFFCURVE",
"359 -9 CURVE SMOOTH",
"466 -9 OFFCURVE",
"531 50 OFFCURVE",
"531 134 CURVE SMOOTH",
"531 231 OFFCURVE",
"449 315 OFFCURVE",
"351 315 CURVE SMOOTH",
"306 315 OFFCURVE",
"250 306 OFFCURVE",
"207 306 CURVE SMOOTH",
"185 306 OFFCURVE",
"163 315 OFFCURVE",
"163 337 CURVE SMOOTH",
"163 375 OFFCURVE",
"228 377 OFFCURVE",
"265 377 CURVE SMOOTH",
"297 377 OFFCURVE",
"334 376 OFFCURVE",
"370 376 CURVE SMOOTH",
"444 376 OFFCURVE",
"479 416 OFFCURVE",
"479 465 CURVE SMOOTH",
"479 501 OFFCURVE",
"459 541 OFFCURVE",
"422 569 CURVE"
);
},
{
closed = 1;
nodes = (
"599 265 CURVE SMOOTH",
"635 265 OFFCURVE",
"658 291 OFFCURVE",
"658 324 CURVE SMOOTH",
"658 366 OFFCURVE",
"617 405 OFFCURVE",
"577 405 CURVE SMOOTH",
"541 405 OFFCURVE",
"518 380 OFFCURVE",
"518 346 CURVE SMOOTH",
"518 304 OFFCURVE",
"557 265 OFFCURVE"
);
}
);
width = 661;
}
);
},
{
glyphname = dvC_RA;
layers = (
{
layerId = "A7C7F4A0-D38E-458B-B20F-CA7152D87AAE";
name = Bold;
paths = (
{
closed = 1;
nodes = (
"-87 669 LINE",
"-90 663 OFFCURVE",
"-92 650 OFFCURVE",
"-92 642 CURVE SMOOTH",
"-92 552 OFFCURVE",
"-2 552 OFFCURVE",
"34 552 CURVE SMOOTH",
"730 552 LINE",
"733 558 OFFCURVE",
"737 572 OFFCURVE",
"737 584 CURVE SMOOTH",
"737 669 OFFCURVE",
"647 669 OFFCURVE",
"611 669 CURVE SMOOTH"
);
},
{
closed = 1;
nodes = (
"97 88 CURVE",
"100 36 OFFCURVE",
"142 -8 OFFCURVE",
"206 -8 CURVE SMOOTH",
"279 -8 OFFCURVE",
"450 103 OFFCURVE",
"505 184 CURVE",
"491 186 LINE",
"481 162 OFFCURVE",
"474 129 OFFCURVE",
"474 96 CURVE SMOOTH",
"474 44 OFFCURVE",
"497 -7 OFFCURVE",
"569 -7 CURVE SMOOTH",
"580 -7 OFFCURVE",
"596 -6 OFFCURVE",
"611 0 CURVE",
"600 18 OFFCURVE",
"596 69 OFFCURVE",
"596 105 CURVE SMOOTH",
"596 208 OFFCURVE",
"601 322 OFFCURVE",
"601 431 CURVE SMOOTH",
"601 483 OFFCURVE",
"598 570 OFFCURVE",
"498 570 CURVE SMOOTH",
"480 570 OFFCURVE",
"463 564 OFFCURVE",
"453 552 CURVE",
"468 529 OFFCURVE",
"468 485 OFFCURVE",
"468 448 CURVE SMOOTH",
"468 374 OFFCURVE",
"467 318 OFFCURVE",
"466 271 CURVE",
"476 358 LINE",
"453 258 OFFCURVE",
"379 216 OFFCURVE",
"320 216 CURVE SMOOTH",
"275 216 OFFCURVE",
"239 240 OFFCURVE",
"239 280 CURVE SMOOTH",
"239 327 OFFCURVE",
"283 349 OFFCURVE",
"330 349 CURVE SMOOTH",
"365 349 LINE",
"368 355 OFFCURVE",
"372 367 OFFCURVE",
"372 379 CURVE SMOOTH",
"372 464 OFFCURVE",
"282 464 OFFCURVE",
"246 464 CURVE SMOOTH",
"2 464 LINE",
"-1 458 OFFCURVE",
"-3 446 OFFCURVE",
"-3 437 CURVE SMOOTH",
"-3 372 OFFCURVE",
"49 348 OFFCURVE",
"98 348 CURVE SMOOTH",
"123 348 OFFCURVE",
"154 359 OFFCURVE",
"177 374 CURVE",
"172 402 LINE",
"148 375 OFFCURVE",
"141 347 OFFCURVE",
"141 318 CURVE SMOOTH",
"141 248 OFFCURVE",
"206 154 OFFCURVE",
"299 138 CURVE SMOOTH",
"308 137 OFFCURVE",
"317 136 OFFCURVE",
"326 136 CURVE",
"352 180 LINE",
"272 140 OFFCURVE",
"176 102 OFFCURVE"
);
}
);
width = 674;
}
);
},
{
glyphname = dvCH_RA;
layers = (
{
anchors = (
{
name = abvm.bindu;
position = "{259, 669}";
},
{
name = abvm.e;
position = "{559, 669}";
},
{
name = blwm.r;
position = "{507, -271}";
},
{
name = blwm.u;
position = "{414, -259}";
},
{
name = blwm.uu;
position = "{414, -273}";
},
{
name = blwm.virama;
position = "{429, -197}";
}
);
layerId = "A7C7F4A0-D38E-458B-B20F-CA7152D87AAE";
name = Bold;
paths = (
{
closed = 1;
nodes = (
"209 -233 CURVE",
"281 -158 OFFCURVE",
"349 -115 OFFCURVE",
"375 -115 CURVE SMOOTH",
"417 -115 OFFCURVE",
"536 -229 OFFCURVE",
"536 -229 CURVE",
"558 -220 OFFCURVE",
"570 -204 OFFCURVE",
"570 -185 CURVE SMOOTH",
"570 -129 OFFCURVE",
"418 -3 OFFCURVE",
"349 -3 CURVE SMOOTH",
"287 -3 OFFCURVE",
"151 -88 OFFCURVE",
"151 -158 CURVE SMOOTH",
"151 -189 OFFCURVE",
"170 -219 OFFCURVE"
);
},
{
closed = 1;
nodes = (
"559 451 LINE",
"559 503 OFFCURVE",
"549 570 OFFCURVE",
"469 570 CURVE SMOOTH",
"454 570 OFFCURVE",
"440 564 OFFCURVE",
"430 552 CURVE",
"445 534 OFFCURVE",
"449 503 OFFCURVE",
"449 472 CURVE"
);
},
{
closed = 1;
nodes = (
"172 552 LINE",
"750 552 LINE",
"753 558 OFFCURVE",
"757 572 OFFCURVE",
"757 584 CURVE SMOOTH",
"757 669 OFFCURVE",
"667 669 OFFCURVE",
"631 669 CURVE SMOOTH",
"-65 669 LINE",
"-68 663 OFFCURVE",
"-70 650 OFFCURVE",
"-70 642 CURVE SMOOTH",
"-70 571 OFFCURVE",
"-12 553 OFFCURVE",
"39 553 CURVE SMOOTH",
"53 553 OFFCURVE",
"65 554 OFFCURVE",
"77 556 CURVE",
"75 571 LINE",
"59 544 OFFCURVE",
"52 515 OFFCURVE",
"52 486 CURVE SMOOTH",
"52 382 OFFCURVE",
"145 281 OFFCURVE",
"252 281 CURVE SMOOTH",
"294 281 OFFCURVE",
"335 303 OFFCURVE",
"335 344 CURVE SMOOTH",
"335 387 OFFCURVE",
"291 416 OFFCURVE",
"238 416 CURVE SMOOTH",
"138 416 OFFCURVE",
"57 354 OFFCURVE",
"57 265 CURVE SMOOTH",
"57 124 OFFCURVE",
"212 22 OFFCURVE",
"362 22 CURVE SMOOTH",
"532 22 OFFCURVE",
"652 127 OFFCURVE",
"652 295 CURVE SMOOTH",
"652 402 OFFCURVE",
"590 504 OFFCURVE",
"491 504 CURVE SMOOTH",
"421 504 OFFCURVE",
"386 434 OFFCURVE",
"386 376 CURVE SMOOTH",
"386 305 OFFCURVE",
"429 246 OFFCURVE",
"467 246 CURVE SMOOTH",
"476 246 OFFCURVE",
"484 251 OFFCURVE",
"487 256 CURVE",
"487 256 OFFCURVE",
"477 267 OFFCURVE",
"477 304 CURVE SMOOTH",
"477 338 OFFCURVE",
"491 392 OFFCURVE",
"528 392 CURVE SMOOTH",
"554 392 OFFCURVE",
"559 363 OFFCURVE",
"559 343 CURVE SMOOTH",
"559 201 OFFCURVE",
"418 126 OFFCURVE",
"302 126 CURVE SMOOTH",
"224 126 OFFCURVE",
"163 163 OFFCURVE",
"163 221 CURVE SMOOTH",
"163 278 OFFCURVE",
"219 304 OFFCURVE",
"263 311 CURVE",
"198 328 OFFCURVE",
"161 386 OFFCURVE",
"161 444 CURVE SMOOTH",
"161 492 OFFCURVE",
"187 540 OFFCURVE",
"246 561 CURVE"
);
}
);
width = 694;
}
);
},
{
glyphname = dvJ_RA;
layers = (
{
layerId = "A7C7F4A0-D38E-458B-B20F-CA7152D87AAE";
name = Bold;
paths = (
{
closed = 1;
nodes = (
"-60 669 LINE",
"-63 663 OFFCURVE",
"-65 650 OFFCURVE",
"-65 642 CURVE SMOOTH",
"-65 552 OFFCURVE",
"25 552 OFFCURVE",
"61 552 CURVE SMOOTH",
"781 552 LINE",
"784 558 OFFCURVE",
"788 572 OFFCURVE",
"788 584 CURVE SMOOTH",
"788 669 OFFCURVE",
"698 669 OFFCURVE",
"662 669 CURVE SMOOTH"
);
},
{
closed = 1;
nodes = (
"557 462 LINE",
"200 462 LINE",
"197 456 OFFCURVE",
"195 443 OFFCURVE",
"195 435 CURVE SMOOTH",
"195 346 OFFCURVE",
"285 346 OFFCURVE",
"321 346 CURVE SMOOTH",
"557 346 LINE"
);
},
{
closed = 1;
nodes = (
"282 349 LINE",
"285 341 OFFCURVE",
"286 335 OFFCURVE",
"286 328 CURVE SMOOTH",
"286 301 OFFCURVE",
"269 274 OFFCURVE",
"230 274 CURVE SMOOTH",
"139 274 OFFCURVE",
"83 398 OFFCURVE",
"59 461 CURVE",
"39 460 OFFCURVE",
"13 449 OFFCURVE",
"13 410 CURVE SMOOTH",
"13 352 OFFCURVE",
"112 154 OFFCURVE",
"258 154 CURVE SMOOTH",
"325 154 OFFCURVE",
"375 197 OFFCURVE",
"375 270 CURVE SMOOTH",
"375 317 OFFCURVE",
"358 349 OFFCURVE",
"358 349 CURVE"
);
},
{
closed = 1;
nodes = (
"540 158 LINE",
"532 137 OFFCURVE",
"527 105 OFFCURVE",
"527 84 CURVE SMOOTH",
"527 35 OFFCURVE",
"558 -7 OFFCURVE",
"622 -7 CURVE SMOOTH",
"633 -7 OFFCURVE",
"649 -6 OFFCURVE",
"664 0 CURVE",
"653 18 OFFCURVE",
"649 69 OFFCURVE",
"649 105 CURVE SMOOTH",
"649 208 OFFCURVE",
"654 322 OFFCURVE",
"654 431 CURVE SMOOTH",
"654 483 OFFCURVE",
"651 570 OFFCURVE",
"551 570 CURVE SMOOTH",
"533 570 OFFCURVE",
"516 564 OFFCURVE",
"506 552 CURVE",
"521 529 OFFCURVE",
"521 485 OFFCURVE",
"521 448 CURVE SMOOTH",
"521 349 OFFCURVE",
"519 279 OFFCURVE",
"518 219 CURVE",
"531 254 LINE",
"478 209 OFFCURVE",
"315 103 OFFCURVE",
"198 78 CURVE",
"201 30 OFFCURVE",
"242 -11 OFFCURVE",
"305 -11 CURVE SMOOTH",
"347 -11 OFFCURVE",
"450 36 OFFCURVE",
"557 164 CURVE"
);
}
);
width = 725;
}
);
},
{
glyphname = dvJH_RA;
layers = (
{
layerId = "A7C7F4A0-D38E-458B-B20F-CA7152D87AAE";
name = Bold;
paths = (
{
closed = 1;
nodes = (
"-78 669 LINE",
"-81 663 OFFCURVE",
"-83 650 OFFCURVE",
"-83 642 CURVE SMOOTH",
"-83 552 OFFCURVE",
"7 552 OFFCURVE",
"43 552 CURVE SMOOTH",
"970 552 LINE",
"973 558 OFFCURVE",
"977 572 OFFCURVE",
"977 584 CURVE SMOOTH",
"977 669 OFFCURVE",
"887 669 OFFCURVE",
"851 669 CURVE SMOOTH"
);
},
{
closed = 1;
nodes = (
"117 81 LINE",
"143 -13 OFFCURVE",
"197 -203 OFFCURVE",
"336 -203 CURVE SMOOTH",
"383 -203 OFFCURVE",
"423 -173 OFFCURVE",
"423 -128 CURVE SMOOTH",
"423 -102 OFFCURVE",
"411 -78 OFFCURVE",
"392 -62 CURVE",
"373 -78 OFFCURVE",
"349 -83 OFFCURVE",
"331 -83 CURVE SMOOTH",
"254 -83 OFFCURVE",
"205 0 OFFCURVE",
"182 57 CURVE"
);
},
{
closed = 1;
nodes = (
"731 142 LINE",
"728 128 OFFCURVE",
"723 103 OFFCURVE",
"723 84 CURVE SMOOTH",
"723 42 OFFCURVE",
"739 -7 OFFCURVE",
"811 -7 CURVE SMOOTH",
"822 -7 OFFCURVE",
"838 -6 OFFCURVE",
"853 0 CURVE",
"842 18 OFFCURVE",
"838 69 OFFCURVE",
"838 105 CURVE SMOOTH",
"838 208 OFFCURVE",
"843 322 OFFCURVE",
"843 431 CURVE SMOOTH",
"843 483 OFFCURVE",
"840 570 OFFCURVE",
"740 570 CURVE SMOOTH",
"722 570 OFFCURVE",
"706 564 OFFCURVE",
"696 552 CURVE",
"711 529 OFFCURVE",
"711 485 OFFCURVE",
"711 448 CURVE SMOOTH",
"711 416 OFFCURVE",
"710 391 OFFCURVE",
"710 369 CURVE",
"727 420 LINE",
"664 329 OFFCURVE",
"566 314 OFFCURVE",
"464 314 CURVE SMOOTH",
"413 314 OFFCURVE",
"361 318 OFFCURVE",
"312 318 CURVE SMOOTH",
"258 318 OFFCURVE",
"229 310 OFFCURVE",
"198 310 CURVE SMOOTH",
"177 310 OFFCURVE",
"152 316 OFFCURVE",
"152 340 CURVE SMOOTH",
"152 377 OFFCURVE",
"223 377 OFFCURVE",
"254 377 CURVE SMOOTH",
"276 377 OFFCURVE",
"303 376 OFFCURVE",
"328 376 CURVE SMOOTH",
"402 376 OFFCURVE",
"437 416 OFFCURVE",
"437 465 CURVE SMOOTH",
"437 501 OFFCURVE",
"418 542 OFFCURVE",
"380 570 CURVE",
"310 555 LINE",
"327 546 OFFCURVE",
"333 533 OFFCURVE",
"333 521 CURVE SMOOTH",
"333 502 OFFCURVE",
"313 493 OFFCURVE",
"282 493 CURVE SMOOTH",
"251 493 OFFCURVE",
"228 494 OFFCURVE",
"205 494 CURVE SMOOTH",
"114 494 OFFCURVE",
"64 449 OFFCURVE",
"64 377 CURVE SMOOTH",
"64 276 OFFCURVE",
"152 191 OFFCURVE",
"253 191 CURVE SMOOTH",
"289 191 OFFCURVE",
"325 198 OFFCURVE",
"344 198 CURVE SMOOTH",
"366 198 OFFCURVE",
"379 186 OFFCURVE",
"379 168 CURVE SMOOTH",
"379 133 OFFCURVE",
"312 107 OFFCURVE",
"249 107 CURVE SMOOTH",
"221 107 OFFCURVE",
"190 112 OFFCURVE",
"168 124 CURVE",
"157 163 OFFCURVE",
"127 207 OFFCURVE",
"84 207 CURVE SMOOTH",
"52 207 OFFCURVE",
"33 182 OFFCURVE",
"33 154 CURVE SMOOTH",
"33 56 OFFCURVE",
"151 -9 OFFCURVE",
"297 -9 CURVE SMOOTH",
"398 -9 OFFCURVE",
"469 46 OFFCURVE",
"469 134 CURVE SMOOTH",
"469 178 OFFCURVE",
"452 212 OFFCURVE",
"432 245 CURVE",
"382 258 LINE",
"439 228 OFFCURVE",
"508 220 OFFCURVE",
"561 220 CURVE SMOOTH",
"667 220 OFFCURVE",
"733 274 OFFCURVE",
"749 301 CURVE",
"724 291 LINE",
"719 262 OFFCURVE",
"719 224 OFFCURVE",
"717 191 CURVE",
"726 227 LINE",
"657 181 OFFCURVE",
"579 140 OFFCURVE",
"502 117 CURVE",
"512 70 OFFCURVE",
"549 36 OFFCURVE",
"599 36 CURVE SMOOTH",
"653 36 OFFCURVE",
"705 78 OFFCURVE",
"739 135 CURVE"
);
}
);
width = 914;
}
);
},
{
glyphname = dvNY_RA;
layers = (
{
layerId = "A7C7F4A0-D38E-458B-B20F-CA7152D87AAE";
name = Bold;
paths = (
{
closed = 1;
nodes = (
"-78 669 LINE",
"-81 663 OFFCURVE",
"-83 650 OFFCURVE",
"-83 642 CURVE SMOOTH",
"-83 552 OFFCURVE",
"7 552 OFFCURVE",
"43 552 CURVE SMOOTH",
"802 552 LINE",
"805 558 OFFCURVE",
"809 572 OFFCURVE",
"809 584 CURVE SMOOTH",
"809 669 OFFCURVE",
"719 669 OFFCURVE",
"683 669 CURVE SMOOTH"
);
},
{
closed = 1;
nodes = (
"416 306 LINE",
"445 296 OFFCURVE",
"480 292 OFFCURVE",
"512 292 CURVE SMOOTH",
"524 292 OFFCURVE",
"536 293 OFFCURVE",
"547 294 CURVE",
"547 417 LINE",
"519 390 OFFCURVE",
"477 375 OFFCURVE",
"438 375 CURVE SMOOTH",
"433 375 OFFCURVE",
"429 375 OFFCURVE",
"424 376 CURVE"
);
},
{
closed = 1;
nodes = (
"57 469 CURVE",
"37 469 OFFCURVE",
"11 457 OFFCURVE",
"11 418 CURVE SMOOTH",
"11 362 OFFCURVE",
"110 185 OFFCURVE",
"281 185 CURVE SMOOTH",
"371 185 OFFCURVE",
"439 238 OFFCURVE",
"439 327 CURVE SMOOTH",
"439 419 OFFCURVE",
"366 503 OFFCURVE",
"288 503 CURVE SMOOTH",
"231 503 OFFCURVE",
"201 463 OFFCURVE",
"201 424 CURVE SMOOTH",
"201 388 OFFCURVE",
"227 356 OFFCURVE",
"255 347 CURVE",
"265 371 OFFCURVE",
"293 393 OFFCURVE",
"321 393 CURVE SMOOTH",
"338 393 OFFCURVE",
"349 382 OFFCURVE",
"349 367 CURVE SMOOTH",
"349 335 OFFCURVE",
"308 297 OFFCURVE",
"245 297 CURVE SMOOTH",
"143 297 OFFCURVE",
"86 398 OFFCURVE"
);
},
{
closed = 1;
nodes = (
"554 152 LINE",
"547 132 OFFCURVE",
"544 112 OFFCURVE",
"544 92 CURVE SMOOTH",
"544 39 OFFCURVE",
"571 -7 OFFCURVE",
"639 -7 CURVE SMOOTH",
"650 -7 OFFCURVE",
"666 -6 OFFCURVE",
"681 0 CURVE",
"670 18 OFFCURVE",
"666 69 OFFCURVE",
"666 105 CURVE SMOOTH",
"666 208 OFFCURVE",
"671 322 OFFCURVE",
"671 431 CURVE SMOOTH",
"671 483 OFFCURVE",
"668 570 OFFCURVE",
"568 570 CURVE SMOOTH",
"550 570 OFFCURVE",
"533 564 OFFCURVE",
"523 552 CURVE",
"538 529 OFFCURVE",
"538 485 OFFCURVE",
"538 448 CURVE SMOOTH",
"538 354 OFFCURVE",
"536 286 OFFCURVE",
"535 230 CURVE",
"546 260 LINE",
"493 217 OFFCURVE",
"331 115 OFFCURVE",
"214 92 CURVE",
"217 40 OFFCURVE",
"258 0 OFFCURVE",
"322 0 CURVE SMOOTH",
"351 0 OFFCURVE",
"426 11 OFFCURVE",
"573 164 CURVE"
);
}
);
width = 746;
}
);
},
{
glyphname = dvTT_RA;
layers = (
{
anchors = (
{
name = abvm.bindu;
position = "{194, 669}";
},
{
name = abvm.e;
position = "{353, 669}";
},
{
name = blwm.r;
position = "{394, -248}";
},
{
name = blwm.u;
position = "{335, -233}";
},
{
name = blwm.uu;
position = "{335, -247}";
},
{
name = blwm.virama;
position = "{350, -172}";
}
);
layerId = "A7C7F4A0-D38E-458B-B20F-CA7152D87AAE";
name = Bold;
paths = (
{
closed = 1;
nodes = (
"97 -207 CURVE",
"169 -132 OFFCURVE",
"237 -89 OFFCURVE",
"263 -89 CURVE SMOOTH",
"305 -89 OFFCURVE",
"424 -203 OFFCURVE",
"424 -203 CURVE",
"446 -194 OFFCURVE",
"458 -178 OFFCURVE",
"458 -159 CURVE SMOOTH",
"458 -103 OFFCURVE",
"306 23 OFFCURVE",
"237 23 CURVE SMOOTH",
"175 23 OFFCURVE",
"39 -62 OFFCURVE",
"39 -132 CURVE SMOOTH",
"39 -163 OFFCURVE",
"58 -193 OFFCURVE"
);
},
{
closed = 1;
nodes = (
"246 552 LINE",
"254 543 OFFCURVE",
"258 532 OFFCURVE",
"258 521 CURVE SMOOTH",
"258 447 OFFCURVE",
"26 451 OFFCURVE",
"26 272 CURVE SMOOTH",
"26 151 OFFCURVE",
"176 48 OFFCURVE",
"287 48 CURVE SMOOTH",
"422 48 OFFCURVE",
"469 118 OFFCURVE",
"469 168 CURVE SMOOTH",
"469 220 OFFCURVE",
"432 260 OFFCURVE",
"381 264 CURVE",
"367 198 OFFCURVE",
"302 146 OFFCURVE",
"234 146 CURVE SMOOTH",
"180 146 OFFCURVE",
"142 181 OFFCURVE",
"142 225 CURVE SMOOTH",
"142 366 OFFCURVE",
"378 347 OFFCURVE",
"378 475 CURVE SMOOTH",
"378 516 OFFCURVE",
"344 546 OFFCURVE",
"316 564 CURVE"
);
},
{
closed = 1;
nodes = (
"-65 669 LINE",
"-68 663 OFFCURVE",
"-70 650 OFFCURVE",
"-70 642 CURVE SMOOTH",
"-70 552 OFFCURVE",
"20 552 OFFCURVE",
"56 552 CURVE SMOOTH",
"543 552 LINE",
"546 558 OFFCURVE",
"550 572 OFFCURVE",
"550 584 CURVE SMOOTH",
"550 669 OFFCURVE",
"460 669 OFFCURVE",
"424 669 CURVE SMOOTH"
);
}
);
width = 485;
}
);
},
{
glyphname = dvTTH_RA;
layers = (
{
anchors = (
{
name = abvm.bindu;
position = "{205, 669}";
},
{
name = abvm.e;
position = "{353, 669}";
},
{
name = blwm.r;
position = "{418, -255}";
},
{
name = blwm.u;
position = "{359, -242}";
},
{
name = blwm.uu;
position = "{359, -256}";
},
{
name = blwm.virama;
position = "{374, -181}";
}
);
layerId = "A7C7F4A0-D38E-458B-B20F-CA7152D87AAE";
name = Bold;
paths = (
{
closed = 1;
nodes = (
"121 -216 CURVE",
"193 -141 OFFCURVE",
"261 -98 OFFCURVE",
"287 -98 CURVE SMOOTH",
"329 -98 OFFCURVE",
"448 -212 OFFCURVE",
"448 -212 CURVE",
"470 -203 OFFCURVE",
"482 -187 OFFCURVE",
"482 -168 CURVE SMOOTH",
"482 -112 OFFCURVE",
"330 14 OFFCURVE",
"261 14 CURVE SMOOTH",
"199 14 OFFCURVE",
"63 -71 OFFCURVE",
"63 -141 CURVE SMOOTH",
"63 -172 OFFCURVE",
"82 -202 OFFCURVE"
);
},
{
closed = 1;
nodes = (
"-65 669 LINE",
"-68 663 OFFCURVE",
"-70 650 OFFCURVE",
"-70 642 CURVE SMOOTH",
"-70 552 OFFCURVE",
"20 552 OFFCURVE",
"56 552 CURVE SMOOTH",
"578 552 LINE",
"581 558 OFFCURVE",
"585 572 OFFCURVE",
"585 584 CURVE SMOOTH",
"585 669 OFFCURVE",
"495 669 OFFCURVE",
"459 669 CURVE SMOOTH"
);
},
{
closed = 1;
nodes = (
"254 359 LINE",
"321 355 OFFCURVE",
"375 313 OFFCURVE",
"375 254 CURVE SMOOTH",
"375 198 OFFCURVE",
"316 137 OFFCURVE",
"234 137 CURVE SMOOTH",
"189 137 OFFCURVE",
"138 161 OFFCURVE",
"138 221 CURVE SMOOTH",
"138 361 OFFCURVE",
"384 356 OFFCURVE",
"384 477 CURVE SMOOTH",
"384 518 OFFCURVE",
"350 548 OFFCURVE",
"322 566 CURVE",
"252 554 LINE",
"260 545 OFFCURVE",
"264 534 OFFCURVE",
"264 523 CURVE SMOOTH",
"264 448 OFFCURVE",
"27 450 OFFCURVE",
"27 267 CURVE SMOOTH",
"27 151 OFFCURVE",
"164 39 OFFCURVE",
"286 39 CURVE SMOOTH",
"399 39 OFFCURVE",
"500 106 OFFCURVE",
"500 226 CURVE SMOOTH",
"500 308 OFFCURVE",
"439 399 OFFCURVE",
"325 399 CURVE"
);
}
);
width = 520;
}
);
},
{
glyphname = dvDD_RA;
layers = (
{
anchors = (
{
name = abvm.bindu;
position = "{224, 669}";
},
{
name = abvm.e;
position = "{456, 669}";
},
{
name = blwm.r;
position = "{439, -307}";
},
{
name = blwm.u;
position = "{381, -290}";
},
{
name = blwm.uu;
position = "{381, -304}";
},
{
name = blwm.virama;
position = "{396, -229}";
}
);
layerId = "A7C7F4A0-D38E-458B-B20F-CA7152D87AAE";
name = Bold;
paths = (
{
closed = 1;
nodes = (
"143 -264 CURVE",
"215 -189 OFFCURVE",
"283 -146 OFFCURVE",
"309 -146 CURVE SMOOTH",
"351 -146 OFFCURVE",
"470 -260 OFFCURVE",
"470 -260 CURVE",
"492 -251 OFFCURVE",
"504 -235 OFFCURVE",
"504 -216 CURVE SMOOTH",
"504 -160 OFFCURVE",
"352 -34 OFFCURVE",
"283 -34 CURVE SMOOTH",
"221 -34 OFFCURVE",
"85 -119 OFFCURVE",
"85 -189 CURVE SMOOTH",
"85 -220 OFFCURVE",
"104 -250 OFFCURVE"
);
},
{
closed = 1;
nodes = (
"352 555 LINE",
"368 546 OFFCURVE",
"375 534 OFFCURVE",
"375 522 CURVE SMOOTH",
"375 502 OFFCURVE",
"358 493 OFFCURVE",
"332 493 CURVE SMOOTH",
"285 494 OFFCURVE",
"251 494 OFFCURVE",
"216 494 CURVE SMOOTH",
"125 494 OFFCURVE",
"75 449 OFFCURVE",
"75 377 CURVE SMOOTH",
"75 274 OFFCURVE",
"163 187 OFFCURVE",
"264 187 CURVE SMOOTH",
"319 187 OFFCURVE",
"374 194 OFFCURVE",
"404 194 CURVE SMOOTH",
"430 194 OFFCURVE",
"441 183 OFFCURVE",
"441 168 CURVE SMOOTH",
"441 133 OFFCURVE",
"381 107 OFFCURVE",
"299 107 CURVE SMOOTH",
"203 107 OFFCURVE",
"116 143 OFFCURVE",
"64 199 CURVE",
"53 195 OFFCURVE",
"37 187 OFFCURVE",
"37 164 CURVE SMOOTH",
"37 97 OFFCURVE",
"188 -9 OFFCURVE",
"359 -9 CURVE SMOOTH",
"466 -9 OFFCURVE",
"531 50 OFFCURVE",
"531 134 CURVE SMOOTH",
"531 231 OFFCURVE",
"449 315 OFFCURVE",
"351 315 CURVE SMOOTH",
"306 315 OFFCURVE",
"250 306 OFFCURVE",
"207 306 CURVE SMOOTH",
"185 306 OFFCURVE",
"163 315 OFFCURVE",
"163 337 CURVE SMOOTH",
"163 375 OFFCURVE",
"228 377 OFFCURVE",
"265 377 CURVE SMOOTH",
"297 377 OFFCURVE",
"334 376 OFFCURVE",
"370 376 CURVE SMOOTH",
"444 376 OFFCURVE",
"479 416 OFFCURVE",
"479 465 CURVE SMOOTH",
"479 501 OFFCURVE",
"459 541 OFFCURVE",
"422 569 CURVE"
);
},
{
closed = 1;
nodes = (
"-65 669 LINE",
"-68 663 OFFCURVE",
"-70 650 OFFCURVE",
"-70 642 CURVE SMOOTH",
"-70 552 OFFCURVE",
"20 552 OFFCURVE",
"56 552 CURVE SMOOTH",
"622 552 LINE",
"625 558 OFFCURVE",
"629 572 OFFCURVE",
"629 584 CURVE SMOOTH",
"629 669 OFFCURVE",
"539 669 OFFCURVE",
"503 669 CURVE SMOOTH"
);
}
);
width = 549;
}
);
},
{
glyphname = dvDDH_RA;
layers = (
{
anchors = (
{
name = abvm.bindu;
position = "{211, 669}";
},
{
name = abvm.e;
position = "{395, 669}";
},
{
name = blwm.r;
position = "{407, -289}";
},
{
name = blwm.u;
position = "{348, -266}";
},
{
name = blwm.uu;
position = "{348, -280}";
},
{
name = blwm.virama;
position = "{363, -224}";
}
);
layerId = "A7C7F4A0-D38E-458B-B20F-CA7152D87AAE";
name = Bold;
paths = (
{
closed = 1;
nodes = (
"283 554 LINE",
"291 546 OFFCURVE",
"295 538 OFFCURVE",
"295 531 CURVE SMOOTH",
"295 465 OFFCURVE",
"23 469 OFFCURVE",
"23 264 CURVE SMOOTH",
"23 122 OFFCURVE",
"184 9 OFFCURVE",
"309 9 CURVE SMOOTH",
"414 9 OFFCURVE",
"495 63 OFFCURVE",
"495 154 CURVE SMOOTH",
"495 253 OFFCURVE",
"404 329 OFFCURVE",
"316 329 CURVE SMOOTH",
"256 329 OFFCURVE",
"211 290 OFFCURVE",
"211 237 CURVE SMOOTH",
"211 184 OFFCURVE",
"253 153 OFFCURVE",
"293 153 CURVE SMOOTH",
"300 153 OFFCURVE",
"310 154 OFFCURVE",
"317 157 CURVE",
"317 168 OFFCURVE",
"318 182 OFFCURVE",
"321 192 CURVE SMOOTH",
"329 222 OFFCURVE",
"346 235 OFFCURVE",
"363 235 CURVE SMOOTH",
"379 235 OFFCURVE",
"392 222 OFFCURVE",
"392 200 CURVE SMOOTH",
"392 162 OFFCURVE",
"354 105 OFFCURVE",
"270 105 CURVE SMOOTH",
"200 105 OFFCURVE",
"135 150 OFFCURVE",
"135 219 CURVE SMOOTH",
"135 381 OFFCURVE",
"410 354 OFFCURVE",
"410 478 CURVE SMOOTH",
"410 527 OFFCURVE",
"370 555 OFFCURVE",
"353 566 CURVE"
);
},
{
closed = 1;
nodes = (
"-83 669 LINE",
"-86 663 OFFCURVE",
"-88 650 OFFCURVE",
"-88 642 CURVE SMOOTH",
"-88 552 OFFCURVE",
"2 552 OFFCURVE",
"38 552 CURVE SMOOTH",
"573 552 LINE",
"576 558 OFFCURVE",
"580 572 OFFCURVE",
"580 584 CURVE SMOOTH",
"580 669 OFFCURVE",
"490 669 OFFCURVE",
"454 669 CURVE SMOOTH"
);
},
{
closed = 1;
nodes = (
"110 -246 CURVE",
"182 -171 OFFCURVE",
"250 -128 OFFCURVE",
"276 -128 CURVE SMOOTH",
"318 -128 OFFCURVE",
"437 -242 OFFCURVE",
"437 -242 CURVE",
"459 -233 OFFCURVE",
"471 -217 OFFCURVE",
"471 -198 CURVE SMOOTH",
"471 -142 OFFCURVE",
"319 -16 OFFCURVE",
"250 -16 CURVE SMOOTH",
"188 -16 OFFCURVE",
"52 -101 OFFCURVE",
"52 -171 CURVE SMOOTH",
"52 -202 OFFCURVE",
"71 -232 OFFCURVE"
);
}
);
width = 515;
}
);
},
{
glyphname = dvNN_RA;
layers = (
{
layerId = "A7C7F4A0-D38E-458B-B20F-CA7152D87AAE";
name = Bold;
paths = (
{
closed = 1;
nodes = (
"361 561 CURVE",
"294 554 LINE",
"301 547 OFFCURVE",
"312 499 OFFCURVE",
"312 435 CURVE SMOOTH",
"312 378 OFFCURVE",
"297 314 OFFCURVE",
"245 314 CURVE SMOOTH",
"179 314 OFFCURVE",
"178 385 OFFCURVE",
"178 431 CURVE SMOOTH",
"178 451 OFFCURVE",
"178 477 OFFCURVE",
"171 501 CURVE SMOOTH",
"161 538 OFFCURVE",
"136 570 OFFCURVE",
"75 570 CURVE SMOOTH",
"57 570 OFFCURVE",
"40 564 OFFCURVE",
"30 552 CURVE",
"37 541 OFFCURVE",
"41 525 OFFCURVE",
"43 508 CURVE SMOOTH",
"45 489 OFFCURVE",
"45 467 OFFCURVE",
"45 448 CURVE SMOOTH",
"45 318 OFFCURVE",
"187 222 OFFCURVE",
"292 222 CURVE SMOOTH",
"396 222 OFFCURVE",
"436 302 OFFCURVE",
"436 383 CURVE SMOOTH",
"436 486 OFFCURVE",
"375 553 OFFCURVE"
);
},
{
closed = 1;
nodes = (
"-78 669 LINE",
"-81 663 OFFCURVE",
"-83 650 OFFCURVE",
"-83 642 CURVE SMOOTH",
"-83 552 OFFCURVE",
"7 552 OFFCURVE",
"43 552 CURVE SMOOTH",
"818 552 LINE",
"821 558 OFFCURVE",
"825 572 OFFCURVE",
"825 584 CURVE SMOOTH",
"825 669 OFFCURVE",
"735 669 OFFCURVE",
"699 669 CURVE SMOOTH"
);
},
{
closed = 1;
nodes = (
"572 179 LINE",
"563 159 OFFCURVE",
"557 133 OFFCURVE",
"557 108 CURVE SMOOTH",
"557 50 OFFCURVE",
"583 -7 OFFCURVE",
"658 -7 CURVE SMOOTH",
"669 -7 OFFCURVE",
"685 -6 OFFCURVE",
"700 0 CURVE",
"689 18 OFFCURVE",
"685 69 OFFCURVE",
"685 105 CURVE SMOOTH",
"685 208 OFFCURVE",
"690 322 OFFCURVE",
"690 431 CURVE SMOOTH",
"690 483 OFFCURVE",
"687 570 OFFCURVE",
"587 570 CURVE SMOOTH",
"569 570 OFFCURVE",
"552 564 OFFCURVE",
"542 552 CURVE",
"557 529 OFFCURVE",
"557 485 OFFCURVE",
"557 448 CURVE SMOOTH",
"557 365 OFFCURVE",
"555 305 OFFCURVE",
"554 255 CURVE",
"565 297 LINE",
"512 252 OFFCURVE",
"349 145 OFFCURVE",
"232 121 CURVE",
"235 70 OFFCURVE",
"276 27 OFFCURVE",
"338 27 CURVE SMOOTH",
"368 27 OFFCURVE",
"461 48 OFFCURVE",
"596 183 CURVE"
);
}
);
width = 762;
}
);
},
{
glyphname = dvT_RA;
layers = (
{
layerId = "A7C7F4A0-D38E-458B-B20F-CA7152D87AAE";
name = Bold;
paths = (
{
closed = 1;
nodes = (
"372 294 CURVE",
"378 321 LINE",
"310 393 OFFCURVE",
"221 478 OFFCURVE",
"125 478 CURVE SMOOTH",
"73 478 OFFCURVE",
"29 447 OFFCURVE",
"29 398 CURVE SMOOTH",
"29 354 OFFCURVE",
"62 325 OFFCURVE",
"95 311 CURVE",
"105 334 OFFCURVE",
"130 351 OFFCURVE",
"159 351 CURVE SMOOTH",
"230 351 OFFCURVE",
"290 309 OFFCURVE",
"334 264 CURVE",
"326 334 LINE",
"241 256 OFFCURVE",
"128 179 OFFCURVE",
"67 179 CURVE",
"67 107 OFFCURVE",
"123 83 OFFCURVE",
"163 83 CURVE SMOOTH",
"250 83 OFFCURVE",
"364 196 OFFCURVE",
"422 257 CURVE",
"398 256 LINE",
"383 225 OFFCURVE",
"370 174 OFFCURVE",
"370 126 CURVE SMOOTH",
"370 57 OFFCURVE",
"396 -7 OFFCURVE",
"475 -7 CURVE SMOOTH",
"486 -7 OFFCURVE",
"502 -6 OFFCURVE",
"517 0 CURVE",
"506 18 OFFCURVE",
"502 69 OFFCURVE",
"502 105 CURVE SMOOTH",
"502 208 OFFCURVE",
"507 322 OFFCURVE",
"507 431 CURVE SMOOTH",
"507 483 OFFCURVE",
"504 570 OFFCURVE",
"404 570 CURVE SMOOTH",
"386 570 OFFCURVE",
"369 564 OFFCURVE",
"359 552 CURVE",
"374 529 OFFCURVE",
"374 485 OFFCURVE",
"374 448 CURVE SMOOTH",
"374 385 OFFCURVE",
"373 336 OFFCURVE"
);
},
{
closed = 1;
nodes = (
"-65 669 LINE",
"-68 663 OFFCURVE",
"-70 650 OFFCURVE",
"-70 642 CURVE SMOOTH",
"-70 552 OFFCURVE",
"20 552 OFFCURVE",
"56 552 CURVE SMOOTH",
"635 552 LINE",
"638 558 OFFCURVE",
"642 572 OFFCURVE",
"642 584 CURVE SMOOTH",
"642 669 OFFCURVE",
"552 669 OFFCURVE",
"516 669 CURVE SMOOTH"
);
}
);
width = 579;
}
);
},
{
glyphname = dvTH_RA;
layers = (
{
layerId = "A7C7F4A0-D38E-458B-B20F-CA7152D87AAE";
name = Bold;
paths = (
{
closed = 1;
nodes = (
"366 642 CURVE SMOOTH",
"366 613 OFFCURVE",
"377 592 OFFCURVE",
"398 571 CURVE SMOOTH",
"428 543 OFFCURVE",
"435 536 OFFCURVE",
"435 447 CURVE SMOOTH",
"435 391 OFFCURVE",
"434 349 OFFCURVE",
"433 311 CURVE",
"439 343 LINE",
"404 269 OFFCURVE",
"296 234 OFFCURVE",
"232 234 CURVE SMOOTH",
"197 234 OFFCURVE",
"170 243 OFFCURVE",
"170 259 CURVE SMOOTH",
"170 298 OFFCURVE",
"349 321 OFFCURVE",
"349 471 CURVE SMOOTH",
"349 586 OFFCURVE",
"257 677 OFFCURVE",
"170 677 CURVE SMOOTH",
"98 677 OFFCURVE",
"47 626 OFFCURVE",
"47 561 CURVE SMOOTH",
"47 503 OFFCURVE",
"83 448 OFFCURVE",
"140 448 CURVE SMOOTH",
"149 448 OFFCURVE",
"157 450 OFFCURVE",
"161 452 CURVE",
"154 464 OFFCURVE",
"151 479 OFFCURVE",
"151 495 CURVE SMOOTH",
"151 532 OFFCURVE",
"174 572 OFFCURVE",
"211 572 CURVE SMOOTH",
"241 572 OFFCURVE",
"253 548 OFFCURVE",
"253 527 CURVE SMOOTH",
"253 416 OFFCURVE",
"40 395 OFFCURVE",
"40 319 CURVE SMOOTH",
"40 237 OFFCURVE",
"156 158 OFFCURVE",
"273 158 CURVE SMOOTH",
"292 158 OFFCURVE",
"320 164 OFFCURVE",
"320 164 CURVE",
"346 196 LINE",
"260 154 OFFCURVE",
"139 128 OFFCURVE",
"47 113 CURVE",
"50 59 OFFCURVE",
"88 14 OFFCURVE",
"157 14 CURVE SMOOTH",
"250 14 OFFCURVE",
"497 164 OFFCURVE",
"532 309 CURVE",
"458 216 LINE",
"449 188 OFFCURVE",
"441 148 OFFCURVE",
"441 110 CURVE SMOOTH",
"441 50 OFFCURVE",
"464 -7 OFFCURVE",
"536 -7 CURVE SMOOTH",
"547 -7 OFFCURVE",
"563 -6 OFFCURVE",
"578 0 CURVE",
"567 18 OFFCURVE",
"563 69 OFFCURVE",
"563 105 CURVE SMOOTH",
"563 208 OFFCURVE",
"568 322 OFFCURVE",
"568 431 CURVE SMOOTH",
"568 483 OFFCURVE",
"564 570 OFFCURVE",
"464 570 CURVE",
"492 552 LINE",
"696 552 LINE",
"699 558 OFFCURVE",
"703 572 OFFCURVE",
"703 584 CURVE SMOOTH",
"703 669 OFFCURVE",
"613 669 OFFCURVE",
"577 669 CURVE SMOOTH",
"371 669 LINE",
"368 663 OFFCURVE",
"366 650 OFFCURVE"
);
}
);
width = 640;
}
);
},
{
glyphname = dvD_RA;
layers = (
{
anchors = (
{
name = abvm.bindu;
position = "{222, 669}";
},
{
name = abvm.e;
position = "{411, 669}";
},
{
name = blwm.r;
position = "{404, -186}";
},
{
name = blwm.u;
position = "{441, -84}";
},
{
name = blwm.uu;
position = "{431, -84}";
},
{
name = blwm.virama;
position = "{461, -112}";
}
);
layerId = "A7C7F4A0-D38E-458B-B20F-CA7152D87AAE";
name = Bold;
paths = (
{
closed = 1;
nodes = (
"335 169 LINE",
"319 163 OFFCURVE",
"299 159 OFFCURVE",
"274 159 CURVE SMOOTH",
"215 159 OFFCURVE",
"156 187 OFFCURVE",
"156 250 CURVE SMOOTH",
"156 378 OFFCURVE",
"418 353 OFFCURVE",
"418 478 CURVE SMOOTH",
"418 510 OFFCURVE",
"390 549 OFFCURVE",
"363 567 CURVE",
"292 554 LINE",
"297 546 OFFCURVE",
"300 538 OFFCURVE",
"300 528 CURVE SMOOTH",
"300 458 OFFCURVE",
"32 470 OFFCURVE",
"32 296 CURVE SMOOTH",
"32 187 OFFCURVE",
"142 84 OFFCURVE",
"282 84 CURVE SMOOTH",
"290 84 OFFCURVE",
"299 84 OFFCURVE",
"307 85 CURVE",
"284 88 LINE",
"212 58 OFFCURVE",
"118 26 OFFCURVE",
"36 18 CURVE",
"37 -46 OFFCURVE",
"86 -78 OFFCURVE",
"138 -78 CURVE SMOOTH",
"244 -78 OFFCURVE",
"458 64 OFFCURVE",
"458 191 CURVE SMOOTH",
"458 238 OFFCURVE",
"429 285 OFFCURVE",
"377 285 CURVE SMOOTH",
"335 285 OFFCURVE",
"302 254 OFFCURVE",
"302 208 CURVE SMOOTH",
"302 183 OFFCURVE",
"313 158 OFFCURVE",
"326 140 CURVE"
);
},
{
closed = 1;
nodes = (
"383 62 LINE",
"400 46 OFFCURVE",
"407 24 OFFCURVE",
"407 6 CURVE SMOOTH",
"407 -23 OFFCURVE",
"389 -50 OFFCURVE",
"353 -58 CURVE",
"369 -93 OFFCURVE",
"404 -112 OFFCURVE",
"440 -112 CURVE SMOOTH",
"491 -112 OFFCURVE",
"524 -74 OFFCURVE",
"524 -24 CURVE SMOOTH",
"524 33 OFFCURVE",
"479 81 OFFCURVE",
"425 110 CURVE"
);
},
{
closed = 1;
nodes = (
"-66 669 LINE",
"-69 663 OFFCURVE",
"-71 650 OFFCURVE",
"-71 642 CURVE SMOOTH",
"-71 552 OFFCURVE",
"19 552 OFFCURVE",
"55 552 CURVE SMOOTH",
"531 552 LINE",
"534 558 OFFCURVE",
"538 572 OFFCURVE",
"538 584 CURVE SMOOTH",
"538 669 OFFCURVE",
"448 669 OFFCURVE",
"412 669 CURVE SMOOTH"
);
}
);
width = 503;
}
);
},
{
glyphname = dvDH_RA;
layers = (
{
layerId = "A7C7F4A0-D38E-458B-B20F-CA7152D87AAE";
name = Bold;
paths = (
{
closed = 1;
nodes = (
"-83 642 CURVE SMOOTH",
"-83 571 OFFCURVE",
"-25 553 OFFCURVE",
"26 553 CURVE SMOOTH",
"40 553 OFFCURVE",
"52 554 OFFCURVE",
"64 556 CURVE",
"62 571 LINE",
"47 546 OFFCURVE",
"41 520 OFFCURVE",
"41 495 CURVE SMOOTH",
"41 395 OFFCURVE",
"146 308 OFFCURVE",
"249 308 CURVE SMOOTH",
"290 308 OFFCURVE",
"331 330 OFFCURVE",
"331 368 CURVE SMOOTH",
"331 413 OFFCURVE",
"285 443 OFFCURVE",
"231 443 CURVE SMOOTH",
"150 443 OFFCURVE",
"69 384 OFFCURVE",
"69 293 CURVE SMOOTH",
"69 215 OFFCURVE",
"152 124 OFFCURVE",
"265 124 CURVE SMOOTH",
"282 124 OFFCURVE",
"299 126 OFFCURVE",
"299 126 CURVE",
"320 175 LINE",
"246 136 OFFCURVE",
"132 91 OFFCURVE",
"57 78 CURVE",
"57 27 OFFCURVE",
"97 -18 OFFCURVE",
"162 -18 CURVE SMOOTH",
"222 -18 OFFCURVE",
"355 59 OFFCURVE",
"449 169 CURVE",
"450 192 LINE",
"438 166 OFFCURVE",
"430 131 OFFCURVE",
"430 97 CURVE SMOOTH",
"430 44 OFFCURVE",
"454 -7 OFFCURVE",
"527 -7 CURVE SMOOTH",
"538 -7 OFFCURVE",
"554 -6 OFFCURVE",
"569 0 CURVE",
"558 18 OFFCURVE",
"554 69 OFFCURVE",
"554 105 CURVE SMOOTH",
"554 208 OFFCURVE",
"559 322 OFFCURVE",
"559 431 CURVE SMOOTH",
"559 483 OFFCURVE",
"555 570 OFFCURVE",
"455 570 CURVE",
"483 552 LINE",
"687 552 LINE",
"690 558 OFFCURVE",
"694 572 OFFCURVE",
"694 584 CURVE SMOOTH",
"694 669 OFFCURVE",
"604 669 OFFCURVE",
"568 669 CURVE SMOOTH",
"362 669 LINE",
"359 663 OFFCURVE",
"357 650 OFFCURVE",
"357 642 CURVE SMOOTH",
"357 613 OFFCURVE",
"368 592 OFFCURVE",
"389 571 CURVE SMOOTH",
"419 543 OFFCURVE",
"426 537 OFFCURVE",
"426 448 CURVE SMOOTH",
"426 369 OFFCURVE",
"424 312 OFFCURVE",
"423 265 CURVE",
"432 313 LINE",
"404 249 OFFCURVE",
"329 198 OFFCURVE",
"253 198 CURVE SMOOTH",
"214 198 OFFCURVE",
"180 219 OFFCURVE",
"180 255 CURVE SMOOTH",
"180 302 OFFCURVE",
"223 326 OFFCURVE",
"258 329 CURVE",
"199 345 OFFCURVE",
"152 392 OFFCURVE",
"152 449 CURVE SMOOTH",
"152 511 OFFCURVE",
"190 552 OFFCURVE",
"252 552 CURVE SMOOTH",
"262 552 LINE",
"265 558 OFFCURVE",
"269 572 OFFCURVE",
"269 584 CURVE SMOOTH",
"269 669 OFFCURVE",
"179 669 OFFCURVE",
"143 669 CURVE SMOOTH",
"-78 669 LINE",
"-81 663 OFFCURVE",
"-83 650 OFFCURVE"
);
}
);
width = 631;
}
);
},
{
glyphname = dvN_RA;
layers = (
{
layerId = "A7C7F4A0-D38E-458B-B20F-CA7152D87AAE";
name = Bold;
paths = (
{
closed = 1;
nodes = (
"-65 669 LINE",
"-68 663 OFFCURVE",
"-70 650 OFFCURVE",
"-70 642 CURVE SMOOTH",
"-70 552 OFFCURVE",
"20 552 OFFCURVE",
"56 552 CURVE SMOOTH",
"665 552 LINE",
"668 558 OFFCURVE",
"672 572 OFFCURVE",
"672 584 CURVE SMOOTH",
"672 669 OFFCURVE",
"582 669 OFFCURVE",
"546 669 CURVE SMOOTH"
);
},
{
closed = 1;
nodes = (
"129 310 CURVE SMOOTH",
"129 335 OFFCURVE",
"160 365 OFFCURVE",
"224 365 CURVE SMOOTH",
"297 365 OFFCURVE",
"371 337 OFFCURVE",
"405 319 CURVE",
"425 383 LINE",
"380 437 OFFCURVE",
"248 477 OFFCURVE",
"175 477 CURVE SMOOTH",
"82 477 OFFCURVE",
"24 430 OFFCURVE",
"24 360 CURVE SMOOTH",
"24 274 OFFCURVE",
"119 174 OFFCURVE",
"204 174 CURVE SMOOTH",
"255 174 OFFCURVE",
"279 209 OFFCURVE",
"279 245 CURVE SMOOTH",
"279 275 OFFCURVE",
"262 305 OFFCURVE",
"229 317 CURVE",
"226 310 OFFCURVE",
"220 301 OFFCURVE",
"210 293 CURVE SMOOTH",
"199 284 OFFCURVE",
"184 277 OFFCURVE",
"165 277 CURVE SMOOTH",
"140 277 OFFCURVE",
"129 294 OFFCURVE"
);
},
{
closed = 1;
nodes = (
"412 228 LINE",
"324 166 OFFCURVE",
"199 112 OFFCURVE",
"85 94 CURVE",
"88 43 OFFCURVE",
"128 0 OFFCURVE",
"189 0 CURVE SMOOTH",
"218 0 OFFCURVE",
"297 12 OFFCURVE",
"444 146 CURVE",
"419 141 LINE",
"413 129 OFFCURVE",
"409 112 OFFCURVE",
"409 93 CURVE SMOOTH",
"409 47 OFFCURVE",
"432 -7 OFFCURVE",
"505 -7 CURVE SMOOTH",
"516 -7 OFFCURVE",
"532 -6 OFFCURVE",
"547 0 CURVE",
"536 18 OFFCURVE",
"532 69 OFFCURVE",
"532 105 CURVE SMOOTH",
"532 208 OFFCURVE",
"537 322 OFFCURVE",
"537 431 CURVE SMOOTH",
"537 483 OFFCURVE",
"534 570 OFFCURVE",
"434 570 CURVE SMOOTH",
"416 570 OFFCURVE",
"399 564 OFFCURVE",
"389 552 CURVE",
"404 527 OFFCURVE",
"404 479 OFFCURVE",
"404 440 CURVE SMOOTH",
"404 312 OFFCURVE",
"400 244 OFFCURVE",
"399 179 CURVE"
);
}
);
width = 609;
}
);
},
{
glyphname = dvP_RA;
layers = (
{
layerId = "A7C7F4A0-D38E-458B-B20F-CA7152D87AAE";
name = Bold;
paths = (
{
closed = 1;
nodes = (
"-70 669 LINE",
"-73 663 OFFCURVE",
"-75 650 OFFCURVE",
"-75 642 CURVE SMOOTH",
"-75 552 OFFCURVE",
"15 552 OFFCURVE",
"51 552 CURVE SMOOTH",
"628 552 LINE",
"631 558 OFFCURVE",
"635 572 OFFCURVE",
"635 584 CURVE SMOOTH",
"635 669 OFFCURVE",
"545 669 OFFCURVE",
"509 669 CURVE SMOOTH"
);
},
{
closed = 1;
nodes = (
"8 128 CURVE",
"11 76 OFFCURVE",
"53 32 OFFCURVE",
"117 32 CURVE SMOOTH",
"148 32 OFFCURVE",
"229 51 OFFCURVE",
"403 204 CURVE",
"380 205 LINE",
"370 182 OFFCURVE",
"363 150 OFFCURVE",
"363 118 CURVE SMOOTH",
"363 56 OFFCURVE",
"389 -7 OFFCURVE",
"467 -7 CURVE SMOOTH",
"478 -7 OFFCURVE",
"494 -6 OFFCURVE",
"509 0 CURVE",
"498 18 OFFCURVE",
"494 69 OFFCURVE",
"494 105 CURVE SMOOTH",
"494 208 OFFCURVE",
"499 322 OFFCURVE",
"499 431 CURVE SMOOTH",
"499 483 OFFCURVE",
"496 570 OFFCURVE",
"396 570 CURVE SMOOTH",
"378 570 OFFCURVE",
"361 564 OFFCURVE",
"351 552 CURVE",
"366 529 OFFCURVE",
"366 485 OFFCURVE",
"366 448 CURVE SMOOTH",
"366 359 OFFCURVE",
"364 298 OFFCURVE",
"363 247 CURVE",
"370 356 LINE",
"351 305 OFFCURVE",
"296 259 OFFCURVE",
"250 259 CURVE SMOOTH",
"193 259 OFFCURVE",
"182 295 OFFCURVE",
"182 350 CURVE SMOOTH",
"182 374 OFFCURVE",
"184 402 OFFCURVE",
"184 431 CURVE SMOOTH",
"184 483 OFFCURVE",
"183 570 OFFCURVE",
"83 570 CURVE SMOOTH",
"65 570 OFFCURVE",
"48 564 OFFCURVE",
"38 552 CURVE",
"47 537 OFFCURVE",
"51 522 OFFCURVE",
"52 481 CURVE SMOOTH",
"53 457 OFFCURVE",
"53 425 OFFCURVE",
"53 379 CURVE SMOOTH",
"53 285 OFFCURVE",
"181 161 OFFCURVE",
"297 161 CURVE SMOOTH",
"324 161 OFFCURVE",
"341 169 OFFCURVE",
"341 169 CURVE",
"251 236 LINE",
"179 191 OFFCURVE",
"84 143 OFFCURVE"
);
}
);
width = 572;
}
);
},
{
glyphname = dvPH_RA;
layers = (
{
anchors = (
{
name = abvm.bindu;
position = "{315, 669}";
},
{
name = abvm.e;
position = "{453, 669}";
},
{
name = blwm.r;
position = "{473, 0}";
},
{
name = blwm.u;
position = "{473, 0}";
},
{
name = blwm.uu;
position = "{473, -14}";
},
{
name = blwm.virama;
position = "{473, 0}";
}
);
layerId = "A7C7F4A0-D38E-458B-B20F-CA7152D87AAE";
name = Bold;
paths = (
{
closed = 1;
nodes = (
"292 181 CURVE",
"218 248 LINE",
"152 209 OFFCURVE",
"75 178 OFFCURVE",
"10 165 CURVE",
"13 114 OFFCURVE",
"54 71 OFFCURVE",
"117 71 CURVE SMOOTH",
"145 71 OFFCURVE",
"234 94 OFFCURVE",
"353 206 CURVE",
"338 198 LINE",
"330 176 OFFCURVE",
"326 150 OFFCURVE",
"326 123 CURVE SMOOTH",
"326 58 OFFCURVE",
"353 -7 OFFCURVE",
"431 -7 CURVE SMOOTH",
"442 -7 OFFCURVE",
"458 -6 OFFCURVE",
"473 0 CURVE",
"462 18 OFFCURVE",
"458 69 OFFCURVE",
"458 105 CURVE SMOOTH",
"458 181 OFFCURVE",
"461 262 OFFCURVE",
"462 343 CURVE",
"432 255 LINE",
"466 304 OFFCURVE",
"514 374 OFFCURVE",
"583 374 CURVE SMOOTH",
"617 374 OFFCURVE",
"647 349 OFFCURVE",
"647 311 CURVE SMOOTH",
"647 272 OFFCURVE",
"624 242 OFFCURVE",
"589 225 CURVE SMOOTH",
"570 216 OFFCURVE",
"548 211 OFFCURVE",
"525 211 CURVE",
"524 207 OFFCURVE",
"524 202 OFFCURVE",
"524 200 CURVE SMOOTH",
"524 152 OFFCURVE",
"560 110 OFFCURVE",
"618 110 CURVE SMOOTH",
"698 110 OFFCURVE",
"751 179 OFFCURVE",
"751 252 CURVE SMOOTH",
"751 369 OFFCURVE",
"645 476 OFFCURVE",
"537 476 CURVE SMOOTH",
"461 476 OFFCURVE",
"428 421 OFFCURVE",
"415 398 CURVE",
"446 420 LINE",
"450 435 OFFCURVE",
"453 454 OFFCURVE",
"453 473 CURVE SMOOTH",
"453 520 OFFCURVE",
"434 570 OFFCURVE",
"369 570 CURVE SMOOTH",
"351 570 OFFCURVE",
"326 563 OFFCURVE",
"315 552 CURVE",
"330 529 OFFCURVE",
"330 485 OFFCURVE",
"330 448 CURVE SMOOTH",
"330 378 OFFCURVE",
"329 324 OFFCURVE",
"328 280 CURVE",
"365 376 LINE",
"331 312 OFFCURVE",
"280 280 OFFCURVE",
"238 280 CURVE SMOOTH",
"203 280 OFFCURVE",
"177 306 OFFCURVE",
"177 370 CURVE SMOOTH",
"177 388 OFFCURVE",
"178 409 OFFCURVE",
"178 431 CURVE SMOOTH",
"178 483 OFFCURVE",
"178 570 OFFCURVE",
"78 570 CURVE SMOOTH",
"60 570 OFFCURVE",
"43 564 OFFCURVE",
"33 552 CURVE",
"42 540 OFFCURVE",
"45 527 OFFCURVE",
"47 497 CURVE SMOOTH",
"48 474 OFFCURVE",
"48 442 OFFCURVE",
"48 393 CURVE SMOOTH",
"48 312 OFFCURVE",
"135 214 OFFCURVE",
"239 188 CURVE SMOOTH",
"256 184 OFFCURVE",
"274 181 OFFCURVE"
);
},
{
closed = 1;
nodes = (
"-70 669 LINE",
"-73 663 OFFCURVE",
"-75 650 OFFCURVE",
"-75 642 CURVE SMOOTH",
"-75 552 OFFCURVE",
"15 552 OFFCURVE",
"51 552 CURVE SMOOTH",
"832 552 LINE",
"835 558 OFFCURVE",
"839 572 OFFCURVE",
"839 584 CURVE SMOOTH",
"839 669 OFFCURVE",
"749 669 OFFCURVE",
"713 669 CURVE SMOOTH"
);
}
);
width = 789;
}
);
},
{
glyphname = dvB_RA;
layers = (
{
layerId = "A7C7F4A0-D38E-458B-B20F-CA7152D87AAE";
name = Bold;
paths = (
{
closed = 1;
nodes = (
"-75 669 LINE",
"-78 663 OFFCURVE",
"-80 650 OFFCURVE",
"-80 642 CURVE SMOOTH",
"-80 552 OFFCURVE",
"10 552 OFFCURVE",
"46 552 CURVE SMOOTH",
"660 552 LINE",
"663 558 OFFCURVE",
"667 572 OFFCURVE",
"667 584 CURVE SMOOTH",
"667 669 OFFCURVE",
"577 669 OFFCURVE",
"541 669 CURVE SMOOTH"
);
},
{
closed = 1;
nodes = (
"423 179 LINE",
"412 151 OFFCURVE",
"405 121 OFFCURVE",
"405 89 CURVE SMOOTH",
"405 32 OFFCURVE",
"440 -7 OFFCURVE",
"500 -7 CURVE SMOOTH",
"511 -7 OFFCURVE",
"527 -6 OFFCURVE",
"542 0 CURVE",
"531 18 OFFCURVE",
"527 69 OFFCURVE",
"527 105 CURVE SMOOTH",
"527 208 OFFCURVE",
"532 322 OFFCURVE",
"532 431 CURVE SMOOTH",
"532 483 OFFCURVE",
"529 570 OFFCURVE",
"429 570 CURVE SMOOTH",
"411 570 OFFCURVE",
"394 564 OFFCURVE",
"384 552 CURVE",
"399 529 OFFCURVE",
"399 485 OFFCURVE",
"399 448 CURVE SMOOTH",
"399 383 OFFCURVE",
"398 332 OFFCURVE",
"397 288 CURVE",
"412 340 LINE",
"386 267 OFFCURVE",
"326 208 OFFCURVE",
"230 208 CURVE SMOOTH",
"178 208 OFFCURVE",
"134 242 OFFCURVE",
"134 289 CURVE SMOOTH",
"134 341 OFFCURVE",
"184 369 OFFCURVE",
"237 369 CURVE SMOOTH",
"280 369 OFFCURVE",
"306 355 OFFCURVE",
"316 349 CURVE",
"326 361 OFFCURVE",
"331 384 OFFCURVE",
"331 401 CURVE SMOOTH",
"331 458 OFFCURVE",
"269 491 OFFCURVE",
"198 491 CURVE SMOOTH",
"117 491 OFFCURVE",
"29 444 OFFCURVE",
"29 342 CURVE SMOOTH",
"29 257 OFFCURVE",
"116 124 OFFCURVE",
"242 124 CURVE SMOOTH",
"252 124 OFFCURVE",
"263 124 OFFCURVE",
"275 128 CURVE",
"315 164 LINE",
"257 118 OFFCURVE",
"183 70 OFFCURVE",
"114 42 CURVE",
"133 -9 OFFCURVE",
"174 -25 OFFCURVE",
"209 -25 CURVE SMOOTH",
"313 -25 OFFCURVE",
"435 186 OFFCURVE",
"435 186 CURVE"
);
},
{
closed = 1;
nodes = (
"186 413 LINE",
"137 374 LINE",
"289 188 LINE",
"338 227 LINE"
);
}
);
width = 604;
}
);
},
{
glyphname = dvBH_RA;
layers = (
{
layerId = "A7C7F4A0-D38E-458B-B20F-CA7152D87AAE";
name = Bold;
paths = (
{
closed = 1;
nodes = (
"314 669 LINE",
"311 663 OFFCURVE",
"309 650 OFFCURVE",
"309 642 CURVE SMOOTH",
"309 552 OFFCURVE",
"399 552 OFFCURVE",
"435 552 CURVE SMOOTH",
"727 552 LINE",
"730 558 OFFCURVE",
"734 572 OFFCURVE",
"734 584 CURVE SMOOTH",
"734 669 OFFCURVE",
"644 669 OFFCURVE",
"608 669 CURVE SMOOTH"
);
},
{
closed = 1;
nodes = (
"184 488 CURVE SMOOTH",
"184 364 OFFCURVE",
"179 328 OFFCURVE",
"170 281 CURVE",
"505 281 LINE",
"513 384 LINE",
"433 395 OFFCURVE",
"280 400 OFFCURVE",
"206 400 CURVE SMOOTH",
"167 400 OFFCURVE",
"93 397 OFFCURVE",
"93 329 CURVE SMOOTH",
"93 278 OFFCURVE",
"165 200 OFFCURVE",
"234 200 CURVE SMOOTH",
"294 200 OFFCURVE",
"309 279 OFFCURVE",
"309 377 CURVE SMOOTH",
"309 520 OFFCURVE",
"212 669 OFFCURVE",
"115 669 CURVE SMOOTH",
"46 669 OFFCURVE",
"10 617 OFFCURVE",
"10 560 CURVE SMOOTH",
"10 502 OFFCURVE",
"45 441 OFFCURVE",
"103 441 CURVE SMOOTH",
"112 441 OFFCURVE",
"120 443 OFFCURVE",
"124 445 CURVE",
"118 456 OFFCURVE",
"114 476 OFFCURVE",
"114 496 CURVE SMOOTH",
"114 523 OFFCURVE",
"123 560 OFFCURVE",
"153 560 CURVE SMOOTH",
"176 560 OFFCURVE",
"184 537 OFFCURVE"
);
},
{
closed = 1;
nodes = (
"476 155 LINE",
"472 138 OFFCURVE",
"468 118 OFFCURVE",
"468 98 CURVE SMOOTH",
"468 47 OFFCURVE",
"494 -7 OFFCURVE",
"567 -7 CURVE SMOOTH",
"578 -7 OFFCURVE",
"594 -6 OFFCURVE",
"609 0 CURVE",
"598 18 OFFCURVE",
"594 69 OFFCURVE",
"594 105 CURVE SMOOTH",
"594 208 OFFCURVE",
"599 322 OFFCURVE",
"599 431 CURVE SMOOTH",
"599 483 OFFCURVE",
"596 570 OFFCURVE",
"496 570 CURVE SMOOTH",
"478 570 OFFCURVE",
"461 564 OFFCURVE",
"451 552 CURVE",
"466 529 OFFCURVE",
"466 485 OFFCURVE",
"466 448 CURVE SMOOTH",
"466 360 OFFCURVE",
"465 299 OFFCURVE",
"465 248 CURVE",
"473 274 LINE",
"420 231 OFFCURVE",
"249 125 OFFCURVE",
"131 102 CURVE",
"134 50 OFFCURVE",
"176 6 OFFCURVE",
"240 6 CURVE SMOOTH",
"272 6 OFFCURVE",
"363 26 OFFCURVE",
"503 176 CURVE"
);
}
);
width = 671;
}
);
},
{
glyphname = dvM_RA;
layers = (
{
layerId = "A7C7F4A0-D38E-458B-B20F-CA7152D87AAE";
name = Bold;
paths = (
{
closed = 1;
nodes = (
"-78 669 LINE",
"-81 663 OFFCURVE",
"-83 650 OFFCURVE",
"-83 642 CURVE SMOOTH",
"-83 552 OFFCURVE",
"7 552 OFFCURVE",
"43 552 CURVE SMOOTH",
"678 552 LINE",
"681 558 OFFCURVE",
"685 572 OFFCURVE",
"685 584 CURVE SMOOTH",
"685 669 OFFCURVE",
"595 669 OFFCURVE",
"559 669 CURVE SMOOTH"
);
},
{
closed = 1;
nodes = (
"430 158 LINE",
"425 142 OFFCURVE",
"421 121 OFFCURVE",
"421 98 CURVE SMOOTH",
"421 49 OFFCURVE",
"443 -7 OFFCURVE",
"518 -7 CURVE SMOOTH",
"529 -7 OFFCURVE",
"545 -6 OFFCURVE",
"560 0 CURVE",
"549 18 OFFCURVE",
"545 69 OFFCURVE",
"545 105 CURVE SMOOTH",
"545 208 OFFCURVE",
"550 322 OFFCURVE",
"550 431 CURVE SMOOTH",
"550 483 OFFCURVE",
"547 570 OFFCURVE",
"447 570 CURVE SMOOTH",
"429 570 OFFCURVE",
"412 564 OFFCURVE",
"402 552 CURVE",
"417 529 OFFCURVE",
"417 485 OFFCURVE",
"417 448 CURVE SMOOTH",
"417 337 OFFCURVE",
"416 269 OFFCURVE",
"415 210 CURVE",
"424 270 LINE",
"373 228 OFFCURVE",
"214 123 OFFCURVE",
"102 100 CURVE",
"105 48 OFFCURVE",
"147 4 OFFCURVE",
"211 4 CURVE SMOOTH",
"249 4 OFFCURVE",
"325 29 OFFCURVE",
"463 175 CURVE"
);
},
{
closed = 1;
nodes = (
"464 383 LINE",
"384 394 OFFCURVE",
"218 399 OFFCURVE",
"144 399 CURVE SMOOTH",
"105 399 OFFCURVE",
"31 396 OFFCURVE",
"31 328 CURVE SMOOTH",
"31 277 OFFCURVE",
"97 199 OFFCURVE",
"160 199 CURVE SMOOTH",
"234 199 OFFCURVE",
"250 267 OFFCURVE",
"250 431 CURVE SMOOTH",
"250 483 OFFCURVE",
"247 570 OFFCURVE",
"147 570 CURVE SMOOTH",
"131 570 OFFCURVE",
"111 564 OFFCURVE",
"101 552 CURVE",
"118 526 OFFCURVE",
"118 475 OFFCURVE",
"118 433 CURVE SMOOTH",
"118 369 OFFCURVE",
"111 299 OFFCURVE",
"110 280 CURVE",
"456 280 LINE"
);
}
);
width = 622;
}
);
},
{
glyphname = dvY_RA;
layers = (
{
layerId = "A7C7F4A0-D38E-458B-B20F-CA7152D87AAE";
name = Bold;
paths = (
{
closed = 1;
nodes = (
"-45 669 LINE",
"-48 663 OFFCURVE",
"-50 650 OFFCURVE",
"-50 642 CURVE SMOOTH",
"-50 552 OFFCURVE",
"40 552 OFFCURVE",
"76 552 CURVE SMOOTH",
"665 552 LINE",
"668 558 OFFCURVE",
"672 572 OFFCURVE",
"672 584 CURVE SMOOTH",
"672 669 OFFCURVE",
"582 669 OFFCURVE",
"546 669 CURVE SMOOTH"
);
},
{
closed = 1;
nodes = (
"301 200 LINE",
"233 161 OFFCURVE",
"144 118 OFFCURVE",
"69 100 CURVE",
"69 48 OFFCURVE",
"113 14 OFFCURVE",
"166 14 CURVE SMOOTH",
"267 14 OFFCURVE",
"367 117 OFFCURVE",
"433 207 CURVE",
"424 209 LINE",
"415 183 OFFCURVE",
"407 146 OFFCURVE",
"407 110 CURVE SMOOTH",
"407 50 OFFCURVE",
"430 -7 OFFCURVE",
"502 -7 CURVE SMOOTH",
"513 -7 OFFCURVE",
"529 -6 OFFCURVE",
"544 0 CURVE",
"533 18 OFFCURVE",
"529 69 OFFCURVE",
"529 105 CURVE SMOOTH",
"529 208 OFFCURVE",
"534 322 OFFCURVE",
"534 431 CURVE SMOOTH",
"534 483 OFFCURVE",
"531 570 OFFCURVE",
"431 570 CURVE SMOOTH",
"365 570 LINE",
"395 542 OFFCURVE",
"401 537 OFFCURVE",
"401 448 CURVE SMOOTH",
"401 392 OFFCURVE",
"400 349 OFFCURVE",
"399 311 CURVE",
"405 343 LINE",
"374 278 OFFCURVE",
"287 248 OFFCURVE",
"225 248 CURVE SMOOTH",
"187 248 OFFCURVE",
"158 259 OFFCURVE",
"158 282 CURVE SMOOTH",
"158 324 OFFCURVE",
"292 338 OFFCURVE",
"292 454 CURVE SMOOTH",
"292 501 OFFCURVE",
"274 540 OFFCURVE",
"250 568 CURVE",
"150 568 LINE SMOOTH",
"177 568 OFFCURVE",
"188 545 OFFCURVE",
"188 524 CURVE SMOOTH",
"188 431 OFFCURVE",
"33 410 OFFCURVE",
"33 348 CURVE SMOOTH",
"33 277 OFFCURVE",
"124 165 OFFCURVE",
"247 165 CURVE SMOOTH",
"278 165 OFFCURVE",
"297 171 OFFCURVE",
"297 171 CURVE"
);
}
);
width = 609;
}
);
},
